{
.appVersion = "3219";
.formatVersion = 3;
axes = (
{
name = Weight;
tag = wght;
},
{
name = Slant;
tag = slnt;
},
{
name = "Optical size";
tag = opsz;
}
);
classes = (
{
code = "p b n m u v w h r k y y.alt0 y.alt1 y.alt2 y.alt3 y.alt4 uhorn";
name = need_calt;
},
{
code = "p.calt b.calt n.calt m.calt u.calt v.calt w.calt h.calt r.calt k.calt y.calt y.alt0.calt y.alt1.calt y.alt2.calt y.alt3.calt y.alt4.calt uhorn.calt";
name = calt_need_alts;
},
{
code = "uni0308 uni0307 gravecomb acutecomb uni030B uni0302 uni030C uni0306 uni030A tildecomb uni0304 uni0305 hookabovecomb uni030F uni0311 uni031B cedilla.alt caron.alt circumflex_acute.liga circumflex_grave.liga circumflex_hookabove.liga circumflex_tilde.liga circumflex_dotbelow.liga circumflex_dotbelow.liga.alt breve_acute.liga breve_grave.liga breve_hookabove.liga breve_tilde.liga breve_dotbelow.liga breve_dotbelow.liga.alt ring_acute.liga dieresis grave acute macron ";
name = above_marks;
}
);
customParameters = (
{
name = underlinePosition;
value = -150;
},
{
name = underlineThickness;
value = 100;
},
{
name = "Use Typo Metrics";
value = 1;
},
{
name = "gasp Table";
value = "";
},
{
name = uniqueID;
value = "2.000;amin;Dabir";
},
{
name = "Axis Mappings";
value = {
opsz = {
10 = 10;
72 = 72;
};
slnt = {
8.5 = 8.5;
18.5 = 18.5;
};
wght = {
300 = 300;
360 = 400;
430 = 500;
540 = 600;
700 = 700;
};
};
}
);
date = "2023-08-27 20:13:38 +0000";
familyName = Dabir;
featurePrefixes = (
{
automatic = 1;
code = "languagesystem DFLT dflt;

languagesystem latn dflt;
languagesystem latn CAT;
";
name = Languagesystems;
}
);
features = (
{
automatic = 1;
code = "feature frac;
feature ss01;
feature ordn;
feature lnum;
feature onum;
feature zero;
feature locl;
feature case;
";
tag = aalt;
},
{
code = "lookup ccmp_00{
lookupflag IgnoreMarks;
    sub ydieresis by y uni0308;
    sub Agrave by A gravecomb;
    sub Aacute by A acutecomb;
    sub Acircumflex by A uni0302;
    sub Atilde by A tildecomb;
    sub Adieresis by A uni0308;

glyphs = (
{
glyphname = A;
kernLeft = K07;
kernRight = K07;
lastChange = "2023-03-28 11:22:36 +0000";
layers = (
{
anchors = (
{
name = bottom;
pos = (484,0);
},
{
name = ogonek;
pos = (865,10);
},
{
name = top;
pos = (650,1251);
}
);
layerId = "BF4E6768-4291-4940-AB0A-F00B8420ABE6";
shapes = (
{
closed = 1;
nodes = (
(410,391,o),
(349,391,o),
(482,391,cs),
(669,391,o),
(744,405,o),
(777,446,c),
(714,459,o),
(649,465,o),
(566,465,cs),
(322,465,o),
(294,448,o),
(270,391,c)
);
},
{
closed = 1;
nodes = (
(597,1234,l),
(353,634,ls),
(217,298,o),
(110,109,o),
(19,-10,c),
(141,-10,o),
(187,38,o),
(413,603,cs),
(656,1210,l)
);
},
{
closed = 1;
nodes = (
(597,1234,l),
(704,514,ls),
(731,333,o),
(747,242,o),
(767,162,cs),
(785,85,o),
(814,-10,o),
(894,-10,cs),
(906,-10,o),
(917,-8,o),
(929,-4,c),
(884,142,o),
(847,310,o),
(812,539,cs),
(704,1245,l)
);
}
);
vertWidth = 0;
width = 950;
},
{
anchors = (
{
name = bottom;
pos = (485,0);
},
{
name = ogonek;
pos = (970,-13);
},
{
name = top;
pos = (719,1250);
}
);
layerId = "3718A98A-F41F-4673-9A8B-612E711D0E37";
shapes = (
{
closed = 1;
nodes = (
(354,384,o),
(585,389,o),
(659,389,cs),
(724,389,o),
(781,411,o),
(825,453,c),
(750,461,o),
(671,465,o),
(565,465,cs),
(368,465,o),
(320,444,o),
(285,373,c)
);
},
{
closed = 1;
nodes = (
(655,1226,l),
(377,635,ls),
(219,299,o),
(115,110,o),
(19,-9,c),
(141,-9,o),
(174,39,o),
(436,605,cs),
(716,1210,l)
);
},
{
closed = 1;
nodes = (
(655,1226,l),
(724,515,ls),
(741,337,o),
(753,248,o),
(771,168,cs),
(802,22,o),
(850,-13,o),
(970,-13,cs),
(1001,-13,o),
(1032,-7,o),
(1051,0,c),
(1009,154,o),
(978,329,o),
(953,541,cs),
(870,1250,l)
);
}
);
vertWidth = 0;
width = 1070;
},
{
anchors = (
{
name = bottom;
pos = (484,0);
},
{
name = ogonek;
pos = (867,10);
},
{
name = top;
pos = (870,1251);
}
);
layerId = m003;
shapes = (
{
closed = 1;
nodes = (
(509,391,o),
(438,391,o),
(551,391,cs),
(738,391,o),
(815,405,o),
(855,446,c),
(795,459,o),
(731,465,o),
(648,465,cs),
(424,465,o),
(403,448,o),
(369,391,c)
);
},
{
closed = 1;
nodes = (
(814,1234,l),
(465,634,ls),
(269,298,o),
(129,109,o),
(17,-10,c),
(139,-10,o),
(193,38,o),
(519,603,cs),
(869,1210,l)
);
},
{
closed = 1;
nodes = (
(814,1234,l),
(794,514,ls),
(789,333,o),
(789,242,o),
(795,162,cs),
(800,85,o),
(812,-10,o),
(892,-10,cs),
(904,-10,o),
(915,-8,o),
(928,-4,c),
(909,142,o),
(902,310,o),
(907,539,cs),
(923,1245,l)
);
}
);
vertWidth = 0;
width = 950;
},
{
anchors = (
{
name = bottom;
pos = (503,0);
},
{
name = ogonek;
pos = (884,10);
},
{
name = top;
pos = (669,1251);
}
);
layerId = m004;
shapes = (
{
closed = 1;
nodes = (
(449,391,o),
(555,391,o),
(688,391,cs),
(745,391,o),
(763,424,o),
(796,465,c),
(731,465,o),
(688,465,o),
(456,465,cs),
(361,465,o),
(333,448,o),
(309,391,c)
);
},
{
closed = 1;
nodes = (
(616,1240,l),
(177,152,ls),
(150,86,o),
(122,35,o),
(88,-10,c),
(187,-10,o),
(206,38,o),
(239,120,cs),
(675,1210,l)
);
},
{
closed = 1;
nodes = (
(616,1240,l),
(723,514,ls),
(750,333,o),
(766,242,o),
(786,162,cs),
(804,85,o),
(833,-10,o),
(913,-10,cs),
(925,-10,o),
(936,-8,o),
(948,-4,c),
(903,142,o),
(866,310,o),
(831,539,cs),
(723,1240,l)
);
}
);
vertWidth = 0;
width = 978;
},
{
anchors = (
{
name = bottom;
pos = (497,0);
},
{
name = ogonek;
pos = (880,10);
},
{
name = top;
pos = (883,1251);
}
);
associatedMasterId = "BF4E6768-4291-4940-AB0A-F00B8420ABE6";
attr = {
coordinates = (
300,
18.5,
10
);
};
layerId = "0ACCB2B6-A731-4F13-92A8-8D2141B323FC";
name = "Farvardin 5, 02 AP, 00:48";
shapes = (
{
closed = 1;
nodes = (
(522,391,o),
(618,391,o),
(751,391,cs),
(808,391,o),
(828,424,o),
(868,465,c),
(806,465,o),
(774,465,o),
(542,465,cs),
(447,465,o),
(416,448,o),
(382,391,c)
);
},
{
closed = 1;
nodes = (
(827,1240,l),
(223,192,ls),
(167,95,o),
(135,45,o),
(89,0,c),
(171,-25,o),
(201,24,o),
(279,160,cs),
(882,1210,l)
);
},
{
closed = 1;
nodes = (
(827,1240,l),
(807,514,ls),
(802,333,o),
(802,242,o),
(808,162,cs),
(813,85,o),
(825,-10,o),
(905,-10,cs),
(917,-10,o),
(928,-8,o),
(941,-4,c),
(922,142,o),
(915,310,o),
(920,539,cs),
(936,1240,l)
);
}
);
vertWidth = 0;
width = 972;
}
);
unicode = 65;
},
{
glyphname = AE;
kernLeft = K08;
lastChange = "2023-03-25 10:39:35 +0000";
layers = (
{
anchors = (
{
name = bottom;
pos = (609,-5);
},
{
name = top;
pos = (878,1247);
}
);
layerId = "BF4E6768-4291-4940-AB0A-F00B8420ABE6";
shapes = (
{
closed = 1;
nodes = (
(172,0,o),
(207,29,o),
(409,603,cs),
(633,1240,l),
(601,1240,o),
(558,1219,o),
(544,1181,cs),
(348,634,ls),
(220,276,o),
(113,86,o),
(20,0,c)
);
},
{
closed = 1;
nodes = (
(385,0,l),
(372,72,l),
(354,72,o),
(337,72,o),
(319,72,cs),
(136,72,o),
(85,60,o),
(20,0,c)
);
},
{
closed = 1;
nodes = (
(323,390,o),
(367,392,o),
(458,392,cs),
(580,392,o),
(643,409,o),
(687,456,c),
(612,464,o),
(532,468,o),
(426,468,cs),
(336,468,o),
(300,448,o),
(274,384,c)
);
},
{
closed = 1;
nodes = (
(1130,-10,o),
(1188,31,o),
(1192,119,c),
(1120,93,o),
(1032,86,o),
(788,86,cs),
(645,86,l),
(809,1186,l),
(703,1178,l),
(536,66,l),
(635,28,o),
(869,-10,o),
(1008,-10,cs)
);
},
{
closed = 1;
nodes = (
(755,596,o),
(813,601,o),
(887,601,cs),
(1012,601,o),
(1101,598,o),
(1170,591,c),
(1184,613,o),
(1196,649,o),
(1200,679,c),
(1146,684,o),
(1104,685,o),
(990,685,cs),
(788,685,o),
(712,659,o),
(701,586,c)
);
},
{
closed = 1;
nodes = (
(1264,1143,o),
(1324,1184,o),
(1324,1265,c),
(1254,1247,o),
(1175,1240,o),
(1027,1240,cs),
(633,1240,l),
(587,1165,l),
(745,1152,o),
(963,1143,o),
(1145,1143,cs)
);
}
);
vertWidth = 0;
width = 1225;
},
{
anchors = (
{
name = bottom;
pos = (747,0);
},
{
name = top;
pos = (1079,1249);
}
);
layerId = "3718A98A-F41F-4673-9A8B-612E711D0E37";
shapes = (
{
closed = 1;
nodes = (
(209,0,o),
(330,127,o),
(427,340,cs),
(853,1240,l),
(757,1240,o),
(701,1234,o),
(657,1218,c),
(248,379,ls),
(192,258,o),
(92,67,o),
(20,0,c)
);
},
{
closed = 1;
nodes = (
(425,0,l),
(412,72,l),
(394,72,o),
(377,72,o),
(359,72,cs),
(141,72,o),
(86,60,o),
(20,0,c)
);
},
{
closed = 1;
nodes = (
(435,389,o),
(511,392,o),
(623,392,cs),
(758,392,o),
(841,413,o),
(882,456,c),
(809,464,o),
(700,468,o),
(591,468,cs),
(486,468,o),
(416,438,o),
(394,384,c)
);
},
{
closed = 1;
nodes = (
(1430,-10,o),
(1488,31,o),
(1492,119,c),
(1420,93,o),
(1332,86,o),
(1088,86,cs),
(945,86,l),
(1109,1186,l),
(885,1178,l),
(716,66,l),
(799,34,o),
(1142,-10,o),
(1308,-10,cs)
);
},
{
closed = 1;
nodes = (
(1055,596,o),
(1113,601,o),
(1187,601,cs),
(1312,601,o),
(1401,598,o),
(1470,591,c),
(1484,613,o),
(1496,649,o),
(1500,679,c),
(1446,684,o),
(1404,685,o),
(1290,685,cs),
(1088,685,o),
(1012,659,o),
(1001,586,c)
);
},
{
closed = 1;
nodes = (
(1564,1143,o),
(1624,1184,o),
(1624,1265,c),
(1552,1247,o),
(1472,1240,o),
(1327,1240,cs),
(853,1240,l),
(687,1165,l),
(800,1156,o),
(1213,1143,o),
(1445,1143,cs)
);
}
);
vertWidth = 0;
width = 1525;
},
{
anchors = (
{
name = bottom;
pos = (608,-5);
},
{
name = top;
pos = (1098,1247);
}
);
layerId = m003;
shapes = (
{
closed = 1;
nodes = (
(172,0,o),
(212,29,o),
(515,603,cs),
(851,1240,l),
(819,1240,o),
(773,1219,o),
(752,1181,cs),
(460,634,ls),
(268,276,o),
(128,86,o),
(20,0,c)
);
},
{
closed = 1;
nodes = (
(385,0,l),
(384,72,l),
(366,72,o),
(349,72,o),
(331,72,cs),
(148,72,o),
(95,60,o),
(20,0,c)
);
},
{
closed = 1;
nodes = (
(392,390,o),
(436,392,o),
(527,392,cs),
(649,392,o),
(715,409,o),
(767,456,c),
(694,464,o),
(614,468,o),
(508,468,cs),
(418,468,o),
(379,448,o),
(341,384,c)
);
},
{
closed = 1;
nodes = (
(1128,-10,o),
(1193,31,o),
(1213,119,c),
(1136,93,o),
(1047,86,o),
(803,86,cs),
(660,86,l),
(1018,1186,l),
(910,1178,l),
(547,66,l),
(640,28,o),
(867,-10,o),
(1006,-10,cs)
);
},
{
closed = 1;
nodes = (
(860,596,o),
(919,601,o),
(993,601,cs),
(1118,601,o),
(1206,598,o),
(1274,591,c),
(1292,613,o),
(1310,649,o),
(1319,679,c),
(1266,684,o),
(1225,685,o),
(1111,685,cs),
(909,685,o),
(828,659,o),
(804,586,c)
);
},
{
closed = 1;
nodes = (
(1465,1143,o),
(1533,1184,o),
(1547,1265,c),
(1474,1247,o),
(1393,1240,o),
(1245,1240,cs),
(851,1240,l),
(792,1165,l),
(948,1152,o),
(1164,1143,o),
(1346,1143,cs)
);
}
);
vertWidth = 0;
width = 1224;
},
{
anchors = (
{
name = bottom;
pos = (618,-5);
},
{
name = top;
pos = (887,1247);
}
);
layerId = m004;
shapes = (
{
closed = 1;
nodes = (
(241,0,o),
(216,29,o),
(418,603,cs),
(642,1240,l),
(590,1240,o),
(567,1219,o),
(553,1181,cs),
(357,634,ls),
(229,276,o),
(154,86,o),
(89,0,c)
);
},
{
closed = 1;
nodes = (
(394,0,l),
(381,72,l),
(363,72,o),
(346,72,o),
(328,72,cs),
(145,72,o),
(154,60,o),
(89,0,c)
);
},
{
closed = 1;
nodes = (
(332,390,o),
(442,392,o),
(532,392,cs),
(611,392,o),
(647,414,o),
(684,468,c),
(609,468,o),
(541,468,o),
(435,468,cs),
(345,468,o),
(309,448,o),
(283,384,c)
);
},
{
closed = 1;
nodes = (
(1139,-10,o),
(1191,-2,o),
(1195,86,c),
(1112,86,o),
(1041,86,o),
(797,86,cs),
(654,86,l),
(818,1186,l),
(712,1178,l),
(545,66,l),
(644,28,o),
(878,-10,o),
(1017,-10,cs)
);
},
{
closed = 1;
nodes = (
(764,594,o),
(822,594,o),
(896,594,cs),
(1021,594,o),
(1110,594,o),
(1179,594,c),
(1188,617,o),
(1200,653,o),
(1209,682,c),
(1155,682,o),
(1113,682,o),
(840,682,cs),
(764,682,o),
(721,659,o),
(710,594,c)
);
},
{
closed = 1;
nodes = (
(1273,1143,o),
(1333,1159,o),
(1333,1240,c),
(1256,1240,o),
(1184,1240,o),
(1036,1240,cs),
(642,1240,l),
(596,1165,l),
(754,1152,o),
(972,1143,o),
(1154,1143,cs)
);
}
);
vertWidth = 0;
width = 1253;
}
);
metricLeft = "=A";
metricRight = "=E";
unicode = 198;
},
{
glyphname = B;
kernLeft = K35;
lastChange = "2023-03-24 13:05:41 +0000";
layers = (
{
anchors = (
{
name = bottom;
pos = (527,0);
},
{
name = center;
pos = (231,655);
},
{
name = top;
pos = (622,1250);
}
);
layerId = "BF4E6768-4291-4940-AB0A-F00B8420ABE6";
shapes = (
{
closed = 1;
nodes = (
(71,-15,o),
(112,-8,o),
(159,-6,cs),
(206,-2,o),
(265,0,o),
(335,0,cs),
(398,0,o),
(464,0,o),
(527,0,cs),
(884,0,o),
(1061,96,o),
(1061,343,cs),
(1061,540,o),
(881,658,o),
(580,658,cs),
(525,658,o),
(446,649,o),
(390,637,c),
(382,580,l),
(443,590,o),
(507,595,o),
(590,595,cs),
(847,595,o),
(957,522,o),
(957,353,cs),
(957,134,o),
(827,55,o),
(554,55,cs),
(489,55,l),
(372,74,o),
(284,82,o),
(198,82,cs),
(98,82,o),
(42,43,o),
(38,-27,c)
);
},
{
closed = 1;
nodes = (
(361,20,l),
(543,1237,l),
(437,1237,l),
(252,0,l)
);
},
{
closed = 1;
nodes = (
(858,603,o),
(1031,731,o),
(1031,954,cs),
(1031,1158,o),
(867,1250,o),
(622,1250,cs),
(360,1250,o),
(198,1203,o),
(198,1128,c),
(324,1169,o),
(457,1189,o),
(610,1189,cs),
(823,1187,o),
(927,1079,o),
(927,954,cs),
(927,770,o),
(805,658,o),
(580,658,c),
(535,603,l)
);
}
);
vertWidth = 0;
width = 1073;
},
{
anchors = (
{
name = bottom;
pos = (587,0);
},
{
name = center;
pos = (254,685);
},
{
name = top;
pos = (682,1250);
}
);
layerId = "3718A98A-F41F-4673-9A8B-612E711D0E37";
shapes = (
{
closed = 1;
nodes = (
(71,-15,o),
(112,-8,o),
(159,-6,cs),
(197,-3,o),
(305,0,o),
(395,0,cs),
(458,0,o),
(524,0,o),
(587,0,cs),
(965,0,o),
(1181,108,o),
(1181,343,cs),
(1181,530,o),
(960,658,o),
(640,658,cs),
(585,658,o),
(506,649,o),
(450,637,c),
(442,580,l),
(503,590,o),
(567,595,o),
(650,595,cs),
(845,595,o),
(957,507,o),
(957,353,cs),
(957,150,o),
(830,55,o),
(614,55,cs),
(489,55,l),
(372,74,o),
(284,82,o),
(198,82,cs),
(98,82,o),
(42,43,o),
(38,-27,c)
);
},
{
closed = 1;
nodes = (
(481,20,l),
(663,1237,l),
(435,1220,l),
(252,0,l)
);
},
{
closed = 1;
nodes = (
(936,603,o),
(1151,745,o),
(1151,973,cs),
(1151,1147,o),
(946,1250,o),
(682,1250,cs),
(397,1250,o),
(198,1200,o),
(198,1128,c),
(311,1165,o),
(496,1189,o),
(670,1189,cs),
(818,1190,o),
(927,1119,o),
(927,978,cs),
(927,784,o),
(813,658,o),
(640,658,c),
(595,603,l)
);
}
);
vertWidth = 0;
width = 1193;
},
{
anchors = (
{
name = bottom;
pos = (537,0);
},
{
name = center;
pos = (356,655);
},
{
name = top;
pos = (852,1250);
}
);
layerId = m003;
shapes = (
{
closed = 1;
nodes = (
(78,-15,o),
(120,-8,o),
(168,-6,cs),
(215,-2,o),
(275,0,o),
(345,0,cs),
(408,0,o),
(474,0,o),
(537,0,cs),
(894,0,o),
(1088,96,o),
(1131,343,cs),
(1166,540,o),
(1007,658,o),
(706,658,cs),
(651,658,o),
(570,649,o),
(512,637,c),
(494,580,l),
(557,590,o),
(622,595,o),
(705,595,cs),
(962,595,o),
(1059,522,o),
(1029,353,cs),
(990,134,o),
(846,55,o),
(573,55,cs),
(508,55,l),
(395,74,o),
(308,82,o),
(222,82,cs),
(122,82,o),
(59,43,o),
(43,-27,c)
);
},
{
closed = 1;
nodes = (
(374,20,l),
(771,1237,l),
(665,1237,l),
(262,0,l)
);
},
{
closed = 1;
nodes = (
(974,603,o),
(1170,731,o),
(1209,954,cs),
(1245,1158,o),
(1097,1250,o),
(852,1250,cs),
(590,1250,o),
(420,1203,o),
(407,1128,c),
(540,1169,o),
(676,1189,o),
(829,1189,cs),
(1042,1187,o),
(1127,1079,o),
(1105,954,cs),
(1073,770,o),
(931,658,o),
(706,658,c),
(651,603,l)
);
}
);
vertWidth = 0;
width = 1073;
},
{
anchors = (
{
name = bottom;
pos = (540,0);
},
{
name = center;
pos = (244,655);
},
{
name = top;
pos = (635,1250);
}
);
layerId = m004;
shapes = (
{
closed = 1;
nodes = (
(97,0,o),
(125,0,o),
(172,0,cs),
(220,0,o),
(278,0,o),
(348,0,cs),
(411,0,o),
(477,0,o),
(540,0,cs),
(897,0,o),
(1074,96,o),
(1074,343,cs),
(1074,540,o),
(894,648,o),
(593,648,cs),
(538,648,o),
(459,648,o),
(403,648,c),
(395,592,l),
(456,592,o),
(520,592,o),
(603,592,cs),
(860,592,o),
(970,522,o),
(970,353,cs),
(970,134,o),
(840,59,o),
(567,59,cs),
(502,59,l),
(385,59,o),
(294,60,o),
(143,60,cs),
(108,60,o),
(74,49,o),
(67,0,c)
);
},
{
closed = 1;
nodes = (
(374,20,l),
(556,1237,l),
(450,1237,l),
(265,0,l)
);
},
{
closed = 1;
nodes = (
(871,603,o),
(1044,731,o),
(1044,954,cs),
(1044,1158,o),
(880,1250,o),
(635,1250,cs),
(373,1250,o),
(211,1203,o),
(211,1128,c),
(337,1169,o),
(470,1189,o),
(623,1189,cs),
(836,1187,o),
(940,1079,o),
(940,954,cs),
(940,770,o),
(818,658,o),
(593,648,c),
(548,592,l)
);
}
);
vertWidth = 0;
width = 1112;
}
);
unicode = 66;
},
{
glyphname = C;
kernLeft = K09;
lastChange = "2023-03-24 13:05:41 +0000";
layers = (
{
anchors = (
{
name = bottom;
pos = (606,-10);
},
{
name = top;
pos = (730,1250);
}
);
layerId = "BF4E6768-4291-4940-AB0A-F00B8420ABE6";
shapes = (
{
closed = 1;
nodes = (
(744,-10,o),
(858,46,o),
(858,115,cs),
(858,122,o),
(857,129,o),
(854,137,c),
(786,72,o),
(727,49,o),
(621,49,cs),
(418,49,o),
(285,233,o),
(285,516,cs),
(285,918,o),
(473,1191,o),
(710,1191,cs),
(813,1191,o),
(901,1137,o),
(952,1044,c),
(975,1055,o),
(988,1076,o),
(988,1103,cs),
(988,1185,o),
(873,1250,o),
(730,1250,cs),
(416,1250,o),
(166,959,o),
(166,532,cs),
(166,202,o),
(338,-10,o),
(606,-10,cs)
);
}
);
vertWidth = 0;
width = 861;
},
{
anchors = (
{
name = bottom;
pos = (669,-10);
},
{
name = top;
pos = (793,1250);
}
);
layerId = "3718A98A-F41F-4673-9A8B-612E711D0E37";
shapes = (
{
closed = 1;
nodes = (
(852,-10,o),
(981,42,o),
(981,115,cs),
(981,121,o),
(980,129,o),
(977,137,c),
(918,80,o),
(836,49,o),
(744,49,cs),
(541,49,o),
(408,233,o),
(408,516,cs),
(408,918,o),
(596,1191,o),
(833,1191,cs),
(935,1191,o),
(1014,1129,o),
(1042,1025,c),
(1074,1028,o),
(1099,1058,o),
(1099,1092,cs),
(1099,1173,o),
(951,1250,o),
(793,1250,cs),
(463,1250,o),
(169,938,o),
(169,532,cs),
(169,224,o),
(385,-10,o),
(669,-10,cs)
);
}
);
vertWidth = 0;
width = 984;
},
{
anchors = (
{
name = bottom;
pos = (610,-10);
},
{
name = top;
pos = (956,1250);
}
);
layerId = m003;
shapes = (
{
closed = 1;
nodes = (
(748,-10,o),
(872,46,o),
(884,115,cs),
(885,122,o),
(886,129,o),
(884,137,c),
(804,72,o),
(741,49,o),
(635,49,cs),
(432,49,o),
(332,233,o),
(382,516,cs),
(453,918,o),
(689,1191,o),
(926,1191,cs),
(1029,1191,o),
(1107,1137,o),
(1142,1044,c),
(1167,1055,o),
(1183,1076,o),
(1188,1103,cs),
(1203,1185,o),
(1099,1250,o),
(956,1250,cs),
(642,1250,o),
(341,959,o),
(266,532,cs),
(207,202,o),
(342,-10,o),
(610,-10,cs)
);
}
);
vertWidth = 0;
width = 861;
},
{
anchors = (
{
name = bottom;
pos = (639,-10);
},
{
name = top;
pos = (763,1250);
}
);
layerId = m004;
shapes = (
{
closed = 1;
nodes = (
(777,-10,o),
(891,46,o),
(891,115,cs),
(891,122,o),
(890,129,o),
(887,137,c),
(819,72,o),
(760,49,o),
(654,49,cs),
(451,49,o),
(318,233,o),
(318,516,cs),
(318,918,o),
(506,1191,o),
(743,1191,cs),
(846,1191,o),
(934,1137,o),
(985,1044,c),
(1008,1055,o),
(1021,1076,o),
(1021,1103,cs),
(1021,1185,o),
(906,1250,o),
(763,1250,cs),
(449,1250,o),
(199,959,o),
(199,532,cs),
(199,202,o),
(371,-10,o),
(639,-10,cs)
);
}
);
vertWidth = 0;
width = 903;
}
);
metricLeft = "=O";
unicode = 67;
},
{
glyphname = D;
kernLeft = K35;
kernRight = K08;
lastChange = "2023-03-24 13:05:41 +0000";
layers = (
{
anchors = (
{
name = bottom;
pos = (467,0);
},
{
name = center;
pos = (648,635);
},
{
name = top;
pos = (556,1250);
}
);
layerId = "BF4E6768-4291-4940-AB0A-F00B8420ABE6";
shapes = (
{
closed = 1;
nodes = (
(110,-8,o),
(194,0,o),
(338,0,cs),
(467,0,ls),
(857,0,o),
(1081,266,o),
(1081,720,cs),
(1081,1073,o),
(883,1250,o),
(556,1250,cs),
(350,1250,o),
(198,1197,o),
(198,1125,c),
(297,1164,o),
(422,1185,o),
(557,1185,cs),
(830,1185,o),
(981,1052,o),
(981,744,cs),
(981,305,o),
(793,55,o),
(494,55,c),
(376,74,o),
(287,82,o),
(201,82,cs),
(101,82,o),
(45,43,o),
(41,-27,c)
);
},
{
closed = 1;
nodes = (
(361,8,l),
(545,1234,l),
(439,1234,l),
(255,8,l)
);
}
);
vertWidth = 0;
width = 1062;
},
{
anchors = (
{
name = bottom;
pos = (586,0);
},
{
name = center;
pos = (291,678);
},
{
name = top;
pos = (629,1250);
}
);
layerId = "3718A98A-F41F-4673-9A8B-612E711D0E37";
shapes = (
{
closed = 1;
nodes = (
(109,-8,o),
(193,0,o),
(337,0,cs),
(586,0,ls),
(1051,0,o),
(1259,371,o),
(1259,698,cs),
(1259,1067,o),
(999,1250,o),
(629,1250,cs),
(425,1250,o),
(200,1210,o),
(200,1145,c),
(286,1167,o),
(501,1185,o),
(640,1185,cs),
(930,1185,o),
(1040,1028,o),
(1040,736,cs),
(1040,435,o),
(944,55,o),
(613,55,c),
(530,68,o),
(320,82,o),
(200,82,cs),
(100,82,o),
(44,43,o),
(40,-27,c)
);
},
{
closed = 1;
nodes = (
(480,8,l),
(664,1234,l),
(438,1234,l),
(254,8,l)
);
}
);
vertWidth = 0;
width = 1243;
},
{
anchors = (
{
name = bottom;
pos = (477,0);
},
{
name = center;
pos = (770,635);
},
{
name = top;
pos = (786,1250);
}
);
layerId = m003;
shapes = (
{
closed = 1;
nodes = (
(118,-8,o),
(204,0,o),
(348,0,cs),
(477,0,ls),
(867,0,o),
(1138,266,o),
(1218,720,cs),
(1280,1073,o),
(1113,1250,o),
(786,1250,cs),
(580,1250,o),
(419,1197,o),
(406,1125,c),
(512,1164,o),
(641,1185,o),
(776,1185,cs),
(1049,1185,o),
(1176,1052,o),
(1122,744,cs),
(1045,305,o),
(812,55,o),
(513,55,c),
(399,74,o),
(311,82,o),
(225,82,cs),
(125,82,o),
(62,43,o),
(46,-27,c)
);
},
{
closed = 1;
nodes = (
(372,8,l),
(772,1234,l),
(666,1234,l),
(266,8,l)
);
}
);
vertWidth = 0;
width = 1067;
},
{
anchors = (
{
name = bottom;
pos = (480,0);
},
{
name = center;
pos = (661,635);
},
{
name = top;
pos = (569,1250);
}
);
layerId = m004;
shapes = (
{
closed = 1;
nodes = (
(128,0,o),
(207,0,o),
(351,0,cs),
(480,0,ls),
(870,0,o),
(1094,266,o),
(1094,720,cs),
(1094,1073,o),
(896,1250,o),
(569,1250,cs),
(363,1250,o),
(211,1197,o),
(211,1125,c),
(310,1164,o),
(435,1185,o),
(570,1185,cs),
(843,1185,o),
(994,1052,o),
(994,744,cs),
(994,305,o),
(806,60,o),
(507,60,c),
(381,60,o),
(252,60,o),
(166,60,cs),
(86,60,o),
(66,36,o),
(59,0,c)
);
},
{
closed = 1;
nodes = (
(374,8,l),
(558,1234,l),
(452,1234,l),
(268,8,l)
);
}
);
vertWidth = 0;
width = 1108;
}
);
metricLeft = "=B";
metricRight = "=O";
unicode = 68;
},
{
glyphname = E;
lastChange = "2023-03-24 13:05:41 +0000";
layers = (
{
anchors = (
{
name = bottom;
pos = (602,-10);
},
{
name = ogonek;
pos = (602,-10);
},
{
name = top;
pos = (651,1238);
},
{
name = topleft;
pos = (323,1240);
}
);
layerId = "BF4E6768-4291-4940-AB0A-F00B8420ABE6";
shapes = (
{
closed = 1;
nodes = (
(724,-10,o),
(782,31,o),
(786,119,c),
(714,93,o),
(626,86,o),
(382,86,cs),
(239,86,l),
(403,1186,l),
(529,1157,o),
(611,1148,o),
(732,1148,cs),
(879,1148,o),
(918,1174,o),
(918,1271,c),
(882,1250,o),
(831,1240,o),
(765,1240,cs),
(425,1240,ls),
(341,1240,o),
(290,1132,o),
(260,933,cs),
(130,66,l),
(229,28,o),
(463,-10,o),
(602,-10,cs)
);
},
{
closed = 1;
nodes = (
(349,596,o),
(407,601,o),
(481,601,cs),
(606,601,o),
(695,598,o),
(764,591,c),
(778,613,o),
(790,649,o),
(794,679,c),
(740,684,o),
(698,685,o),
(584,685,cs),
(382,685,o),
(306,659,o),
(295,586,c)
);
}
);
vertWidth = 0;
width = 819;
},
{
anchors = (
{
name = bottom;
pos = (722,-10);
},
{
name = ogonek;
pos = (906,119);
},
{
name = top;
pos = (711,1244);
},
{
name = topleft;
pos = (322,1233);
}
);
layerId = "3718A98A-F41F-4673-9A8B-612E711D0E37";
shapes = (
{
closed = 1;
nodes = (
(844,-10,o),
(902,31,o),
(906,119,c),
(834,93,o),
(746,86,o),
(502,86,cs),
(359,86,l),
(523,1186,l),
(649,1157,o),
(731,1148,o),
(852,1148,cs),
(999,1148,o),
(1038,1174,o),
(1038,1271,c),
(1002,1250,o),
(951,1240,o),
(885,1240,cs),
(545,1240,ls),
(379,1240,o),
(296,1173,o),
(282,1078,cs),
(130,66,l),
(213,34,o),
(556,-10,o),
(722,-10,cs)
);
},
{
closed = 1;
nodes = (
(469,596,o),
(527,601,o),
(601,601,cs),
(726,601,o),
(815,598,o),
(884,591,c),
(898,613,o),
(910,649,o),
(914,679,c),
(860,684,o),
(818,685,o),
(704,685,cs),
(502,685,o),
(426,659,o),
(415,586,c)
);
}
);
vertWidth = 0;
width = 939;
},
{
anchors = (
{
name = bottom;
pos = (608,-10);
},
{
name = ogonek;
pos = (608,-10);
},
{
name = top;
pos = (877,1238);
},
{
name = topleft;
pos = (549,1240);
}
);
layerId = m003;
shapes = (
{
closed = 1;
nodes = (
(730,-10,o),
(795,31,o),
(815,119,c),
(738,93,o),
(649,86,o),
(405,86,cs),
(262,86,l),
(620,1186,l),
(741,1157,o),
(821,1148,o),
(942,1148,cs),
(1089,1148,o),
(1133,1174,o),
(1150,1271,c),
(1110,1250,o),
(1057,1240,o),
(991,1240,cs),
(651,1240,ls),
(567,1240,o),
(497,1132,o),
(432,933,cs),
(149,66,l),
(242,28,o),
(469,-10,o),
(608,-10,cs)
);
},
{
closed = 1;
nodes = (
(462,596,o),
(521,601,o),
(595,601,cs),
(720,601,o),
(808,598,o),
(876,591,c),
(894,613,o),
(912,649,o),
(921,679,c),
(868,684,o),
(827,685,o),
(713,685,cs),
(511,685,o),
(430,659,o),
(406,586,c)
);
}
);
vertWidth = 0;
width = 826;
},
{
anchors = (
{
name = bottom;
pos = (655,-10);
},
{
name = ogonek;
pos = (655,-10);
},
{
name = top;
pos = (704,1238);
},
{
name = topleft;
pos = (376,1240);
}
);
layerId = m004;
shapes = (
{
closed = 1;
nodes = (
(777,-10,o),
(832,-2,o),
(836,86,c),
(759,86,o),
(679,86,o),
(435,86,cs),
(292,86,l),
(456,1186,l),
(582,1157,o),
(664,1148,o),
(785,1148,cs),
(932,1148,o),
(964,1157,o),
(971,1240,c),
(926,1240,o),
(884,1240,o),
(818,1240,cs),
(478,1240,ls),
(394,1240,o),
(343,1132,o),
(313,933,cs),
(183,66,l),
(282,28,o),
(516,-10,o),
(655,-10,cs)
);
},
{
closed = 1;
nodes = (
(402,594,o),
(460,594,o),
(534,594,cs),
(659,594,o),
(748,594,o),
(817,594,c),
(826,617,o),
(838,653,o),
(847,682,c),
(793,682,o),
(751,682,o),
(478,682,cs),
(402,682,o),
(359,659,o),
(348,594,c)
);
}
);
vertWidth = 0;
width = 894;
}
);
unicode = 69;
},
{
glyphname = uni018F;
lastChange = "2023-03-24 13:05:41 +0000";
layers = (
{
anchors = (
{
name = bottom;
pos = (477,-10);
},
{
name = top;
pos = (610,1250);
}
);
layerId = "BF4E6768-4291-4940-AB0A-F00B8420ABE6";
shapes = (
{
closed = 1;
nodes = (
(799,-10,o),
(1038,291,o),
(1038,728,cs),
(1038,1057,o),
(863,1250,o),
(610,1250,cs),
(483,1250,o),
(325,1184,o),
(325,1086,cs),
(325,1068,o),
(333,1053,o),
(350,1044,c),
(420,1136,o),
(520,1191,o),
(618,1191,cs),
(801,1191,o),
(930,1025,o),
(930,736,cs),
(930,339,o),
(737,49,o),
(491,49,cs),
(322,49,o),
(223,132,o),
(223,275,cs),
(223,501,o),
(538,645,o),
(1019,680,c),
(958,733,l),
(469,698,o),
(131,527,o),
(131,276,cs),
(131,103,o),
(267,-10,o),
(477,-10,cs)
);
}
);
vertWidth = 0;
width = 1017;
},
{
anchors = (
{
name = bottom;
pos = (499,-10);
},
{
name = top;
pos = (626,1250);
}
);
layerId = "3718A98A-F41F-4673-9A8B-612E711D0E37";
shapes = (
{
closed = 1;
nodes = (
(866.109,-10,o),
(1152,314,o),
(1152,682,cs),
(1152,1063,o),
(925,1250,o),
(626,1250,cs),
(438,1250,o),
(290,1160,o),
(290,1086,cs),
(290,1068,o),
(298,1053,o),
(315,1044,c),
(392,1136,o),
(485,1191,o),
(611,1191,cs),
(809,1191,o),
(924,1049,o),
(924,692,cs),
(924,332,o),
(769.86,49,o),
(529,49,cs),
(415.933,49,o),
(337,99,o),
(337,244,cs),
(337,462.758,o),
(590,607,o),
(942,662,c),
(926,731,l),
(522,686,o),
(125,534,o),
(125,233,cs),
(125,81.394,o),
(269.053,-10,o),
(499,-10,cs)
);
}
);
vertWidth = 0;
width = 1138;
},
{
anchors = (
{
name = bottom;
pos = (478,-10);
},
{
name = top;
pos = (833,1250);
}
);
layerId = m003;
shapes = (
{
closed = 1;
nodes = (
(800,-10,o),
(1092,291,o),
(1169,728,cs),
(1227,1057,o),
(1086,1250,o),
(833,1250,cs),
(706,1250,o),
(537,1184,o),
(519,1086,cs),
(516,1068,o),
(521,1053,o),
(537,1044,c),
(623,1136,o),
(733,1191,o),
(831,1191,cs),
(1014,1191,o),
(1113,1025,o),
(1063,736,cs),
(993,339,o),
(748,49,o),
(502,49,cs),
(333,49,o),
(249,132,o),
(274,275,cs),
(314,501,o),
(654,645,o),
(1142,680,c),
(1090,733,l),
(595,698,o),
(227,527,o),
(182,276,cs),
(152,103,o),
(268,-10,o),
(478,-10,cs)
);
}
);
vertWidth = 0;
width = 1015;
},
{
anchors = (
{
name = bottom;
pos = (515,-10);
},
{
name = top;
pos = (648,1250);
}
);
layerId = m004;
shapes = (
{
closed = 1;
nodes = (
(837,-10,o),
(1076,291,o),
(1076,728,cs),
(1076,1057,o),
(901,1250,o),
(648,1250,cs),
(521,1250,o),
(363,1184,o),
(363,1086,cs),
(363,1068,o),
(371,1053,o),
(388,1044,c),
(458,1136,o),
(558,1191,o),
(656,1191,cs),
(839,1191,o),
(968,1025,o),
(968,736,cs),
(968,339,o),
(775,49,o),
(529,49,cs),
(360,49,o),
(261,132,o),
(261,275,cs),
(261,501,o),
(576,645,o),
(1057,680,c),
(996,733,l),
(507,698,o),
(169,527,o),
(169,276,cs),
(169,103,o),
(305,-10,o),
(515,-10,cs)
);
}
);
vertWidth = 0;
width = 1088;
}
);
metricRight = "=O";
unicode = 399;
},
{
glyphname = F;
kernRight = K10;
lastChange = "2023-03-24 13:05:41 +0000";
layers = (
{
anchors = (
{
name = bottom;
pos = (202,0);
},
{
name = top;
pos = (636,1250);
}
);
layerId = "BF4E6768-4291-4940-AB0A-F00B8420ABE6";
shapes = (
{
closed = 1;
nodes = (
(256,0,l),
(442,1243,l),
(333,1223,l),
(150,0,l)
);
},
{
closed = 1;
nodes = (
(380,596,o),
(437,601,o),
(514,601,cs),
(593,601,o),
(711,596,o),
(764,591,c),
(778,613,o),
(790,649,o),
(794,679,c),
(750,683,o),
(680,685,o),
(594,685,cs),
(412,685,o),
(335,657,o),
(325,586,c)
);
},
{
closed = 1;
nodes = (
(236,1161,o),
(301,1168,o),
(413,1168,cs),
(458,1168,o),
(506,1167,o),
(589,1164,cs),
(673,1161,o),
(717,1160,o),
(755,1160,cs),
(842,1160,o),
(888,1187,o),
(896,1243,c),
(851,1247,o),
(746,1250,o),
(636,1250,cs),
(455,1250,o),
(319,1242,o),
(261,1227,cs),
(213,1214,o),
(181,1181,o),
(181,1145,c)
);
}
);
vertWidth = 0;
width = 750;
},
{
anchors = (
{
name = bottom;
pos = (264,0);
},
{
name = top;
pos = (756,1250);
}
);
layerId = "3718A98A-F41F-4673-9A8B-612E711D0E37";
shapes = (
{
closed = 1;
nodes = (
(376,0,l),
(562,1243,l),
(333,1223,l),
(150,0,l)
);
},
{
closed = 1;
nodes = (
(500,596,o),
(557,601,o),
(634,601,cs),
(713,601,o),
(831,596,o),
(884,591,c),
(898,613,o),
(910,649,o),
(914,679,c),
(870,683,o),
(800,685,o),
(714,685,cs),
(532,685,o),
(455,657,o),
(445,586,c)
);
},
{
closed = 1;
nodes = (
(223,1158,o),
(380,1168,o),
(533,1168,cs),
(578,1168,o),
(626,1167,o),
(709,1164,cs),
(793,1161,o),
(837,1160,o),
(875,1160,cs),
(962,1160,o),
(1008,1187,o),
(1016,1243,c),
(971,1247,o),
(866,1250,o),
(756,1250,cs),
(533,1250,o),
(311,1240,o),
(261,1227,cs),
(213,1214,o),
(181,1181,o),
(181,1145,c)
);
}
);
vertWidth = 0;
width = 870;
},
{
anchors = (
{
name = bottom;
pos = (214,0);
},
{
name = top;
pos = (868,1250);
}
);
layerId = m003;
shapes = (
{
closed = 1;
nodes = (
(268,0,l),
(673,1243,l),
(561,1223,l),
(162,0,l)
);
},
{
closed = 1;
nodes = (
(497,596,o),
(555,601,o),
(632,601,cs),
(711,601,o),
(828,596,o),
(880,591,c),
(898,613,o),
(916,649,o),
(926,679,c),
(882,683,o),
(813,685,o),
(727,685,cs),
(545,685,o),
(463,657,o),
(440,586,c)
);
},
{
closed = 1;
nodes = (
(453,1161,o),
(519,1168,o),
(631,1168,cs),
(676,1168,o),
(724,1167,o),
(806,1164,cs),
(890,1161,o),
(934,1160,o),
(972,1160,cs),
(1059,1160,o),
(1109,1187,o),
(1127,1243,c),
(1083,1247,o),
(978,1250,o),
(868,1250,cs),
(687,1250,o),
(550,1242,o),
(489,1227,cs),
(439,1214,o),
(401,1181,o),
(395,1145,c)
);
}
);
vertWidth = 0;
width = 750;
},
{
anchors = (
{
name = bottom;
pos = (206,0);
},
{
name = top;
pos = (640,1250);
}
);
layerId = m004;
shapes = (
{
closed = 1;
nodes = (
(260,0,l),
(446,1243,l),
(337,1223,l),
(154,0,l)
);
},
{
closed = 1;
nodes = (
(384,594,o),
(441,594,o),
(518,594,cs),
(597,594,o),
(715,594,o),
(768,594,c),
(782,613,o),
(794,649,o),
(798,682,c),
(754,682,o),
(684,682,o),
(448,682,cs),
(381,682,o),
(339,657,o),
(329,594,c)
);
},
{
closed = 1;
nodes = (
(240,1157,o),
(305,1157,o),
(417,1157,cs),
(462,1157,o),
(510,1157,o),
(593,1157,cs),
(677,1157,o),
(721,1157,o),
(759,1157,cs),
(846,1157,o),
(892,1194,o),
(900,1250,c),
(852,1250,o),
(750,1250,o),
(640,1250,cs),
(459,1250,o),
(348,1249,o),
(316,1249,cs),
(234,1249,o),
(193,1209,o),
(185,1157,c)
);
}
);
vertWidth = 0;
width = 772;
}
);
unicode = 70;
},
{
glyphname = G;
kernLeft = K09;
lastChange = "2023-09-16 09:19:14 +0000";
layers = (
{
anchors = (
{
name = bottom;
pos = (620,-10);
},
{
name = top;
pos = (731,1250);
}
);
layerId = "BF4E6768-4291-4940-AB0A-F00B8420ABE6";
shapes = (
{
closed = 1;
nodes = (
(908,-10,o),
(1055,184,o),
(1055,642,c),
(961,642,l),
(961,634,o),
(961,625,o),
(961,615,cs),
(961,261,o),
(838,63,o),
(634,51,c),
(427,51,o),
(286,243,o),
(286,524,cs),
(286,919,o),
(475,1191,o),
(711,1191,cs),
(814,1191,o),
(902,1137,o),
(953,1044,c),
(976,1055,o),
(989,1076,o),
(989,1103,cs),
(989,1185,o),
(874,1250,o),
(731,1250,cs),
(418,1250,o),
(167,960,o),
(167,539,cs),
(167,209,o),
(347,-10,o),
(620,-10,cs)
);
},
{
closed = 1;
nodes = (
(1043,546,l),
(961,642,l),
(718,642,ls),
(687,642,o),
(656,644,o),
(625,648,c),
(607,582,o),
(654,546,o),
(745,546,cs)
);
}
);
vertWidth = 0;
width = 1056;
},
{
anchors = (
{
name = bottom;
pos = (692,-10);
},
{
name = top;
pos = (822,1250);
}
);
layerId = "3718A98A-F41F-4673-9A8B-612E711D0E37";
shapes = (
{
closed = 1;
nodes = (
(1023,-10,o),
(1229,197,o),
(1248,644,c),
(1037,644,l),
(1037,637,o),
(1037,625,o),
(1037,615,cs),
(1037,260,o),
(924,51,o),
(701,51,cs),
(481,51,o),
(408,255,o),
(408,492,cs),
(408,749,o),
(485,1191,o),
(822,1191,cs),
(940,1191,o),
(1028,1137,o),
(1079,1044,c),
(1102,1055,o),
(1115,1076,o),
(1115,1103,cs),
(1115,1185,o),
(1000,1250,o),
(822,1250,cs),
(427,1250,o),
(170,937,o),
(170,536,cs),
(170,244,o),
(325,-10,o),
(692,-10,cs)
);
},
{
closed = 1;
nodes = (
(1127,555,l),
(1037,644,l),
(878,644,ls),
(794,644,o),
(740,648,o),
(701,655,c),
(689,578,o),
(735,555,o),
(811,555,cs)
);
}
);
vertWidth = 0;
width = 1256;
},
{
anchors = (
{
name = bottom;
pos = (624,-10);
},
{
name = top;
pos = (957,1250);
}
);
layerId = m003;
shapes = (
{
closed = 1;
nodes = (
(912,-10,o),
(1093,184,o),
(1174,642,c),
(1080,642,l),
(1079,634,o),
(1077,625,o),
(1075,615,cs),
(1013,261,o),
(855,63,o),
(649,51,c),
(442,51,o),
(335,243,o),
(384,524,cs),
(454,919,o),
(691,1191,o),
(927,1191,cs),
(1030,1191,o),
(1108,1137,o),
(1143,1044,c),
(1168,1055,o),
(1184,1076,o),
(1189,1103,cs),
(1204,1185,o),
(1100,1250,o),
(957,1250,cs),
(644,1250,o),
(342,960,o),
(268,539,cs),
(210,209,o),
(351,-10,o),
(624,-10,cs)
);
},
{
closed = 1;
nodes = (
(1145,546,l),
(1080,642,l),
(837,642,ls),
(806,642,o),
(775,644,o),
(745,648,c),
(715,582,o),
(756,546,o),
(847,546,cs)
);
}
);
vertWidth = 0;
width = 1064;
},
{
anchors = (
{
name = bottom;
pos = (653,-10);
},
{
name = top;
pos = (764,1250);
}
);
layerId = m004;
shapes = (
{
closed = 1;
nodes = (
(941,-10,o),
(1088,184,o),
(1088,642,c),
(994,642,l),
(994,634,o),
(994,625,o),
(994,615,cs),
(994,261,o),
(871,63,o),
(667,51,c),
(460,51,o),
(319,243,o),
(319,524,cs),
(319,919,o),
(508,1191,o),
(744,1191,cs),
(847,1191,o),
(935,1137,o),
(986,1044,c),
(1009,1055,o),
(1022,1076,o),
(1022,1103,cs),
(1022,1185,o),
(907,1250,o),
(764,1250,cs),
(451,1250,o),
(200,960,o),
(200,539,cs),
(200,209,o),
(380,-10,o),
(653,-10,cs)
);
},
{
closed = 1;
nodes = (
(1076,546,l),
(994,642,l),
(751,642,ls),
(720,642,o),
(683,642,o),
(653,642,c),
(643,567,o),
(687,546,o),
(778,546,cs)
);
}
);
vertWidth = 0;
width = 1124;
}
);
metricLeft = "=O";
unicode = 71;
},
{
glyphname = H;
kernRight = K12;
lastChange = "2023-03-24 13:05:41 +0000";
layers = (
{
anchors = (
{
name = bottom;
pos = (570,0);
},
{
name = center;
pos = (695,643);
},
{
name = top;
pos = (776,1242);
},
{
name = topleft;
pos = (395,1244);
}
);
layerId = "BF4E6768-4291-4940-AB0A-F00B8420ABE6";
shapes = (
{
closed = 1;
nodes = (
(329,-10,o),
(356,56,o),
(509,1134,cs),
(524,1240,l),
(426,1227,l),
(274,200,o),
(247,112,o),
(120,3,c),
(132,-6,o),
(145,-10,o),
(165,-10,cs)
);
},
{
closed = 1;
nodes = (
(979,608,l),
(1010,683,l),
(418,683,l),
(351,608,l)
);
},
{
closed = 1;
nodes = (
(230,1172,o),
(328,1178,o),
(429,1178,cs),
(459,1178,o),
(493,1178,o),
(505,1178,c),
(524,1240,l),
(464,1243,o),
(427,1244,o),
(395,1244,cs),
(330,1244,o),
(282,1240,o),
(250,1232,cs),
(210,1222,o),
(186,1197,o),
(184,1162,c)
);
},
{
closed = 1;
nodes = (
(955,0,l),
(1140,1240,l),
(1043,1240,l),
(859,0,l)
);
}
);
vertWidth = 0;
width = 1055;
},
{
anchors = (
{
name = bottom;
pos = (655,0);
},
{
name = center;
pos = (247,670);
},
{
name = top;
pos = (854,1242);
},
{
name = topleft;
pos = (250,1232);
}
);
layerId = "3718A98A-F41F-4673-9A8B-612E711D0E37";
shapes = (
{
closed = 1;
nodes = (
(449,-10,o),
(476,56,o),
(629,1134,cs),
(644,1240,l),
(426,1227,l),
(274,200,o),
(247,112,o),
(120,3,c),
(126,-2,o),
(228,-10,o),
(285,-10,cs)
);
},
{
closed = 1;
nodes = (
(1039,608,l),
(1070,683,l),
(538,683,l),
(471,608,l)
);
},
{
closed = 1;
nodes = (
(230,1172,o),
(328,1178,o),
(429,1178,cs),
(459,1178,o),
(613,1178,o),
(625,1178,c),
(644,1240,l),
(612,1242,o),
(457,1244,o),
(395,1244,cs),
(330,1244,o),
(282,1240,o),
(250,1232,cs),
(210,1222,o),
(186,1197,o),
(184,1162,c)
);
},
{
closed = 1;
nodes = (
(1135,0,l),
(1320,1240,l),
(1103,1240,l),
(919,0,l)
);
}
);
vertWidth = 0;
width = 1235;
},
{
anchors = (
{
name = bottom;
pos = (580,0);
},
{
name = center;
pos = (818,643);
},
{
name = top;
pos = (1005,1242);
},
{
name = topleft;
pos = (624,1244);
}
);
layerId = m003;
shapes = (
{
closed = 1;
nodes = (
(337,-10,o),
(376,56,o),
(719,1134,cs),
(752,1240,l),
(652,1227,l),
(319,200,o),
(277,112,o),
(130,3,c),
(141,-6,o),
(153,-10,o),
(173,-10,cs)
);
},
{
closed = 1;
nodes = (
(1096,608,l),
(1140,683,l),
(548,683,l),
(468,608,l)
);
},
{
closed = 1;
nodes = (
(446,1172,o),
(545,1178,o),
(646,1178,cs),
(676,1178,o),
(710,1178,o),
(722,1178,c),
(752,1240,l),
(693,1243,o),
(656,1244,o),
(624,1244,cs),
(559,1244,o),
(510,1240,o),
(477,1232,cs),
(435,1222,o),
(407,1197,o),
(399,1162,c)
);
},
{
closed = 1;
nodes = (
(965,0,l),
(1368,1240,l),
(1271,1240,l),
(869,0,l)
);
}
);
vertWidth = 0;
width = 1055;
},
{
anchors = (
{
name = bottom;
pos = (575,0);
},
{
name = center;
pos = (700,643);
},
{
name = top;
pos = (781,1242);
},
{
name = topleft;
pos = (400,1244);
}
);
layerId = m004;
shapes = (
{
closed = 1;
nodes = (
(335,-10,o),
(361,56,o),
(514,1134,cs),
(529,1240,l),
(431,1227,l),
(279,200,o),
(251,112,o),
(155,3,c),
(167,-6,o),
(180,-10,o),
(200,-10,cs)
);
},
{
closed = 1;
nodes = (
(984,608,l),
(1015,683,l),
(423,683,l),
(356,608,l)
);
},
{
closed = 1;
nodes = (
(243,1180,o),
(333,1180,o),
(434,1180,cs),
(464,1180,o),
(498,1180,o),
(510,1180,c),
(529,1240,l),
(469,1240,o),
(432,1240,o),
(400,1240,cs),
(335,1240,o),
(275,1240,o),
(242,1235,cs),
(201,1229,o),
(195,1216,o),
(193,1180,c)
);
},
{
closed = 1;
nodes = (
(960,0,l),
(1145,1240,l),
(1048,1240,l),
(864,0,l)
);
}
);
vertWidth = 0;
width = 1104;
}
);
unicode = 72;
},
{
glyphname = I;
kernLeft = K10;
kernRight = K11;
lastChange = "2023-03-24 13:05:41 +0000";
layers = (
{
anchors = (
{
name = bottom;
pos = (240,0);
},
{
name = ogonek;
pos = (433,0);
},
{
name = top;
pos = (425,1250);
},
{
name = topleft;
pos = (252,1234);
}
);
layerId = "BF4E6768-4291-4940-AB0A-F00B8420ABE6";
shapes = (
{
closed = 1;
nodes = (
(299,47,l),
(471,1193,l),
(365,1193,l),
(193,47,l)
);
},
{
closed = 1;
nodes = (
(99,69,o),
(39,60,o),
(31,0,c),
(448,0,l),
(459,69,l),
(174,69,ls)
);
},
{
closed = 1;
nodes = (
(251,1172,o),
(362,1178,o),
(463,1178,cs),
(504,1178,o),
(605,1177,o),
(623,1176,c),
(633,1240,l),
(590,1242,o),
(528,1246,o),
(448,1246,cs),
(374,1246,o),
(307,1241,o),
(271,1232,cs),
(230,1222,o),
(206,1196,o),
(204,1162,c)
);
}
);
vertWidth = 0;
width = 479;
},
{
anchors = (
{
name = bottom;
pos = (298,0);
},
{
name = ogonek;
pos = (551,0);
},
{
name = top;
pos = (483,1250);
},
{
name = topleft;
pos = (250,1234);
}
);
layerId = "3718A98A-F41F-4673-9A8B-612E711D0E37";
shapes = (
{
closed = 1;
nodes = (
(416,48,l),
(589,1193,l),
(363,1193,l),
(190,48,l)
);
},
{
closed = 1;
nodes = (
(98,69,o),
(38,60,o),
(30,0,c),
(562,0,l),
(573,69,l),
(173,69,ls)
);
},
{
closed = 1;
nodes = (
(259,1172,o),
(355,1178,o),
(456,1178,cs),
(497,1178,o),
(713,1177,o),
(731,1176,c),
(741,1240,l),
(698,1242,o),
(521,1246,o),
(441,1246,cs),
(367,1246,o),
(315,1241,o),
(279,1232,cs),
(238,1222,o),
(214,1196,o),
(212,1162,c)
);
}
);
vertWidth = 0;
width = 593;
},
{
anchors = (
{
name = bottom;
pos = (250,0);
},
{
name = ogonek;
pos = (443,0);
},
{
name = top;
pos = (655,1250);
},
{
name = topleft;
pos = (480,1234);
}
);
layerId = m003;
shapes = (
{
closed = 1;
nodes = (
(317,47,l),
(691,1193,l),
(585,1193,l),
(211,47,l)
);
},
{
closed = 1;
nodes = (
(121,69,o),
(60,60,o),
(41,0,c),
(458,0,l),
(481,69,l),
(196,69,ls)
);
},
{
closed = 1;
nodes = (
(468,1172,o),
(580,1178,o),
(681,1178,cs),
(722,1178,o),
(823,1177,o),
(840,1176,c),
(862,1240,l),
(819,1242,o),
(758,1246,o),
(678,1246,cs),
(604,1246,o),
(536,1241,o),
(498,1232,cs),
(455,1222,o),
(427,1196,o),
(419,1162,c)
);
}
);
vertWidth = 0;
width = 489;
},
{
anchors = (
{
name = bottom;
pos = (253,0);
},
{
name = ogonek;
pos = (446,0);
},
{
name = top;
pos = (438,1250);
},
{
name = topleft;
pos = (265,1234);
}
);
layerId = m004;
shapes = (
{
closed = 1;
nodes = (
(312,47,l),
(484,1193,l),
(378,1193,l),
(206,47,l)
);
},
{
closed = 1;
nodes = (
(63,69,o),
(51,47,o),
(44,0,c),
(461,0,l),
(472,69,l),
(135,69,ls)
);
},
{
closed = 1;
nodes = (
(268,1180,o),
(375,1180,o),
(476,1180,cs),
(517,1180,o),
(618,1180,o),
(636,1180,c),
(646,1240,l),
(603,1242,o),
(541,1242,o),
(461,1242,cs),
(387,1242,o),
(320,1241,o),
(276,1230,cs),
(243,1222,o),
(223,1209,o),
(221,1180,c)
);
}
);
vertWidth = 0;
width = 505;
}
);
unicode = 73;
},
{
glyphname = J;
kernLeft = K11;
kernRight = K12;
lastChange = "2023-03-24 13:05:41 +0000";
layers = (
{
anchors = (
{
name = bottom;
pos = (189,-486);
},
{
name = top;
pos = (435,1244);
}
);
layerId = "BF4E6768-4291-4940-AB0A-F00B8420ABE6";
shapes = (
{
closed = 1;
nodes = (
(297,-486,o),
(338,-347,o),
(548,1134,cs),
(563,1240,l),
(465,1227,l),
(276,-55,o),
(214,-356,o),
(129,-486,c)
);
},
{
closed = 1;
nodes = (
(270,1172,o),
(368,1178,o),
(469,1178,cs),
(499,1178,o),
(533,1178,o),
(546,1178,c),
(563,1240,l),
(505,1243,o),
(468,1244,o),
(435,1244,cs),
(370,1244,o),
(322,1240,o),
(290,1232,cs),
(250,1222,o),
(226,1197,o),
(224,1162,c)
);
}
);
vertWidth = 0;
width = 479;
},
{
anchors = (
{
name = bottom;
pos = (239,-486);
},
{
name = top;
pos = (435,1244);
}
);
layerId = "3718A98A-F41F-4673-9A8B-612E711D0E37";
shapes = (
{
closed = 1;
nodes = (
(412,-486,o),
(441,-474,o),
(665,1111,cs),
(683,1240,l),
(465,1227,l),
(276,-55,o),
(214,-356,o),
(129,-486,c)
);
},
{
closed = 1;
nodes = (
(270,1172,o),
(368,1178,o),
(469,1178,cs),
(499,1178,o),
(653,1178,o),
(666,1178,c),
(683,1240,l),
(652,1242,o),
(497,1244,o),
(435,1244,cs),
(370,1244,o),
(322,1240,o),
(290,1232,cs),
(250,1222,o),
(226,1197,o),
(224,1162,c)
);
}
);
vertWidth = 0;
width = 599;
},
{
anchors = (
{
name = bottom;
pos = (113,-486);
},
{
name = top;
pos = (664,1244);
}
);
layerId = m003;
shapes = (
{
closed = 1;
nodes = (
(221,-486,o),
(287,-347,o),
(758,1134,cs),
(791,1240,l),
(691,1227,l),
(276,-55,o),
(161,-356,o),
(53,-486,c)
);
},
{
closed = 1;
nodes = (
(486,1172,o),
(585,1178,o),
(686,1178,cs),
(716,1178,o),
(750,1178,o),
(763,1178,c),
(791,1240,l),
(734,1243,o),
(697,1244,o),
(664,1244,cs),
(599,1244,o),
(550,1240,o),
(517,1232,cs),
(475,1222,o),
(447,1197,o),
(439,1162,c)
);
}
);
vertWidth = 0;
width = 479;
},
{
anchors = (
{
name = bottom;
pos = (211,-486);
},
{
name = top;
pos = (457,1244);
}
);
layerId = m004;
shapes = (
{
closed = 1;
nodes = (
(319,-486,o),
(361,-347,o),
(570,1134,cs),
(585,1240,l),
(487,1227,l),
(298,-55,o),
(236,-356,o),
(151,-486,c)
);
},
{
closed = 1;
nodes = (
(296,1180,o),
(390,1180,o),
(491,1180,cs),
(521,1180,o),
(555,1180,o),
(568,1180,c),
(585,1240,l),
(531,1240,o),
(490,1240,o),
(457,1240,cs),
(392,1240,o),
(336,1237,o),
(304,1229,cs),
(264,1219,o),
(252,1210,o),
(250,1180,c)
);
}
);
vertWidth = 0;
width = 545;
}
);
unicode = 74;
},
{
glyphname = K;
kernLeft = K11;
kernRight = K13;
lastChange = "2023-03-25 12:10:31 +0000";
layers = (
{
anchors = (
{
name = bottom;
pos = (536,0);
},
{
name = top;
pos = (727,1254);
}
);
layerId = "BF4E6768-4291-4940-AB0A-F00B8420ABE6";
shapes = (
{
closed = 1;
nodes = (
(319,-75,o),
(371,27,o),
(474,756,cs),
(543,1240,l),
(445,1227,l),
(288,163,o),
(256,54,o),
(121,-62,c),
(133,-71,o),
(146,-75,o),
(166,-75,cs)
);
},
{
closed = 1;
nodes = (
(942,0,l),
(615,713,l),
(540,618,l),
(819,0,l)
);
},
{
closed = 1;
nodes = (
(250,1172,o),
(348,1178,o),
(449,1178,cs),
(479,1178,o),
(513,1178,o),
(527,1178,c),
(543,1240,l),
(485,1243,o),
(448,1244,o),
(415,1244,cs),
(350,1244,o),
(302,1240,o),
(270,1232,cs),
(230,1222,o),
(206,1197,o),
(204,1162,c)
);
},
{
closed = 1;
nodes = (
(484,524,o),
(507,565,o),
(632,712,cs),
(1083,1240,l),
(973,1240,l),
(972,1204,o),
(946,1156,o),
(856,1049,cs),
(417,528,l),
(422,525,o),
(426,524,o),
(433,524,cs)
);
}
);
vertWidth = 0;
width = 952;
},
{
anchors = (
{
name = bottom;
pos = (627,0);
},
{
name = top;
pos = (774,1252);
}
);
layerId = "3718A98A-F41F-4673-9A8B-612E711D0E37";
shapes = (
{
closed = 1;
nodes = (
(398,-75,o),
(514,177,o),
(595,756,cs),
(663,1240,l),
(445,1227,l),
(288,163,o),
(256,54,o),
(121,-62,c),
(145,-71,o),
(173,-75,o),
(216,-75,cs)
);
},
{
closed = 1;
nodes = (
(1182,0,l),
(749,742,l),
(588,569,l),
(939,0,l)
);
},
{
closed = 1;
nodes = (
(250,1172,o),
(348,1178,o),
(449,1178,cs),
(479,1178,o),
(633,1178,o),
(647,1178,c),
(663,1240,l),
(632,1242,o),
(477,1244,o),
(415,1244,cs),
(350,1244,o),
(302,1240,o),
(270,1232,cs),
(230,1222,o),
(206,1197,o),
(204,1162,c)
);
},
{
closed = 1;
nodes = (
(598,546,o),
(622,579,o),
(762,712,cs),
(1317,1240,l),
(1153,1240,l),
(1153,1197,o),
(1081,1095,o),
(1000,1018,cs),
(508,550,l),
(521,547,o),
(534,546,o),
(547,546,cs)
);
}
);
vertWidth = 0;
width = 1192;
},
{
anchors = (
{
name = bottom;
pos = (546,0);
},
{
name = top;
pos = (958,1254);
}
);
layerId = m003;
shapes = (
{
closed = 1;
nodes = (
(316,-75,o),
(384,26,o),
(618,758,cs),
(772,1240,l),
(672,1227,l),
(327,163,o),
(276,54,o),
(120,-62,c),
(131,-71,o),
(143,-75,o),
(163,-75,cs)
);
},
{
closed = 1;
nodes = (
(952,0,l),
(751,713,l),
(659,618,l),
(829,0,l)
);
},
{
closed = 1;
nodes = (
(467,1172,o),
(566,1178,o),
(667,1178,cs),
(697,1178,o),
(731,1178,o),
(745,1178,c),
(772,1240,l),
(714,1243,o),
(678,1244,o),
(645,1244,cs),
(580,1244,o),
(531,1240,o),
(497,1232,cs),
(456,1222,o),
(427,1197,o),
(419,1162,c)
);
},
{
closed = 1;
nodes = (
(589,526,o),
(617,565,o),
(768,712,cs),
(1312,1240,l),
(1202,1240,l),
(1195,1204,o),
(1160,1156,o),
(1051,1049,cs),
(524,528,l),
(531,526,o),
(533,526,o),
(538,526,cs)
);
}
);
vertWidth = 0;
width = 952;
},
{
anchors = (
{
name = bottom;
pos = (545,0);
},
{
name = top;
pos = (736,1254);
}
);
layerId = m004;
shapes = (
{
closed = 1;
nodes = (
(340,-5,o),
(379,27,o),
(483,756,cs),
(552,1240,l),
(454,1227,l),
(297,163,o),
(279,95,o),
(172,3,c),
(184,-6,o),
(197,-11,o),
(217,-10,cs)
);
},
{
closed = 1;
nodes = (
(951,0,l),
(624,713,l),
(549,618,l),
(828,0,l)
);
},
{
closed = 1;
nodes = (
(263,1180,o),
(357,1180,o),
(458,1180,cs),
(488,1180,o),
(522,1180,o),
(536,1180,c),
(552,1240,l),
(494,1240,o),
(457,1240,o),
(424,1240,cs),
(359,1240,o),
(306,1237,o),
(279,1232,cs),
(239,1225,o),
(219,1210,o),
(217,1180,c)
);
},
{
closed = 1;
nodes = (
(493,524,o),
(516,565,o),
(641,712,cs),
(1092,1240,l),
(982,1240,l),
(981,1204,o),
(947,1154,o),
(855,1049,cs),
(406,538,l),
(415,530,o),
(429,524,o),
(442,524,cs)
);
}
);
vertWidth = 0;
width = 965;
}
);
metricLeft = "=N";
unicode = 75;
},
{
glyphname = L;
kernRight = K14;
lastChange = "2023-03-24 13:05:41 +0000";
layers = (
{
anchors = (
{
name = bottom;
pos = (602,-10);
},
{
name = center;
pos = (626,672);
},
{
name = top;
pos = (411,1240);
},
{
name = topright;
pos = (767,1240);
}
);
layerId = "BF4E6768-4291-4940-AB0A-F00B8420ABE6";
shapes = (
{
closed = 1;
nodes = (
(724,-10,o),
(782,31,o),
(786,119,c),
(714,93,o),
(626,86,o),
(382,86,cs),
(239,86,l),
(411,1240,l),
(331,1240,o),
(293,1154,o),
(260,933,cs),
(130,66,l),
(229,28,o),
(463,-10,o),
(602,-10,cs)
);
}
);
vertWidth = 0;
width = 808;
},
{
anchors = (
{
name = bottom;
pos = (464,0);
},
{
name = center;
pos = (686,719);
},
{
name = top;
pos = (531,1240);
},
{
name = topright;
pos = (835,1240);
}
);
layerId = "3718A98A-F41F-4673-9A8B-612E711D0E37";
shapes = (
{
closed = 1;
nodes = (
(844,-10,o),
(902,31,o),
(906,119,c),
(834,93,o),
(746,86,o),
(502,86,cs),
(359,86,l),
(531,1240,l),
(387,1240,o),
(286,1108,o),
(251,873,cs),
(130,66,l),
(213,34,o),
(556,-10,o),
(722,-10,cs)
);
}
);
vertWidth = 0;
width = 928;
},
{
anchors = (
{
name = bottom;
pos = (608,-10);
},
{
name = center;
pos = (752,672);
},
{
name = top;
pos = (637,1240);
},
{
name = topright;
pos = (993,1240);
}
);
layerId = m003;
shapes = (
{
closed = 1;
nodes = (
(730,-10,o),
(795,31,o),
(815,119,c),
(738,93,o),
(649,86,o),
(405,86,cs),
(262,86,l),
(637,1240,l),
(557,1240,o),
(504,1154,o),
(432,933,cs),
(149,66,l),
(242,28,o),
(469,-10,o),
(608,-10,cs)
);
}
);
vertWidth = 0;
width = 808;
},
{
anchors = (
{
name = bottom;
pos = (655,-10);
},
{
name = center;
pos = (679,672);
},
{
name = top;
pos = (464,1240);
},
{
name = topright;
pos = (820,1240);
}
);
layerId = m004;
shapes = (
{
closed = 1;
nodes = (
(777,-10,o),
(835,31,o),
(839,119,c),
(767,93,o),
(679,86,o),
(435,86,cs),
(292,86,l),
(464,1240,l),
(384,1240,o),
(346,1154,o),
(313,933,cs),
(183,66,l),
(282,28,o),
(516,-10,o),
(655,-10,cs)
);
}
);
vertWidth = 0;
width = 878;
}
);
unicode = 76;
},
{
glyphname = Lslash;
lastChange = "2023-03-25 13:12:48 +0000";
layers = (
{
layerId = "BF4E6768-4291-4940-AB0A-F00B8420ABE6";
shapes = (
{
closed = 1;
nodes = (
(545,744,l),
(520,810,l),
(70,536,l),
(95,470,l)
);
},
{
ref = L;
}
);
vertWidth = 0;
width = 808;
},
{
layerId = "3718A98A-F41F-4673-9A8B-612E711D0E37";
shapes = (
{
closed = 1;
nodes = (
(635,744,l),
(610,810,l),
(70,536,l),
(95,470,l)
);
},
{
ref = L;
}
);
vertWidth = 0;
width = 928;
},
{
layerId = m003;
shapes = (
{
closed = 1;
nodes = (
(642,744,l),
(629,810,l),
(131,536,l),
(144,470,l)
);
},
{
pos = (-114,0);
ref = L;
slant = (10,0);
}
);
vertWidth = 0;
width = 808;
},
{
layerId = m004;
shapes = (
{
closed = 1;
nodes = (
(571,744,l),
(546,810,l),
(96,536,l),
(121,470,l)
);
},
{
pos = (-4,0);
ref = L;
}
);
vertWidth = 0;
width = 805;
}
);
unicode = 321;
},
{
glyphname = M;
kernLeft = K11;
lastChange = "2023-08-28 21:24:03 +0000";
layers = (
{
anchors = (
{
name = bottom;
pos = (714,0);
},
{
name = top;
pos = (927,1244);
}
);
layerId = "BF4E6768-4291-4940-AB0A-F00B8420ABE6";
shapes = (
{
closed = 1;
nodes = (
(780,147,l),
(1225,940,l),
(1318,1109,o),
(1459,1227,o),
(1570,1227,c),
(1525,1240,l),
(1409,1240,o),
(1277,1132,o),
(1182,959,cs),
(713,147,l)
);
},
{
closed = 1;
nodes = (
(327,-75,o),
(362,29,o),
(518,1134,cs),
(533,1240,l),
(475,1227,l),
(314,163,o),
(280,54,o),
(141,-62,c),
(153,-71,o),
(166,-75,o),
(186,-75,cs)
);
},
{
closed = 1;
nodes = (
(780,147,l),
(613,1240,l),
(513,1240,l),
(671,147,l)
);
},
{
closed = 1;
nodes = (
(251,1172,o),
(347,1178,o),
(448,1178,cs),
(489,1178,o),
(580,1177,o),
(598,1176,c),
(613,1240,l),
(542,1244,o),
(482,1246,o),
(433,1246,cs),
(359,1246,o),
(307,1241,o),
(271,1232,cs),
(230,1222,o),
(206,1196,o),
(204,1162,c)
);
},
{
closed = 1;
nodes = (
(1265,0,l),
(1409,976,o),
(1444,1119,o),
(1570,1227,c),
(1559,1236,o),
(1545,1240,o),
(1525,1240,cs),
(1359,1240,o),
(1312,1084,o),
(1174,106,cs),
(1159,0,l)
);
}
);
vertWidth = 0;
width = 1427;
},
{
anchors = (
{
name = bottom;
pos = (834,0);
},
{
name = top;
pos = (1056,1312);
}
);
layerId = "3718A98A-F41F-4673-9A8B-612E711D0E37";
shapes = (
{
closed = 1;
nodes = (
(900,147,l),
(1345,940,l),
(1438,1109,o),
(1579,1227,o),
(1690,1227,c),
(1645,1240,l),
(1529,1240,o),
(1397,1132,o),
(1302,959,cs),
(838,156,l)
);
},
{
closed = 1;
nodes = (
(327,-75,o),
(362,29,o),
(518,1134,cs),
(533,1240,l),
(475,1227,l),
(314,163,o),
(280,54,o),
(141,-62,c),
(153,-71,o),
(166,-75,o),
(186,-75,cs)
);
},
{
closed = 1;
nodes = (
(900,147,l),
(733,1240,l),
(513,1240,l),
(671,147,l)
);
},
{
closed = 1;
nodes = (
(251,1172,o),
(347,1178,o),
(448,1178,cs),
(489,1178,o),
(580,1177,o),
(598,1176,c),
(733,1240,l),
(690,1242,o),
(513,1246,o),
(433,1246,cs),
(359,1246,o),
(307,1241,o),
(271,1232,cs),
(230,1222,o),
(206,1196,o),
(204,1162,c)
);
},
{
closed = 1;
nodes = (
(1505,0,l),
(1649,976,o),
(1684,1119,o),
(1810,1227,c),
(1804,1232,o),
(1702,1240,o),
(1645,1240,cs),
(1479,1240,o),
(1432,1084,o),
(1294,106,cs),
(1279,0,l)
);
}
);
vertWidth = 0;
width = 1677;
},
{
anchors = (
{
name = bottom;
pos = (724,0);
},
{
name = top;
pos = (1157,1244);
}
);
layerId = m003;
shapes = (
{
closed = 1;
nodes = (
(816,147,l),
(1401,940,l),
(1524,1109,o),
(1686,1227,o),
(1797,1227,c),
(1754,1240,l),
(1638,1240,o),
(1487,1132,o),
(1361,959,cs),
(749,147,l)
);
},
{
closed = 1;
nodes = (
(324,-75,o),
(377,29,o),
(728,1134,cs),
(762,1240,l),
(702,1227,l),
(353,163,o),
(300,54,o),
(140,-62,c),
(151,-71,o),
(163,-75,o),
(183,-75,cs)
);
},
{
closed = 1;
nodes = (
(816,147,l),
(842,1240,l),
(742,1240,l),
(707,147,l)
);
},
{
closed = 1;
nodes = (
(468,1172,o),
(565,1178,o),
(666,1178,cs),
(707,1178,o),
(798,1177,o),
(816,1176,c),
(842,1240,l),
(772,1244,o),
(712,1246,o),
(663,1246,cs),
(589,1246,o),
(536,1241,o),
(498,1232,cs),
(456,1222,o),
(427,1196,o),
(419,1162,c)
);
},
{
closed = 1;
nodes = (
(1275,0,l),
(1591,976,o),
(1652,1119,o),
(1797,1227,c),
(1787,1236,o),
(1774,1240,o),
(1754,1240,cs),
(1588,1240,o),
(1513,1084,o),
(1203,106,cs),
(1169,0,l)
);
}
);
vertWidth = 0;
width = 1427;
},
{
anchors = (
{
name = bottom;
pos = (721,0);
},
{
name = top;
pos = (934,1244);
}
);
layerId = m004;
shapes = (
{
closed = 1;
nodes = (
(787,147,l),
(1232,940,ls),
(1326,1108,o),
(1416,1227,o),
(1527,1227,c),
(1482,1240,l),
(1366,1240,o),
(1268,1130,o),
(1169,959,cs),
(700,147,l)
);
},
{
closed = 1;
nodes = (
(348,-10,o),
(378,29,o),
(535,1134,cs),
(550,1240,l),
(482,1227,l),
(321,163,o),
(305,106,o),
(199,3,c),
(211,-6,o),
(224,-10,o),
(244,-10,cs)
);
},
{
closed = 1;
nodes = (
(787,147,l),
(620,1240,l),
(520,1240,l),
(678,147,l)
);
},
{
closed = 1;
nodes = (
(264,1180,o),
(354,1180,o),
(455,1180,cs),
(496,1180,o),
(587,1181,o),
(605,1180,c),
(620,1240,l),
(556,1241,o),
(489,1240,o),
(440,1240,cs),
(366,1240,o),
(314,1238,o),
(278,1232,cs),
(236,1225,o),
(219,1214,o),
(217,1180,c)
);
},
{
closed = 1;
nodes = (
(1272,0,l),
(1416,976,o),
(1443,1097,o),
(1527,1227,c),
(1516,1236,o),
(1502,1240,o),
(1482,1240,cs),
(1349,1240,o),
(1319,1084,o),
(1181,106,cs),
(1166,0,l)
);
}
);
vertWidth = 0;
width = 1462;
}
);
metricLeft = "=N";
unicode = 77;
},
{
glyphname = N;
kernLeft = K11;
lastChange = "2023-08-28 21:23:16 +0000";
layers = (
{
anchors = (
{
name = bottom;
pos = (592,0);
},
{
name = top;
pos = (812,1270);
}
);
layerId = "BF4E6768-4291-4940-AB0A-F00B8420ABE6";
shapes = (
{
closed = 1;
nodes = (
(1007,0,l),
(985,48,l),
(593,1240,l),
(533,1240,l),
(504,1167,l),
(888,0,l)
);
},
{
closed = 1;
nodes = (
(327,-75,o),
(362,29,o),
(518,1134,cs),
(533,1240,l),
(475,1227,l),
(313,162,o),
(280,54,o),
(141,-62,c),
(153,-71,o),
(166,-75,o),
(186,-75,cs)
);
},
{
closed = 1;
nodes = (
(251,1172,o),
(347,1178,o),
(448,1178,cs),
(484,1178,o),
(558,1177,o),
(578,1176,c),
(593,1240,l),
(516,1244,o),
(472,1246,o),
(433,1246,cs),
(359,1246,o),
(307,1241,o),
(271,1232,cs),
(230,1221,o),
(206,1196,o),
(204,1162,c)
);
},
{
closed = 1;
nodes = (
(1007,0,l),
(1170,1049,o),
(1200,1192,o),
(1278,1270,c),
(1262,1284,o),
(1238,1293,o),
(1219,1293,cs),
(1145,1293,o),
(1128,1243,o),
(1084,933,cs),
(959,52,l),
(888,0,l)
);
}
);
vertWidth = 0;
width = 1104;
},
{
anchors = (
{
name = bottom;
pos = (612,0);
},
{
name = top;
pos = (867,1269);
}
);
layerId = "3718A98A-F41F-4673-9A8B-612E711D0E37";
shapes = (
{
closed = 1;
nodes = (
(1127,0,l),
(1105,48,l),
(713,1240,l),
(533,1240,l),
(504,1167,l),
(888,0,l)
);
},
{
closed = 1;
nodes = (
(327,-75,o),
(362,29,o),
(518,1134,cs),
(533,1240,l),
(475,1227,l),
(314,163,o),
(280,54,o),
(141,-62,c),
(153,-71,o),
(166,-75,o),
(186,-75,cs)
);
},
{
closed = 1;
nodes = (
(251,1172,o),
(347,1178,o),
(448,1178,cs),
(484,1178,o),
(558,1177,o),
(578,1176,c),
(593,1240,l),
(516,1244,o),
(472,1246,o),
(433,1246,cs),
(359,1246,o),
(307,1241,o),
(271,1232,cs),
(230,1221,o),
(206,1196,o),
(204,1162,c)
);
},
{
closed = 1;
nodes = (
(1127,0,l),
(1290,1049,o),
(1320,1192,o),
(1398,1270,c),
(1382,1284,o),
(1358,1293,o),
(1339,1293,cs),
(1265,1293,o),
(1248,1243,o),
(1204,933,cs),
(1079,52,l),
(1008,0,l)
);
}
);
vertWidth = 0;
width = 1240;
},
{
anchors = (
{
name = bottom;
pos = (602,0);
},
{
name = top;
pos = (1046,1270);
}
);
layerId = m003;
shapes = (
{
closed = 1;
nodes = (
(1017,0,l),
(1004,48,l),
(822,1240,l),
(762,1240,l),
(720,1167,l),
(898,0,l)
);
},
{
closed = 1;
nodes = (
(324,-75,o),
(377,29,o),
(728,1134,cs),
(762,1240,l),
(702,1227,l),
(352,162,o),
(300,54,o),
(140,-62,c),
(151,-71,o),
(163,-75,o),
(183,-75,cs)
);
},
{
closed = 1;
nodes = (
(468,1172,o),
(565,1178,o),
(666,1178,cs),
(702,1178,o),
(776,1177,o),
(796,1176,c),
(822,1240,l),
(746,1244,o),
(702,1246,o),
(663,1246,cs),
(589,1246,o),
(536,1241,o),
(498,1232,cs),
(456,1221,o),
(427,1196,o),
(419,1162,c)
);
},
{
closed = 1;
nodes = (
(1017,0,l),
(1365,1049,o),
(1420,1192,o),
(1512,1270,c),
(1499,1284,o),
(1476,1293,o),
(1457,1293,cs),
(1383,1293,o),
(1357,1243,o),
(1259,933,cs),
(978,52,l),
(898,0,l)
);
}
);
vertWidth = 0;
width = 1104;
},
{
anchors = (
{
name = bottom;
pos = (605,0);
},
{
name = top;
pos = (825,1270);
}
);
layerId = m004;
shapes = (
{
closed = 1;
nodes = (
(1020,0,l),
(998,48,l),
(606,1240,l),
(546,1240,l),
(517,1180,l),
(901,0,l)
);
},
{
closed = 1;
nodes = (
(349,-10,o),
(393,87,o),
(541,1134,cs),
(556,1240,l),
(488,1227,l),
(326,162,o),
(296,90,o),
(192,3,c),
(204,-6,o),
(217,-10,o),
(237,-10,cs)
);
},
{
closed = 1;
nodes = (
(264,1180,o),
(360,1180,o),
(461,1180,cs),
(497,1180,o),
(571,1180,o),
(591,1180,c),
(606,1240,l),
(533,1241,o),
(485,1240,o),
(446,1240,cs),
(372,1240,o),
(312,1236,o),
(270,1227,cs),
(229,1218,o),
(219,1206,o),
(217,1180,c)
);
},
{
closed = 1;
nodes = (
(1020,0,l),
(1164,1016,o),
(1190,1140,o),
(1252,1240,c),
(1238,1247,o),
(1232,1250,o),
(1213,1250,cs),
(1159,1250,o),
(1126,1209,o),
(1087,933,cs),
(962,52,l),
(901,0,l)
);
}
);
vertWidth = 0;
width = 1131;
}
);
unicode = 78;
},
{
glyphname = Eng;
lastChange = "2023-03-24 13:05:41 +0000";
layers = (
{
anchors = (
{
name = bottom;
pos = (642,-486);
},
{
name = top;
pos = (671,1235);
}
);
layerId = "BF4E6768-4291-4940-AB0A-F00B8420ABE6";
shapes = (
{
closed = 1;
nodes = (
(730,-486,o),
(794,-393,o),
(819,-226,cs),
(998,967,ls),
(1023,1132,o),
(933,1235,o),
(811,1235,cs),
(641,1235,o),
(478,1060,o),
(247,9,c),
(292,0,l),
(527,1032,o),
(668,1182,o),
(793,1182,cs),
(864,1182,o),
(923,1110,o),
(904,982,cs),
(722,-230,ls),
(704,-350,o),
(670,-415,o),
(627,-415,cs),
(599,-415,o),
(582,-378,o),
(582,-318,c),
(535,-327,l),
(535,-423,o),
(578,-486,o),
(642,-486,cs)
);
},
{
closed = 1;
nodes = (
(292,0,l),
(439,975,ls),
(465,1148,o),
(427,1235,o),
(326,1235,cs),
(257,1235,o),
(198,1175,o),
(171,1076,c),
(215,1067,l),
(232,1131,o),
(258,1164,o),
(289,1164,cs),
(340,1164,o),
(354,1108,o),
(334,979,cs),
(186,0,l)
);
}
);
vertWidth = 0;
width = 951;
},
{
anchors = (
{
name = bottom;
pos = (795,-486);
},
{
name = top;
pos = (733,1235);
}
);
layerId = "3718A98A-F41F-4673-9A8B-612E711D0E37";
shapes = (
{
closed = 1;
nodes = (
(926,-486,o),
(979,-420,o),
(1008,-226,cs),
(1186,967,ls),
(1209,1119,o),
(1066,1235,o),
(895,1235,cs),
(675,1235,o),
(471,954,o),
(376,9,c),
(421,0,l),
(512,847,o),
(714,1182,o),
(855,1182,cs),
(925,1182,o),
(977,1119,o),
(957,982,cs),
(776,-230,ls),
(758,-351,o),
(730,-415,o),
(693,-415,cs),
(662,-415,o),
(644,-380,o),
(644,-318,c),
(596,-327,l),
(596,-428,o),
(669,-486,o),
(795,-486,cs)
);
},
{
closed = 1;
nodes = (
(421,0,l),
(567,975,ls),
(594,1153,o),
(544,1235,o),
(409,1235,cs),
(287,1235,o),
(199,1176,o),
(171,1076,c),
(215,1067,l),
(231,1131,o),
(259,1164,o),
(297,1164,cs),
(339,1164,o),
(347,1117,o),
(327,979,c),
(180,0,l)
);
}
);
vertWidth = 0;
width = 1140;
},
{
anchors = (
{
name = bottom;
pos = (566,-486);
},
{
name = top;
pos = (898,1235);
}
);
layerId = m003;
shapes = (
{
closed = 1;
nodes = (
(654,-486,o),
(734,-393,o),
(789,-226,cs),
(1178,967,ls),
(1232,1132,o),
(1160,1235,o),
(1038,1235,cs),
(868,1235,o),
(675,1060,o),
(258,9,c),
(302,0,l),
(719,1032,o),
(886,1182,o),
(1011,1182,cs),
(1082,1182,o),
(1128,1110,o),
(1087,982,cs),
(691,-230,ls),
(652,-350,o),
(607,-415,o),
(564,-415,cs),
(536,-415,o),
(525,-378,o),
(536,-318,c),
(487,-327,l),
(470,-423,o),
(502,-486,o),
(566,-486,cs)
);
},
{
closed = 1;
nodes = (
(302,0,l),
(621,975,ls),
(677,1148,o),
(654,1235,o),
(553,1235,cs),
(484,1235,o),
(415,1175,o),
(370,1076,c),
(413,1067,l),
(441,1131,o),
(473,1164,o),
(504,1164,cs),
(555,1164,o),
(559,1108,o),
(516,979,cs),
(196,0,l)
);
}
);
vertWidth = 0;
width = 957;
},
{
anchors = (
{
name = bottom;
pos = (646,-486);
},
{
name = top;
pos = (675,1235);
}
);
layerId = m004;
shapes = (
{
closed = 1;
nodes = (
(734,-486,o),
(798,-393,o),
(823,-226,cs),
(1002,967,ls),
(1027,1132,o),
(937,1235,o),
(815,1235,cs),
(645,1235,o),
(482,1060,o),
(251,9,c),
(296,0,l),
(531,1032,o),
(672,1182,o),
(797,1182,cs),
(868,1182,o),
(927,1110,o),
(908,982,cs),
(726,-230,ls),
(708,-350,o),
(674,-415,o),
(631,-415,cs),
(603,-415,o),
(586,-378,o),
(586,-318,c),
(539,-327,l),
(539,-423,o),
(582,-486,o),
(646,-486,cs)
);
},
{
closed = 1;
nodes = (
(296,0,l),
(443,975,ls),
(469,1148,o),
(431,1235,o),
(330,1235,cs),
(261,1235,o),
(202,1175,o),
(175,1076,c),
(219,1067,l),
(236,1131,o),
(262,1164,o),
(293,1164,cs),
(344,1164,o),
(358,1108,o),
(338,979,cs),
(190,0,l)
);
}
);
vertWidth = 0;
width = 999;
}
);
metricRight = "=J";
unicode = 330;
},
{
glyphname = O;
kernLeft = K09;
kernRight = K08;
lastChange = "2023-03-24 13:05:41 +0000";
layers = (
{
anchors = (
{
name = bottom;
pos = (580,-10);
},
{
name = center;
pos = (658,669);
},
{
name = ogonek;
pos = (580,-10);
},
{
name = top;
pos = (730,1250);
},
{
name = topleft;
pos = (415,1250);
},
{
name = topright;
pos = (928,1157);
}
);
layerId = "BF4E6768-4291-4940-AB0A-F00B8420ABE6";
shapes = (
{
closed = 1;
nodes = (
(897,-10,o),
(1146,303,o),
(1146,730,cs),
(1146,1059,o),
(976,1250,o),
(730,1250,cs),
(415,1250,o),
(161,929,o),
(161,500,cs),
(161,175,o),
(331,-10,o),
(580,-10,cs)
);
},
{
closed = 1;
nodes = (
(404,49,o),
(270,208,o),
(270,490,cs),
(270,886,o),
(471,1191,o),
(714,1191,cs),
(904,1191,o),
(1040,1024,o),
(1040,740,cs),
(1040,347,o),
(841,49,o),
(596,49,cs)
);
}
);
vertWidth = 0;
width = 1124;
},
{
anchors = (
{
name = bottom;
pos = (702,-10);
},
{
name = center;
pos = (786,671);
},
{
name = ogonek;
pos = (702,-10);
},
{
name = top;
pos = (852,1250);
},
{
name = topleft;
pos = (483,1250);
},
{
name = topright;
pos = (1096,1157);
}
);
layerId = "3718A98A-F41F-4673-9A8B-612E711D0E37";
shapes = (
{
closed = 1;
nodes = (
(1073,-10,o),
(1388,317,o),
(1388,730,cs),
(1388,1041,o),
(1153,1250,o),
(852,1250,cs),
(483,1250,o),
(164,915,o),
(164,500,cs),
(164,192,o),
(398,-10,o),
(702,-10,cs)
);
},
{
closed = 1;
nodes = (
(504,49,o),
(393,175,o),
(393,490,cs),
(393,923,o),
(571,1191,o),
(836,1191,cs),
(1049,1191,o),
(1162,1058,o),
(1162,740,cs),
(1162,311,o),
(985,49,o),
(718,49,cs)
);
}
);
vertWidth = 0;
width = 1368;
},
{
anchors = (
{
name = bottom;
pos = (584,-10);
},
{
name = center;
pos = (782,669);
},
{
name = ogonek;
pos = (584,-10);
},
{
name = top;
pos = (956,1250);
},
{
name = topleft;
pos = (641,1250);
},
{
name = topright;
pos = (1138,1157);
}
);
layerId = m003;
shapes = (
{
closed = 1;
nodes = (
(901,-10,o),
(1205,303,o),
(1280,730,cs),
(1338,1059,o),
(1202,1250,o),
(956,1250,cs),
(641,1250,o),
(331,929,o),
(255,500,cs),
(198,175,o),
(335,-10,o),
(584,-10,cs)
);
},
{
closed = 1;
nodes = (
(418,49,o),
(312,208,o),
(362,490,cs),
(432,886,o),
(687,1191,o),
(930,1191,cs),
(1120,1191,o),
(1226,1024,o),
(1176,740,cs),
(1107,347,o),
(855,49,o),
(610,49,cs)
);
}
);
vertWidth = 0;
width = 1124;
},
{
anchors = (
{
name = bottom;
pos = (613,-10);
},
{
name = center;
pos = (691,669);
},
{
name = ogonek;
pos = (613,-10);
},
{
name = top;
pos = (763,1250);
},
{
name = topleft;
pos = (448,1250);
},
{
name = topright;
pos = (961,1157);
}
);
layerId = m004;
shapes = (
{
closed = 1;
nodes = (
(930,-10,o),
(1179,303,o),
(1179,730,cs),
(1179,1059,o),
(1009,1250,o),
(763,1250,cs),
(448,1250,o),
(194,929,o),
(194,500,cs),
(194,175,o),
(364,-10,o),
(613,-10,cs)
);
},
{
closed = 1;
nodes = (
(437,49,o),
(303,208,o),
(303,490,cs),
(303,886,o),
(504,1191,o),
(747,1191,cs),
(937,1191,o),
(1073,1024,o),
(1073,740,cs),
(1073,347,o),
(874,49,o),
(629,49,cs)
);
}
);
vertWidth = 0;
width = 1190;
}
);
unicode = 79;
},
{
glyphname = Ohorn;
kernRight = K08;
lastChange = "2023-03-27 21:50:55 +0000";
layers = (
{
anchors = (
{
name = bottom;
pos = (573,-10);
},
{
name = top;
pos = (724,1250);
}
);
layerId = "BF4E6768-4291-4940-AB0A-F00B8420ABE6";
shapes = (
{
closed = 1;
nodes = (
(891,1215,l),
(891,1250,l),
(724,1250,l),
(724,1215,l)
);
},
{
ref = O;
},
{
pos = (821,-61);
ref = uni031B;
}
);
vertWidth = 0;
width = 1124;
},
{
anchors = (
{
name = bottom;
pos = (675,0);
},
{
name = top;
pos = (843,1250);
}
);
layerId = "3718A98A-F41F-4673-9A8B-612E711D0E37";
shapes = (
{
closed = 1;
nodes = (
(1036,1215,l),
(1036,1250,l),
(843,1250,l),
(843,1215,l)
);
},
{
ref = O;
},
{
pos = (966,-61);
ref = uni031B;
}
);
vertWidth = 0;
width = 1368;
},
{
anchors = (
{
name = bottom;
pos = (578,-10);
},
{
name = top;
pos = (949,1250);
}
);
layerId = m003;
shapes = (
{
closed = 1;
nodes = (
(1110,1215,l),
(1116,1250,l),
(949,1250,l),
(943,1215,l)
);
},
{
ref = O;
},
{
pos = (803,-61);
ref = uni031B;
}
);
vertWidth = 0;
width = 1124;
},
{
anchors = (
{
name = bottom;
pos = (613,-10);
},
{
name = top;
pos = (764,1250);
}
);
layerId = m004;
shapes = (
{
closed = 1;
nodes = (
(991,1195,l),
(991,1250,l),
(764,1250,l),
(764,1195,l)
);
},
{
ref = O;
},
{
pos = (921,-61);
ref = uni031B;
}
);
vertWidth = 0;
width = 1190;
}
);
metricLeft = "=O";
metricRight = "=O";
unicode = 416;
},
{
glyphname = OE;
lastChange = "2023-03-24 17:02:55 +0000";
layers = (
{
anchors = (
{
name = bottom;
pos = (754,0);
},
{
name = top;
pos = (927,1240);
}
);
layerId = "BF4E6768-4291-4940-AB0A-F00B8420ABE6";
shapes = (
{
closed = 1;
nodes = (
(685,-10,o),
(740,-7,o),
(799,0,c),
(754,58,l),
(707,55,o),
(681,54,o),
(656,54,cs),
(415,54,o),
(266,198,o),
(266,488,cs),
(266,900,o),
(470,1185,o),
(745,1185,c),
(813,1174,o),
(1164,1158,o),
(1332,1158,cs),
(1432,1158,o),
(1488,1197,o),
(1492,1267,c),
(1423,1248,o),
(1339,1240,o),
(1195,1240,cs),
(772,1240,ls),
(402,1240,o),
(165,970,o),
(165,511,cs),
(165,177,o),
(353,-10,o),
(638,-10,cs)
);
},
{
closed = 1;
nodes = (
(1298,-10,o),
(1356,31,o),
(1360,119,c),
(1288,93,o),
(1200,86,o),
(956,86,cs),
(813,86,l),
(704,66,l),
(803,28,o),
(1037,-10,o),
(1176,-10,cs)
);
},
{
closed = 1;
nodes = (
(799,0,l),
(984,1232,l),
(878,1232,l),
(693,0,l)
);
},
{
closed = 1;
nodes = (
(923,596,o),
(981,601,o),
(1055,601,cs),
(1180,601,o),
(1269,598,o),
(1338,591,c),
(1352,613,o),
(1364,649,o),
(1368,679,c),
(1314,684,o),
(1272,685,o),
(1158,685,cs),
(956,685,o),
(880,659,o),
(869,586,c)
);
}
);
vertWidth = 0;
width = 1393;
},
{
anchors = (
{
name = bottom;
pos = (835,0);
},
{
name = top;
pos = (1005,1240);
}
);
layerId = "3718A98A-F41F-4673-9A8B-612E711D0E37";
shapes = (
{
closed = 1;
nodes = (
(720,-10,o),
(776,-7,o),
(835,0,c),
(789,58,l),
(742,55,o),
(716,54,o),
(691,54,cs),
(483,54,o),
(396,158,o),
(396,491,cs),
(396,935,o),
(555,1179,o),
(821,1179,c),
(873,1171,o),
(1268,1158,o),
(1466,1158,cs),
(1566,1158,o),
(1622,1197,o),
(1626,1267,c),
(1557,1248,o),
(1474,1240,o),
(1330,1240,cs),
(832,1240,ls),
(472,1240,o),
(163,909,o),
(163,494,cs),
(163,177,o),
(373,-10,o),
(673,-10,cs)
);
},
{
closed = 1;
nodes = (
(1433,-10,o),
(1491,31,o),
(1495,119,c),
(1423,93,o),
(1335,86,o),
(1091,86,cs),
(827,86,l),
(719,66,l),
(802,34,o),
(1145,-10,o),
(1311,-10,cs)
);
},
{
closed = 1;
nodes = (
(935,0,l),
(1118,1234,l),
(894,1232,l),
(709,0,l)
);
},
{
closed = 1;
nodes = (
(1057,596,o),
(1115,601,o),
(1189,601,cs),
(1315,601,o),
(1405,598,o),
(1473,591,c),
(1487,613,o),
(1499,649,o),
(1503,679,c),
(1449,684,o),
(1407,685,o),
(1293,685,cs),
(1090,685,o),
(1014,659,o),
(1003,586,c)
);
}
);
vertWidth = 0;
width = 1528;
},
{
anchors = (
{
name = bottom;
pos = (760,0);
},
{
name = top;
pos = (1151,1240);
}
);
layerId = m003;
shapes = (
{
closed = 1;
nodes = (
(689,-10,o),
(745,-7,o),
(805,0,c),
(770,58,l),
(722,55,o),
(696,54,o),
(671,54,cs),
(430,54,o),
(307,198,o),
(358,488,cs),
(430,900,o),
(685,1185,o),
(960,1185,c),
(1026,1174,o),
(1374,1158,o),
(1542,1158,cs),
(1642,1158,o),
(1705,1197,o),
(1721,1267,c),
(1649,1248,o),
(1563,1240,o),
(1419,1240,cs),
(996,1240,ls),
(626,1240,o),
(342,970,o),
(261,511,cs),
(202,177,o),
(357,-10,o),
(642,-10,cs)
);
},
{
closed = 1;
nodes = (
(1302,-10,o),
(1367,31,o),
(1387,119,c),
(1310,93,o),
(1221,86,o),
(977,86,cs),
(834,86,l),
(721,66,l),
(814,28,o),
(1041,-10,o),
(1180,-10,cs)
);
},
{
closed = 1;
nodes = (
(805,0,l),
(1207,1232,l),
(1101,1232,l),
(699,0,l)
);
},
{
closed = 1;
nodes = (
(1034,596,o),
(1093,601,o),
(1167,601,cs),
(1292,601,o),
(1380,598,o),
(1448,591,c),
(1466,613,o),
(1484,649,o),
(1493,679,c),
(1440,684,o),
(1399,685,o),
(1285,685,cs),
(1083,685,o),
(1002,659,o),
(978,586,c)
);
}
);
vertWidth = 0;
width = 1398;
},
{
anchors = (
{
name = bottom;
pos = (787,0);
},
{
name = top;
pos = (960,1240);
}
);
layerId = m004;
shapes = (
{
closed = 1;
nodes = (
(718,-10,o),
(773,-7,o),
(832,0,c),
(787,58,l),
(740,55,o),
(714,54,o),
(689,54,cs),
(448,54,o),
(299,198,o),
(299,488,cs),
(299,900,o),
(503,1180,o),
(778,1180,c),
(864,1172,o),
(1197,1158,o),
(1365,1158,cs),
(1465,1158,o),
(1515,1170,o),
(1519,1240,c),
(1450,1240,o),
(1372,1240,o),
(1228,1240,cs),
(805,1240,ls),
(435,1240,o),
(198,970,o),
(198,511,cs),
(198,177,o),
(386,-10,o),
(671,-10,cs)
);
},
{
closed = 1;
nodes = (
(1331,-10,o),
(1385,-2,o),
(1389,86,c),
(1317,86,o),
(1233,86,o),
(989,86,cs),
(846,86,l),
(737,66,l),
(836,28,o),
(1070,-10,o),
(1209,-10,cs)
);
},
{
closed = 1;
nodes = (
(832,0,l),
(1017,1232,l),
(911,1232,l),
(726,0,l)
);
},
{
closed = 1;
nodes = (
(956,594,o),
(1014,594,o),
(1088,594,cs),
(1213,594,o),
(1302,594,o),
(1371,594,c),
(1380,617,o),
(1392,653,o),
(1401,682,c),
(1347,682,o),
(1305,682,o),
(1032,682,cs),
(956,682,o),
(913,659,o),
(902,594,c)
);
}
);
vertWidth = 0;
width = 1447;
}
);
metricLeft = "=O";
metricRight = "=E";
unicode = 338;
},
{
glyphname = P;
kernLeft = K12;
kernRight = K15;
lastChange = "2023-03-24 13:05:41 +0000";
layers = (
{
anchors = (
{
name = bottom;
pos = (300,0);
},
{
name = top;
pos = (644,1250);
}
);
layerId = "BF4E6768-4291-4940-AB0A-F00B8420ABE6";
shapes = (
{
closed = 1;
nodes = (
(874,505,o),
(1092,664,o),
(1092,902,cs),
(1092,1106,o),
(919,1250,o),
(644,1250,cs),
(365,1250,o),
(198,1203,o),
(198,1124,c),
(362,1177,o),
(483,1197,o),
(630,1197,cs),
(860,1197,o),
(976,1094,o),
(976,910,cs),
(976,683,o),
(814,558,o),
(472,558,cs),
(429,558,o),
(385,560,o),
(342,564,c),
(499,505,l)
);
},
{
closed = 1;
nodes = (
(359,0,l),
(544,1237,l),
(437,1230,l),
(253,0,l)
);
}
);
vertWidth = 0;
width = 1027;
},
{
anchors = (
{
name = bottom;
pos = (371,0);
},
{
name = top;
pos = (738,1250);
}
);
layerId = "3718A98A-F41F-4673-9A8B-612E711D0E37";
shapes = (
{
closed = 1;
nodes = (
(1014,505,o),
(1272,675,o),
(1272,902,cs),
(1272,1103,o),
(1039,1250,o),
(738,1250,cs),
(437,1250,o),
(198,1197,o),
(198,1124,c),
(329,1166,o),
(565,1197,o),
(711,1197,cs),
(941,1197,o),
(1036,1078,o),
(1036,910,cs),
(1036,668,o),
(911,558,o),
(592,558,cs),
(509,558,o),
(371,561,o),
(342,564,c),
(619,505,l)
);
},
{
closed = 1;
nodes = (
(479,0,l),
(664,1237,l),
(437,1230,l),
(253,0,l)
);
}
);
vertWidth = 0;
width = 1206;
},
{
anchors = (
{
name = bottom;
pos = (310,0);
},
{
name = top;
pos = (874,1250);
}
);
layerId = m003;
shapes = (
{
closed = 1;
nodes = (
(973,505,o),
(1219,664,o),
(1261,902,cs),
(1297,1106,o),
(1149,1250,o),
(874,1250,cs),
(595,1250,o),
(420,1203,o),
(406,1124,c),
(580,1177,o),
(704,1197,o),
(851,1197,cs),
(1081,1197,o),
(1179,1094,o),
(1146,910,cs),
(1106,683,o),
(922,558,o),
(580,558,cs),
(537,558,o),
(494,560,o),
(451,564,c),
(598,505,l)
);
},
{
closed = 1;
nodes = (
(369,0,l),
(772,1237,l),
(664,1230,l),
(263,0,l)
);
}
);
vertWidth = 0;
width = 1027;
},
{
anchors = (
{
name = bottom;
pos = (313,0);
},
{
name = top;
pos = (657,1250);
}
);
layerId = m004;
shapes = (
{
closed = 1;
nodes = (
(887,505,o),
(1105,664,o),
(1105,902,cs),
(1105,1106,o),
(932,1250,o),
(657,1250,cs),
(378,1250,o),
(211,1203,o),
(211,1124,c),
(375,1177,o),
(496,1197,o),
(643,1197,cs),
(873,1197,o),
(989,1094,o),
(989,910,cs),
(989,683,o),
(827,558,o),
(485,558,cs),
(442,558,o),
(398,560,o),
(355,564,c),
(512,505,l)
);
},
{
closed = 1;
nodes = (
(372,0,l),
(557,1237,l),
(450,1230,l),
(266,0,l)
);
}
);
vertWidth = 0;
width = 1069;
}
);
unicode = 80;
},
{
glyphname = Thorn;
kernLeft = K10;
lastChange = "2023-03-24 13:05:41 +0000";
layers = (
{
anchors = (
{
name = bottom;
pos = (275,0);
},
{
name = top;
pos = (460,1250);
}
);
layerId = "BF4E6768-4291-4940-AB0A-F00B8420ABE6";
shapes = (
{
closed = 1;
nodes = (
(836,315,o),
(1009,440,o),
(1009,653,cs),
(1009,834,o),
(865,932,o),
(599,932,cs),
(530,932,o),
(429,926,o),
(388,920,c),
(379,857,l),
(432,866,o),
(534,871,o),
(587,871,cs),
(801,871,o),
(905,801,o),
(905,657,cs),
(905,473,o),
(779,370,o),
(553,370,cs),
(489,370,o),
(369,378,o),
(299,395,c),
(292,341,l),
(357,323,o),
(464,315,o),
(540,315,cs)
);
},
{
ref = I;
}
);
vertWidth = 0;
width = 991;
},
{
anchors = (
{
name = bottom;
pos = (332,0);
},
{
name = top;
pos = (520,1250);
}
);
layerId = "3718A98A-F41F-4673-9A8B-612E711D0E37";
shapes = (
{
closed = 1;
nodes = (
(967,315,o),
(1190,457,o),
(1190,653,cs),
(1190,820,o),
(1001,932,o),
(719,932,cs),
(651,932,o),
(549,926,o),
(508,920,c),
(499,857,l),
(562,867,o),
(630,871,o),
(677,871,cs),
(877,871,o),
(966,805,o),
(966,657,cs),
(966,460,o),
(864,370,o),
(643,370,cs),
(586,370,o),
(485,376,o),
(419,395,c),
(412,341,l),
(477,323,o),
(585,315,o),
(660,315,cs)
);
},
{
ref = I;
}
);
vertWidth = 0;
width = 1175;
},
{
anchors = (
{
name = bottom;
pos = (281,0);
},
{
name = top;
pos = (687,1250);
}
);
layerId = m003;
shapes = (
{
closed = 1;
nodes = (
(898,315,o),
(1094,440,o),
(1131,653,cs),
(1163,834,o),
(1037,932,o),
(770,932,cs),
(701,932,o),
(599,926,o),
(557,920,c),
(537,857,l),
(580,864,o),
(678,871,o),
(747,871,cs),
(961,871,o),
(1053,801,o),
(1027,657,cs),
(995,473,o),
(851,370,o),
(625,370,cs),
(561,370,o),
(442,378,o),
(375,395,c),
(359,341,l),
(420,323,o),
(526,315,o),
(602,315,cs)
);
},
{
ref = I;
}
);
vertWidth = 0;
width = 992;
},
{
anchors = (
{
name = bottom;
pos = (275,0);
},
{
name = top;
pos = (460,1250);
}
);
layerId = m004;
shapes = (
{
closed = 1;
nodes = (
(836,315,o),
(1009,440,o),
(1009,653,cs),
(1009,834,o),
(865,932,o),
(599,932,cs),
(531,932,o),
(429,926,o),
(388,920,c),
(379,857,l),
(422,864,o),
(519,871,o),
(587,871,cs),
(801,871,o),
(905,801,o),
(905,657,cs),
(905,472,o),
(780,370,o),
(553,370,cs),
(489,370,o),
(369,378,o),
(299,395,c),
(292,341,l),
(357,323,o),
(464,315,o),
(540,315,cs)
);
},
{
ref = I;
}
);
vertWidth = 0;
width = 1024;
}
);
metricRight = "=O";
unicode = 222;
},
{
glyphname = Q;
kernLeft = K09;
kernRight = K08;
lastChange = "2023-09-16 09:21:45 +0000";
layers = (
{
anchors = (
{
name = bottom;
pos = (956,-159);
},
{
name = top;
pos = (734,1250);
}
);
layerId = "BF4E6768-4291-4940-AB0A-F00B8420ABE6";
shapes = (
{
closed = 1;
nodes = (
(918,57,o),
(1150,321,o),
(1150,730,cs),
(1150,1059,o),
(980,1250,o),
(734,1250,cs),
(426,1250,o),
(165,937,o),
(165,536,cs),
(165,251,o),
(315,78,o),
(519,78,cs),
(570,78,o),
(613,98,o),
(613,122,c),
(406,122,o),
(274,261,o),
(274,536,cs),
(274,897,o),
(482,1191,o),
(718,1191,cs),
(908,1191,o),
(1044,1024,o),
(1044,740,cs),
(1044,372,o),
(898,180,o),
(525,0,c),
(514,-36,l)
);
},
{
closed = 1;
nodes = (
(1064,-169,o),
(1123,-136,o),
(1123,-74,c),
(1091,-81,o),
(1052,-85,o),
(1005,-85,cs),
(875,-85,o),
(678,-50,o),
(525,0,c),
(515,-13,o),
(510,-31,o),
(510,-49,c),
(640,-114,o),
(846,-169,o),
(956,-169,cs)
);
}
);
vertWidth = 0;
width = 1121;
},
{
anchors = (
{
name = bottom;
pos = (1079,-159);
},
{
name = top;
pos = (857,1250);
}
);
layerId = "3718A98A-F41F-4673-9A8B-612E711D0E37";
shapes = (
{
closed = 1;
nodes = (
(1117,58,o),
(1394,382,o),
(1394,730,cs),
(1394,1027,o),
(1173,1250,o),
(857,1250,cs),
(481,1250,o),
(168,909,o),
(168,536,cs),
(168,273,o),
(361,78,o),
(642,78,cs),
(693,78,o),
(736,98,o),
(736,122,c),
(516,122,o),
(397,291,o),
(397,536,cs),
(397,924,o),
(568,1191,o),
(841,1191,cs),
(1069,1191,o),
(1168,1050,o),
(1168,740,cs),
(1168,377,o),
(1043,158,o),
(648,0,c),
(637,-36,l)
);
},
{
closed = 1;
nodes = (
(1187,-169,o),
(1246,-136,o),
(1246,-74,c),
(1214,-81,o),
(1175,-85,o),
(1128,-85,cs),
(998,-85,o),
(801,-50,o),
(648,0,c),
(638,-13,o),
(633,-31,o),
(633,-49,c),
(763,-114,o),
(969,-169,o),
(1079,-169,cs)
);
}
);
vertWidth = 0;
width = 1364;
},
{
anchors = (
{
name = bottom;
pos = (935,-159);
},
{
name = top;
pos = (961,1250);
}
);
layerId = m003;
shapes = (
{
closed = 1;
nodes = (
(935,57,o),
(1213,321,o),
(1286,730,cs),
(1344,1059,o),
(1207,1250,o),
(961,1250,cs),
(653,1250,o),
(337,937,o),
(266,536,cs),
(216,251,o),
(336,78,o),
(540,78,cs),
(591,78,o),
(637,98,o),
(641,122,c),
(434,122,o),
(327,261,o),
(375,536,cs),
(439,897,o),
(699,1191,o),
(935,1191,cs),
(1125,1191,o),
(1231,1024,o),
(1181,740,cs),
(1116,372,o),
(937,180,o),
(532,0,c),
(514,-36,l)
);
},
{
closed = 1;
nodes = (
(1041,-169,o),
(1106,-136,o),
(1117,-74,c),
(1084,-81,o),
(1044,-85,o),
(997,-85,cs),
(867,-85,o),
(676,-50,o),
(532,0,c),
(520,-13,o),
(511,-31,o),
(508,-49,c),
(627,-114,o),
(823,-169,o),
(933,-169,cs)
);
}
);
vertWidth = 0;
width = 1121;
},
{
anchors = (
{
name = bottom;
pos = (989,-189);
},
{
name = top;
pos = (767,1250);
}
);
layerId = m004;
shapes = (
{
closed = 1;
nodes = (
(951,57,o),
(1183,321,o),
(1183,730,cs),
(1183,1059,o),
(1013,1250,o),
(767,1250,cs),
(459,1250,o),
(204,977,o),
(204,576,cs),
(204,252,o),
(412,148,o),
(542,148,cs),
(602,148,o),
(646,170,o),
(646,202,c),
(445,221,o),
(313,328,o),
(313,576,cs),
(313,937,o),
(515,1191,o),
(751,1191,cs),
(941,1191,o),
(1077,1024,o),
(1077,740,cs),
(1077,372,o),
(931,180,o),
(558,0,c),
(547,-36,l)
);
},
{
closed = 1;
nodes = (
(1097,-199,o),
(1156,-171,o),
(1156,-109,c),
(1124,-114,o),
(1085,-115,o),
(1065,-115,cs),
(908,-115,o),
(711,-50,o),
(558,0,c),
(548,-13,o),
(543,-31,o),
(543,-49,c),
(673,-114,o),
(879,-199,o),
(1018,-199,cs)
);
}
);
vertWidth = 0;
width = 1148;
}
);
metricLeft = "=O";
unicode = 81;
},
{
glyphname = R;
kernLeft = K12;
kernRight = K16;
lastChange = "2023-03-24 21:43:01 +0000";
layers = (
{
anchors = (
{
name = bottom;
pos = (607,0);
},
{
name = top;
pos = (637,1250);
}
);
layerId = "BF4E6768-4291-4940-AB0A-F00B8420ABE6";
shapes = (
{
closed = 1;
nodes = (
(852,588,o),
(1057,753,o),
(1057,961,cs),
(1057,1150,o),
(883,1250,o),
(637,1250,cs),
(404,1250,o),
(191,1169,o),
(191,1080,c),
(314,1151,o),
(486,1197,o),
(627,1197,cs),
(820,1197,o),
(941,1126,o),
(941,959,cs),
(941,753,o),
(784,641,o),
(550,641,cs),
(518,641,l),
(565,592,l),
(588,589,o),
(608,588,o),
(626,588,cs)
);
},
{
closed = 1;
nodes = (
(353,0,l),
(539,1240,l),
(431,1226,l),
(247,0,l)
);
},
{
closed = 1;
nodes = (
(1109,-10,o),
(1126,-7,o),
(1140,-3,c),
(1065,77,o),
(971,139,o),
(864,323,cs),
(753,515,o),
(695,606,o),
(518,641,c),
(508,602,l),
(632,576,o),
(682,464,o),
(800,245,cs),
(916,30,o),
(1012,-10,o),
(1093,-10,cs)
);
}
);
vertWidth = 0;
width = 1120;
},
{
anchors = (
{
name = bottom;
pos = (705,0);
},
{
name = top;
pos = (712,1250);
}
);
layerId = "3718A98A-F41F-4673-9A8B-612E711D0E37";
shapes = (
{
closed = 1;
nodes = (
(995,588,o),
(1203,727,o),
(1203,961,cs),
(1203,1156,o),
(1024,1250,o),
(712,1250,cs),
(456,1250,o),
(191,1164,o),
(191,1080,c),
(298,1137,o),
(560,1197,o),
(702,1197,cs),
(875,1197,o),
(957,1134,o),
(957,959,cs),
(957,737,o),
(839,641,o),
(625,641,cs),
(593,641,l),
(640,592,l),
(663,589,o),
(683,588,o),
(701,588,cs)
);
},
{
closed = 1;
nodes = (
(474,0,l),
(660,1240,l),
(429,1216,l),
(247,0,l)
);
},
{
closed = 1;
nodes = (
(1252,-10,o),
(1269,-7,o),
(1283,-3,c),
(1239,54,o),
(1137,120,o),
(1021,315,cs),
(898,522,o),
(895,608,o),
(593,641,c),
(583,602,l),
(711,590,o),
(734,493,o),
(856,213,cs),
(945,8,o),
(1088,-10,o),
(1236,-10,cs)
);
}
);
vertWidth = 0;
width = 1263;
},
{
anchors = (
{
name = bottom;
pos = (617,0);
},
{
name = top;
pos = (867,1250);
}
);
layerId = m003;
shapes = (
{
closed = 1;
nodes = (
(965,588,o),
(1200,753,o),
(1236,961,cs),
(1270,1150,o),
(1113,1250,o),
(867,1250,cs),
(634,1250,o),
(407,1169,o),
(391,1080,c),
(527,1151,o),
(707,1197,o),
(848,1197,cs),
(1041,1197,o),
(1149,1126,o),
(1120,959,cs),
(1084,753,o),
(907,641,o),
(673,641,cs),
(641,641,l),
(679,592,l),
(702,589,o),
(721,588,o),
(739,588,cs)
);
},
{
closed = 1;
nodes = (
(363,0,l),
(767,1240,l),
(657,1226,l),
(257,0,l)
);
},
{
closed = 1;
nodes = (
(1117,-10,o),
(1135,-7,o),
(1149,-3,c),
(1088,77,o),
(1005,139,o),
(931,323,cs),
(854,515,o),
(812,606,o),
(641,641,c),
(624,602,l),
(743,576,o),
(774,464,o),
(853,245,cs),
(931,30,o),
(1020,-10,o),
(1101,-10,cs)
);
}
);
vertWidth = 0;
width = 1120;
},
{
anchors = (
{
name = bottom;
pos = (620,0);
},
{
name = top;
pos = (650,1250);
}
);
layerId = m004;
shapes = (
{
closed = 1;
nodes = (
(865,588,o),
(1070,753,o),
(1070,961,cs),
(1070,1150,o),
(896,1250,o),
(650,1250,cs),
(417,1250,o),
(204,1169,o),
(204,1080,c),
(327,1151,o),
(499,1197,o),
(640,1197,cs),
(833,1197,o),
(954,1126,o),
(954,959,cs),
(954,753,o),
(797,641,o),
(563,641,cs),
(531,641,l),
(578,592,l),
(601,589,o),
(621,588,o),
(639,588,cs)
);
},
{
closed = 1;
nodes = (
(366,0,l),
(552,1240,l),
(444,1226,l),
(260,0,l)
);
},
{
closed = 1;
nodes = (
(1102,-10,o),
(1119,-7,o),
(1133,-3,c),
(1058,77,o),
(999,143,o),
(877,323,cs),
(759,497,o),
(708,606,o),
(531,641,c),
(521,602,l),
(645,576,o),
(695,431,o),
(813,245,cs),
(945,37,o),
(1005,-10,o),
(1086,-10,cs)
);
}
);
vertWidth = 0;
width = 1128;
},
{
anchors = (
{
name = bottom;
pos = (630,0);
},
{
name = top;
pos = (880,1250);
}
);
associatedMasterId = "BF4E6768-4291-4940-AB0A-F00B8420ABE6";
attr = {
coordinates = (
300,
18.5,
10
);
};
layerId = "054E2DD9-84A1-4D84-BE72-714C0F2E6891";
name = "Farvardin 5, 02 AP, 01:05";
shapes = (
{
closed = 1;
nodes = (
(978,588,o),
(1213,753,o),
(1249,961,cs),
(1283,1150,o),
(1126,1250,o),
(880,1250,cs),
(647,1250,o),
(420,1169,o),
(404,1080,c),
(540,1151,o),
(720,1197,o),
(861,1197,cs),
(1054,1197,o),
(1162,1126,o),
(1133,959,cs),
(1097,753,o),
(920,641,o),
(686,641,cs),
(654,641,l),
(692,592,l),
(715,589,o),
(734,588,o),
(752,588,cs)
);
},
{
closed = 1;
nodes = (
(376,0,l),
(780,1240,l),
(670,1226,l),
(270,0,l)
);
},
{
closed = 1;
nodes = (
(1110,-10,o),
(1128,-7,o),
(1142,-3,c),
(1081,77,o),
(1033,143,o),
(944,323,cs),
(860,497,o),
(825,606,o),
(654,641,c),
(637,602,l),
(756,576,o),
(787,431,o),
(866,245,cs),
(960,37,o),
(1013,-10,o),
(1094,-10,cs)
);
}
);
vertWidth = 0;
width = 1128;
}
);
unicode = 82;
},
{
glyphname = S;
lastChange = "2023-09-16 11:04:34 +0000";
layers = (
{
anchors = (
{
name = bottom;
pos = (465,-10);
},
{
name = top;
pos = (606,1250);
}
);
layerId = "BF4E6768-4291-4940-AB0A-F00B8420ABE6";
shapes = (
{
closed = 1;
nodes = (
(718,-10,o),
(900,127,o),
(900,317,cs),
(900,458,o),
(820,547,o),
(570,668,cs),
(377,761,o),
(279,823,o),
(279,932,cs),
(279,1078,o),
(427,1191,o),
(593,1191,cs),
(728,1191,o),
(834,1115,o),
(884,984,c),
(907,1001,o),
(918,1024,o),
(918,1053,cs),
(917,1163,o),
(780,1250,o),
(606,1250,cs),
(374,1250,o),
(197,1099,o),
(197,903,cs),
(197,763,o),
(289,684,o),
(505,574,cs),
(720,464,o),
(794,396,o),
(794,283,cs),
(794,146,o),
(664,49,o),
(480,49,cs),
(297,49,o),
(168,131,o),
(113,283,c),
(93,269,o),
(85,252,o),
(85,223,cs),
(86,90,o),
(249,-10,o),
(465,-10,cs)
);
}
);
vertWidth = 0;
width = 906;
},
{
anchors = (
{
name = bottom;
pos = (458,-10);
},
{
name = top;
pos = (641,1250);
}
);
layerId = "3718A98A-F41F-4673-9A8B-612E711D0E37";
shapes = (
{
closed = 1;
nodes = (
(740,-10,o),
(914,132,o),
(914,361,cs),
(914,520,o),
(748,656,o),
(607,772,cs),
(502,858,o),
(411,933,o),
(411,1021,cs),
(411,1113,o),
(515,1191,o),
(639,1191,cs),
(742,1191,o),
(822,1137,o),
(886,1009,c),
(931,1022,o),
(953,1047,o),
(953,1085,cs),
(953,1177,o),
(810,1250,o),
(641,1250,cs),
(399,1250,o),
(212,1101,o),
(212,885,cs),
(212,726,o),
(355,614,o),
(488,510,cs),
(603,420,o),
(710,336,o),
(710,232,cs),
(710,115,o),
(624,49,o),
(472,49,cs),
(307,49,o),
(187,127,o),
(135,268,c),
(101,261,o),
(79,229,o),
(79,187,cs),
(79,75,o),
(242,-10,o),
(458,-10,cs)
);
}
);
vertWidth = 0;
width = 915;
},
{
anchors = (
{
name = bottom;
pos = (475,-10);
},
{
name = top;
pos = (828,1250);
}
);
layerId = m003;
shapes = (
{
closed = 1;
nodes = (
(715,-10,o),
(963,137,o),
(963,370,cs),
(963,483,o),
(887,570,o),
(690,668,cs),
(527,749,o),
(442,811,o),
(442,903,cs),
(442,1055,o),
(627,1191,o),
(804,1191,cs),
(940,1191,o),
(1032,1115,o),
(1059,984,c),
(1085,1001,o),
(1100,1024,o),
(1105,1053,cs),
(1124,1163,o),
(1002,1250,o),
(827,1250,cs),
(579,1250,o),
(353,1069,o),
(353,853,cs),
(353,741,o),
(432,664,o),
(608,574,cs),
(781,485,o),
(850,414,o),
(850,321,cs),
(850,154,o),
(673,49,o),
(483,49,cs),
(307,49,o),
(193,131,o),
(165,283,c),
(142,269,o),
(131,252,o),
(126,223,cs),
(104,90,o),
(249,-10,o),
(465,-10,cs)
);
}
);
vertWidth = 0;
width = 905;
},
{
anchors = (
{
name = bottom;
pos = (475,-10);
},
{
name = top;
pos = (606,1250);
}
);
layerId = m004;
shapes = (
{
closed = 1;
nodes = (
(718,-10,o),
(900,127,o),
(900,324,cs),
(900,458,o),
(816,535,o),
(570,668,cs),
(382,770,o),
(289,823,o),
(289,938,cs),
(289,1078,o),
(427,1171,o),
(593,1171,cs),
(728,1171,o),
(834,1115,o),
(884,984,c),
(907,1001,o),
(918,1024,o),
(918,1053,cs),
(917,1163,o),
(780,1250,o),
(606,1250,cs),
(374,1250,o),
(197,1099,o),
(197,906,cs),
(197,763,o),
(294,693,o),
(505,574,cs),
(719,453,o),
(794,396,o),
(794,288,cs),
(794,146,o),
(664,69,o),
(480,69,cs),
(297,69,o),
(168,131,o),
(113,283,c),
(93,269,o),
(85,252,o),
(85,223,cs),
(86,90,o),
(249,-10,o),
(465,-10,cs)
);
}
);
vertWidth = 0;
width = 906;
},
{
anchors = (
{
name = bottom;
pos = (437,-10);
},
{
name = top;
pos = (831,1250);
}
);
associatedMasterId = "3718A98A-F41F-4673-9A8B-612E711D0E37";
attr = {
coordinates = (
700,
18.5,
72
);
};
layerId = "360C8E80-37BF-4E77-8C1D-745A827281BD";
name = "Mordad 15, 02 AP, 22:18";
shapes = (
{
closed = 1;
nodes = (
(719,-10,o),
(916,132,o),
(948,361,cs),
(972,520,o),
(845,642,o),
(700,772,cs),
(609,853,o),
(530,933,o),
(548,1021,cs),
(572,1113,o),
(695,1191,o),
(819,1191,cs),
(922,1191,o),
(989,1137,o),
(1031,1009,c),
(1079,1022,o),
(1105,1047,o),
(1110,1085,cs),
(1129,1177,o),
(1000,1250,o),
(831,1250,cs),
(589,1250,o),
(377,1101,o),
(344,885,cs),
(320,726,o),
(447,609,o),
(565,510,cs),
(673,419,o),
(757,336,o),
(738,232,cs),
(716,115,o),
(613,49,o),
(461,49,cs),
(296,49,o),
(190,127,o),
(163,268,c),
(127,261,o),
(102,229,o),
(97,187,cs),
(75,75,o),
(221,-10,o),
(437,-10,cs)
);
}
);
vertWidth = 0;
width = 870;
},
{
anchors = (
{
name = bottom;
pos = (455,-10);
},
{
name = top;
pos = (633,1250);
}
);
associatedMasterId = "3718A98A-F41F-4673-9A8B-612E711D0E37";
attr = {
coordinates = (
700,
8.5,
10
);
};
layerId = "64875E0A-9EC1-471E-9937-815E4ACF57F1";
name = "{700,18,10} Mordad 15, 02 AP, 22:19";
shapes = (
{
closed = 1;
nodes = (
(737,-10,o),
(911,132,o),
(910,361,cs),
(909,520,o),
(753,640,o),
(602,772,cs),
(499,862,o),
(405,933,o),
(405,1021,cs),
(404,1113,o),
(507,1171,o),
(631,1171,cs),
(734,1171,o),
(815,1137,o),
(879,1009,c),
(924,1022,o),
(946,1047,o),
(946,1085,cs),
(946,1177,o),
(802,1250,o),
(633,1250,cs),
(391,1250,o),
(205,1101,o),
(206,885,cs),
(206,726,o),
(355,621,o),
(483,510,cs),
(596,412,o),
(705,336,o),
(706,232,cs),
(707,115,o),
(621,69,o),
(469,69,cs),
(304,69,o),
(184,127,o),
(131,268,c),
(97,261,o),
(75,229,o),
(75,187,cs),
(76,75,o),
(239,-10,o),
(455,-10,cs)
);
}
);
vertWidth = 0;
width = 901;
},
{
anchors = (
{
name = bottom;
pos = (455,-10);
},
{
name = top;
pos = (849,1250);
}
);
associatedMasterId = "3718A98A-F41F-4673-9A8B-612E711D0E37";
attr = {
coordinates = (
700,
18.5,
10
);
};
layerId = "326F2BDB-C015-44D6-8CF4-4B455D489A06";
name = "{700,18.5,10} Mordad 15, 02 AP, 22:28";
shapes = (
{
closed = 1;
nodes = (
(737,-10,o),
(934,132,o),
(966,361,cs),
(990,520,o),
(864,638,o),
(718,772,cs),
(628,854,o),
(548,933,o),
(566,1021,cs),
(590,1113,o),
(713,1171,o),
(837,1171,cs),
(940,1171,o),
(1007,1137,o),
(1049,1009,c),
(1097,1022,o),
(1123,1047,o),
(1128,1085,cs),
(1147,1177,o),
(1018,1250,o),
(849,1250,cs),
(607,1250,o),
(395,1101,o),
(362,885,cs),
(338,726,o),
(471,614,o),
(583,510,cs),
(681,419,o),
(775,336,o),
(756,232,cs),
(734,115,o),
(631,69,o),
(479,69,cs),
(314,69,o),
(208,127,o),
(181,268,c),
(145,261,o),
(120,229,o),
(115,187,cs),
(93,75,o),
(239,-10,o),
(455,-10,cs)
);
}
);
vertWidth = 0;
width = 901;
},
{
anchors = (
{
name = bottom;
pos = (484,-10);
},
{
name = top;
pos = (837,1250);
}
);
associatedMasterId = "3718A98A-F41F-4673-9A8B-612E711D0E37";
attr = {
coordinates = (
300,
18.5,
10
);
};
layerId = "3BC2C35F-118E-4FD7-A608-596FBF3F242C";
name = "{300,18.5,10} Mordad 15, 02 AP, 22:29";
shapes = (
{
closed = 1;
nodes = (
(727,-10,o),
(933,127,o),
(967,317,cs),
(992,458,o),
(924,547,o),
(699,668,cs),
(523,762,o),
(455,823,o),
(474,932,cs),
(500,1078,o),
(648,1171,o),
(814,1171,cs),
(949,1171,o),
(1041,1115,o),
(1068,984,c),
(1094,1001,o),
(1109,1024,o),
(1114,1053,cs),
(1133,1163,o),
(1011,1250,o),
(837,1250,cs),
(605,1250,o),
(402,1099,o),
(367,903,cs),
(342,763,o),
(422,684,o),
(617,574,cs),
(808,468,o),
(875,396,o),
(855,283,cs),
(831,146,o),
(683,69,o),
(499,69,cs),
(316,69,o),
(202,131,o),
(174,283,c),
(151,269,o),
(140,252,o),
(135,223,cs),
(113,90,o),
(258,-10,o),
(474,-10,cs)
);
}
);
vertWidth = 0;
width = 906;
}
);
unicode = 83;
},
{
glyphname = T;
kernLeft = K13;
kernRight = K17;
lastChange = "2023-03-24 13:05:41 +0000";
layers = (
{
anchors = (
{
name = bottom;
pos = (463,0);
},
{
name = center;
pos = (668,672);
},
{
name = top;
pos = (646,1240);
}
);
layerId = "BF4E6768-4291-4940-AB0A-F00B8420ABE6";
shapes = (
{
closed = 1;
nodes = (
(509,0,l),
(693,1227,l),
(587,1227,l),
(403,0,l)
);
},
{
closed = 1;
nodes = (
(1030,1157,l),
(1042,1240,l),
(240,1240,l),
(228,1157,l)
);
}
);
vertWidth = 0;
width = 912;
},
{
anchors = (
{
name = bottom;
pos = (514,0);
},
{
name = center;
pos = (833,645);
},
{
name = top;
pos = (706,1250);
}
);
layerId = "3718A98A-F41F-4673-9A8B-612E711D0E37";
shapes = (
{
closed = 1;
nodes = (
(627,0,l),
(810,1227,l),
(584,1227,l),
(401,0,l)
);
},
{
closed = 1;
nodes = (
(1146,1157,l),
(1158,1240,l),
(240,1240,l),
(228,1157,l)
);
}
);
vertWidth = 0;
width = 1028;
},
{
anchors = (
{
name = bottom;
pos = (474,0);
},
{
name = center;
pos = (797,672);
},
{
name = top;
pos = (875,1240);
}
);
layerId = m003;
shapes = (
{
closed = 1;
nodes = (
(520,0,l),
(920,1227,l),
(814,1227,l),
(414,0,l)
);
},
{
closed = 1;
nodes = (
(1245,1157,l),
(1271,1240,l),
(469,1240,l),
(443,1157,l)
);
}
);
vertWidth = 0;
width = 912;
},
{
anchors = (
{
name = bottom;
pos = (487,0);
},
{
name = center;
pos = (692,672);
},
{
name = top;
pos = (670,1240);
}
);
layerId = m004;
shapes = (
{
closed = 1;
nodes = (
(533,0,l),
(717,1227,l),
(611,1227,l),
(427,0,l)
);
},
{
closed = 1;
nodes = (
(1054,1157,l),
(1066,1240,l),
(264,1240,l),
(252,1157,l)
);
}
);
vertWidth = 0;
width = 960;
}
);
unicode = 84;
},
{
glyphname = U;
kernLeft = K14;
kernRight = K21;
lastChange = "2023-03-25 12:09:33 +0000";
layers = (
{
anchors = (
{
name = bottom;
pos = (569,-10);
},
{
name = ogonek;
pos = (569,-10);
},
{
name = top;
pos = (764,1240);
},
{
name = topright;
pos = (1087,1205);
}
);
layerId = "BF4E6768-4291-4940-AB0A-F00B8420ABE6";
shapes = (
{
closed = 1;
nodes = (
(790,-10,o),
(937,129,o),
(976,392,cs),
(1096,1193,l),
(1036,1193,l),
(918,405,ls),
(884,181,o),
(757,70,o),
(585,70,cs),
(413,70,o),
(319,182,o),
(352,405,cs),
(470,1193,l),
(364,1193,l),
(244,392,ls),
(205,129,o),
(311,-10,o),
(550,-10,cs)
);
},
{
closed = 1;
nodes = (
(926,1180,o),
(1022,1178,o),
(1123,1178,cs),
(1164,1178,o),
(1230,1177,o),
(1248,1176,c),
(1258,1240,l),
(1215,1240,o),
(1084,1240,o),
(1004,1240,cs),
(919,1240,o),
(885,1223,o),
(879,1170,c)
);
},
{
closed = 1;
nodes = (
(251,1172,o),
(362,1178,o),
(463,1178,cs),
(504,1178,o),
(605,1177,o),
(623,1176,c),
(633,1240,l),
(590,1242,o),
(528,1246,o),
(448,1246,cs),
(374,1246,o),
(307,1241,o),
(271,1232,cs),
(230,1222,o),
(206,1196,o),
(204,1162,c)
);
}
);
vertWidth = 0;
width = 1103;
},
{
anchors = (
{
name = bottom;
pos = (674,-10);
},
{
name = ogonek;
pos = (674,-10);
},
{
name = top;
pos = (864,1251);
},
{
name = topright;
pos = (1198,1206);
}
);
layerId = "3718A98A-F41F-4673-9A8B-612E711D0E37";
shapes = (
{
closed = 1;
nodes = (
(853,-10,o),
(1043,148,o),
(1080,392,cs),
(1200,1193,l),
(1140,1193,l),
(1022,405,ls),
(991,201,o),
(861,70,o),
(689,70,cs),
(517,70,o),
(426,202,o),
(456,405,cs),
(574,1193,l),
(348,1193,l),
(228,392,ls),
(191,148,o),
(336,-10,o),
(594,-10,cs)
);
},
{
closed = 1;
nodes = (
(1028,1180,o),
(1124,1178,o),
(1225,1178,cs),
(1266,1178,o),
(1332,1177,o),
(1350,1176,c),
(1360,1240,l),
(1317,1240,o),
(1186,1240,o),
(1106,1240,cs),
(1021,1240,o),
(987,1223,o),
(981,1170,c)
);
},
{
closed = 1;
nodes = (
(251,1172,o),
(347,1178,o),
(448,1178,cs),
(489,1178,o),
(705,1177,o),
(723,1176,c),
(733,1240,l),
(690,1242,o),
(513,1246,o),
(433,1246,cs),
(359,1246,o),
(307,1241,o),
(271,1232,cs),
(230,1222,o),
(206,1196,o),
(204,1162,c)
);
}
);
vertWidth = 0;
width = 1205;
},
{
anchors = (
{
name = bottom;
pos = (578,-10);
},
{
name = ogonek;
pos = (578,-10);
},
{
name = top;
pos = (993,1240);
},
{
name = topright;
pos = (1310,1205);
}
);
layerId = m003;
shapes = (
{
closed = 1;
nodes = (
(799,-10,o),
(971,129,o),
(1056,392,cs),
(1317,1193,l),
(1257,1193,l),
(1000,405,ls),
(927,181,o),
(780,70,o),
(608,70,cs),
(436,70,o),
(362,182,o),
(434,405,cs),
(691,1193,l),
(585,1193,l),
(324,392,ls),
(239,129,o),
(320,-10,o),
(559,-10,cs)
);
},
{
closed = 1;
nodes = (
(1144,1180,o),
(1240,1178,o),
(1341,1178,cs),
(1382,1178,o),
(1448,1177,o),
(1466,1176,c),
(1487,1240,l),
(1444,1240,o),
(1313,1240,o),
(1233,1240,cs),
(1148,1240,o),
(1111,1223,o),
(1096,1170,c)
);
},
{
closed = 1;
nodes = (
(468,1172,o),
(580,1178,o),
(681,1178,cs),
(722,1178,o),
(823,1177,o),
(841,1176,c),
(862,1240,l),
(819,1242,o),
(758,1246,o),
(678,1246,cs),
(604,1246,o),
(536,1241,o),
(499,1232,cs),
(456,1222,o),
(427,1196,o),
(419,1162,c)
);
}
);
vertWidth = 0;
width = 1102;
},
{
anchors = (
{
name = bottom;
pos = (582,-10);
},
{
name = ogonek;
pos = (582,-10);
},
{
name = top;
pos = (777,1240);
},
{
name = topright;
pos = (1100,1205);
}
);
layerId = m004;
shapes = (
{
closed = 1;
nodes = (
(803,-10,o),
(960,129,o),
(999,392,cs),
(1119,1193,l),
(1039,1193,l),
(921,405,ls),
(887,181,o),
(770,70,o),
(598,70,cs),
(426,70,o),
(332,182,o),
(365,405,cs),
(483,1193,l),
(377,1193,l),
(257,392,ls),
(218,129,o),
(324,-10,o),
(563,-10,cs)
);
},
{
closed = 1;
nodes = (
(939,1180,o),
(1035,1180,o),
(1136,1180,cs),
(1177,1180,o),
(1243,1180,o),
(1261,1180,c),
(1271,1240,l),
(1228,1240,o),
(1097,1240,o),
(983,1240,cs),
(932,1240,o),
(898,1228,o),
(892,1180,c)
);
},
{
closed = 1;
nodes = (
(264,1180,o),
(375,1180,o),
(476,1180,cs),
(517,1180,o),
(618,1180,o),
(636,1180,c),
(646,1240,l),
(603,1240,o),
(541,1240,o),
(461,1240,cs),
(387,1240,o),
(318,1238,o),
(284,1232,cs),
(243,1225,o),
(219,1206,o),
(217,1180,c)
);
}
);
vertWidth = 0;
width = 1129;
}
);
unicode = 85;
},
{
glyphname = Uhorn;
kernLeft = K14;
kernRight = K21;
lastChange = "2023-03-27 21:51:51 +0000";
layers = (
{
anchors = (
{
name = bottom;
pos = (550,-10);
},
{
name = ogonek;
pos = (569,-10);
},
{
name = top;
pos = (764,1240);
},
{
name = topright;
pos = (1201,1379);
}
);
layerId = "BF4E6768-4291-4940-AB0A-F00B8420ABE6";
shapes = (
{
closed = 1;
nodes = (
(790,-10,o),
(936,129,o),
(976,392,cs),
(1096,1193,l),
(1036,1193,l),
(918,405,ls),
(884,181,o),
(757,70,o),
(585,70,cs),
(413,70,o),
(318,182,o),
(352,405,cs),
(470,1193,l),
(364,1193,l),
(244,392,ls),
(204,129,o),
(311,-10,o),
(550,-10,cs)
);
},
{
closed = 1;
nodes = (
(919,1240,o),
(885,1223,o),
(879,1170,c),
(926,1180,o),
(1022,1178,o),
(983,1178,c),
(1051,1178,ls),
(1193,1178,o),
(1268,1240,o),
(1267,1306,cs),
(1268,1349,o),
(1240,1379,o),
(1201,1379,cs),
(1164,1379,o),
(1137,1353,o),
(1136,1317,cs),
(1137,1284,o),
(1160,1260,o),
(1196,1256,c),
(1178,1245,o),
(1127,1240,o),
(1004,1240,cs)
);
},
{
closed = 1;
nodes = (
(251,1172,o),
(362,1178,o),
(463,1178,cs),
(504,1178,o),
(605,1177,o),
(623,1176,c),
(633,1240,l),
(590,1242,o),
(528,1246,o),
(448,1246,cs),
(374,1246,o),
(307,1241,o),
(271,1232,cs),
(230,1222,o),
(206,1196,o),
(204,1162,c)
);
}
);
vertWidth = 0;
width = 1103;
},
{
anchors = (
{
name = bottom;
pos = (674,-10);
},
{
name = ogonek;
pos = (674,-10);
},
{
name = top;
pos = (864,1251);
},
{
name = topright;
pos = (1198,1206);
}
);
layerId = "3718A98A-F41F-4673-9A8B-612E711D0E37";
shapes = (
{
closed = 1;
nodes = (
(853,-10,o),
(1043,148,o),
(1080,392,cs),
(1200,1193,l),
(1140,1193,l),
(1022,405,ls),
(991,201,o),
(861,70,o),
(689,70,cs),
(517,70,o),
(426,202,o),
(456,405,cs),
(574,1193,l),
(348,1193,l),
(228,392,ls),
(191,148,o),
(336,-10,o),
(594,-10,cs)
);
},
{
closed = 1;
nodes = (
(1021,1240,o),
(987,1223,o),
(981,1170,c),
(1028,1180,o),
(1068,1178,o),
(1099,1178,c),
(1162,1178,ls),
(1300,1178,o),
(1371,1245,o),
(1371,1323,cs),
(1371,1377,o),
(1337,1414,o),
(1288,1414,cs),
(1242,1414,o),
(1208,1381,o),
(1208,1336,cs),
(1208,1295,o),
(1237,1265,o),
(1281,1260,c),
(1253,1244,o),
(1223,1240,o),
(1106,1240,cs)
);
},
{
closed = 1;
nodes = (
(251,1172,o),
(347,1178,o),
(448,1178,cs),
(489,1178,o),
(705,1177,o),
(723,1176,c),
(733,1240,l),
(690,1242,o),
(513,1246,o),
(433,1246,cs),
(359,1246,o),
(307,1241,o),
(271,1232,cs),
(230,1222,o),
(206,1196,o),
(204,1162,c)
);
}
);
vertWidth = 0;
width = 1205;
},
{
anchors = (
{
name = bottom;
pos = (559,-10);
},
{
name = ogonek;
pos = (578,-10);
},
{
name = top;
pos = (993,1240);
},
{
name = topright;
pos = (1454,1379);
}
);
layerId = m003;
shapes = (
{
closed = 1;
nodes = (
(799,-10,o),
(970,129,o),
(1056,392,cs),
(1317,1193,l),
(1257,1193,l),
(1000,405,ls),
(927,181,o),
(780,70,o),
(608,70,cs),
(436,70,o),
(361,182,o),
(434,405,cs),
(691,1193,l),
(585,1193,l),
(324,392,ls),
(238,129,o),
(320,-10,o),
(559,-10,cs)
);
},
{
closed = 1;
nodes = (
(1148,1240,o),
(1111,1223,o),
(1096,1170,c),
(1144,1180,o),
(1240,1178,o),
(1201,1178,c),
(1269,1178,ls),
(1411,1178,o),
(1497,1240,o),
(1508,1306,cs),
(1516,1349,o),
(1493,1379,o),
(1454,1379,cs),
(1417,1379,o),
(1386,1353,o),
(1379,1317,cs),
(1374,1284,o),
(1393,1260,o),
(1428,1256,c),
(1408,1245,o),
(1356,1240,o),
(1233,1240,cs)
);
},
{
closed = 1;
nodes = (
(468,1172,o),
(580,1178,o),
(681,1178,cs),
(722,1178,o),
(823,1177,o),
(841,1176,c),
(862,1240,l),
(819,1242,o),
(758,1246,o),
(678,1246,cs),
(604,1246,o),
(536,1241,o),
(499,1232,cs),
(456,1222,o),
(427,1196,o),
(419,1162,c)
);
}
);
vertWidth = 0;
width = 1102;
},
{
anchors = (
{
name = bottom;
pos = (563,-10);
},
{
name = ogonek;
pos = (582,-10);
},
{
name = top;
pos = (777,1240);
},
{
name = topright;
pos = (1214,1379);
}
);
layerId = m004;
shapes = (
{
closed = 1;
nodes = (
(803,-10,o),
(960,129,o),
(999,392,cs),
(1119,1193,l),
(1039,1193,l),
(921,405,ls),
(887,181,o),
(770,70,o),
(598,70,cs),
(426,70,o),
(332,182,o),
(365,405,cs),
(483,1193,l),
(377,1193,l),
(257,392,ls),
(218,129,o),
(324,-10,o),
(563,-10,cs)
);
},
{
closed = 1;
nodes = (
(932,1240,o),
(898,1228,o),
(892,1180,c),
(939,1180,o),
(1085,1180,o),
(1046,1180,c),
(1114,1180,ls),
(1256,1180,o),
(1311,1240,o),
(1310,1306,cs),
(1311,1349,o),
(1283,1379,o),
(1244,1379,cs),
(1207,1379,o),
(1180,1353,o),
(1179,1317,cs),
(1180,1284,o),
(1203,1260,o),
(1239,1256,c),
(1221,1245,o),
(1170,1240,o),
(1017,1240,cs)
);
},
{
closed = 1;
nodes = (
(264,1180,o),
(375,1180,o),
(476,1180,cs),
(517,1180,o),
(618,1180,o),
(636,1180,c),
(646,1240,l),
(603,1240,o),
(541,1240,o),
(461,1240,cs),
(387,1240,o),
(318,1238,o),
(284,1232,cs),
(243,1225,o),
(219,1206,o),
(217,1180,c)
);
}
);
vertWidth = 0;
width = 1129;
}
);
unicode = 431;
},
{
glyphname = V;
kernLeft = K15;
kernRight = K18;
lastChange = "2023-08-23 19:45:50 +0000";
layers = (
{
anchors = (
{
name = bottom;
pos = (493,-5);
},
{
name = top;
pos = (670,1244);
}
);
layerId = "BF4E6768-4291-4940-AB0A-F00B8420ABE6";
shapes = (
{
closed = 1;
nodes = (
(547,1,l),
(800,601,ls),
(941,934,o),
(1034,1126,o),
(1125,1245,c),
(1003,1245,o),
(951,1141,o),
(740,632,cs),
(488,25,l)
);
},
{
closed = 1;
nodes = (
(547,1,l),
(449,721,ls),
(424,903,o),
(397,993,o),
(377,1073,cs),
(359,1150,o),
(330,1245,o),
(250,1245,cs),
(238,1245,o),
(227,1243,o),
(215,1239,c),
(260,1093,o),
(309,926,o),
(341,696,cs),
(440,-10,l)
);
}
);
vertWidth = 0;
width = 969;
},
{
anchors = (
{
name = bottom;
pos = (516,0);
},
{
name = top;
pos = (783,1268);
}
);
layerId = "3718A98A-F41F-4673-9A8B-612E711D0E37";
shapes = (
{
closed = 1;
nodes = (
(611,11,l),
(897,602,ls),
(1059,936,o),
(1151,1127,o),
(1246,1246,c),
(1124,1246,o),
(1084,1142,o),
(839,632,cs),
(549,27,l)
);
},
{
closed = 1;
nodes = (
(611,11,l),
(551,722,ls),
(534,924,o),
(516,1086,o),
(451,1175,cs),
(416,1223,o),
(366,1250,o),
(296,1250,cs),
(265,1250,o),
(234,1244,o),
(215,1237,c),
(257,1083,o),
(300,909,o),
(322,696,cs),
(396,-13,l)
);
}
);
vertWidth = 0;
width = 1090;
},
{
anchors = (
{
name = bottom;
pos = (504,-5);
},
{
name = top;
pos = (901,1244);
}
);
layerId = m003;
shapes = (
{
closed = 1;
nodes = (
(559,1,l),
(918,601,ls),
(1117,934,o),
(1244,1126,o),
(1356,1245,c),
(1234,1245,o),
(1164,1141,o),
(863,632,cs),
(504,25,l)
);
},
{
closed = 1;
nodes = (
(559,1,l),
(588,721,ls),
(595,903,o),
(584,993,o),
(578,1073,cs),
(574,1150,o),
(561,1245,o),
(481,1245,cs),
(469,1245,o),
(458,1243,o),
(445,1239,c),
(464,1093,o),
(484,926,o),
(475,696,cs),
(450,-10,l)
);
}
);
vertWidth = 0;
width = 969;
},
{
anchors = (
{
name = bottom;
pos = (506,-5);
},
{
name = top;
pos = (683,1244);
}
);
layerId = m004;
shapes = (
{
closed = 1;
nodes = (
(560,0,l),
(999,1088,ls),
(1026,1154,o),
(1054,1205,o),
(1088,1250,c),
(989,1250,o),
(970,1202,o),
(937,1120,cs),
(501,30,l)
);
},
{
closed = 1;
nodes = (
(560,0,l),
(453,726,ls),
(426,907,o),
(410,998,o),
(390,1078,cs),
(372,1155,o),
(343,1250,o),
(263,1250,cs),
(251,1250,o),
(240,1248,o),
(228,1244,c),
(273,1098,o),
(310,930,o),
(345,701,cs),
(453,0,l)
);
}
);
vertWidth = 0;
width = 1005;
},
{
anchors = (
{
name = bottom;
pos = (517,-5);
},
{
name = top;
pos = (914,1244);
}
);
associatedMasterId = "BF4E6768-4291-4940-AB0A-F00B8420ABE6";
attr = {
coordinates = (
300,
18.5,
10
);
};
layerId = "6083494A-3E2B-492D-A6C2-12E682E9CEE8";
name = "Farvardin 5, 02 AP, 01:06";
shapes = (
{
closed = 1;
nodes = (
(572,-10,l),
(1176,1038,ls),
(1232,1135,o),
(1264,1185,o),
(1310,1230,c),
(1228,1255,o),
(1198,1206,o),
(1120,1070,cs),
(517,20,l)
);
},
{
closed = 1;
nodes = (
(572,-10,l),
(592,716,ls),
(597,897,o),
(597,988,o),
(591,1068,cs),
(586,1145,o),
(574,1240,o),
(494,1240,cs),
(482,1240,o),
(471,1238,o),
(458,1234,c),
(477,1088,o),
(484,920,o),
(479,691,cs),
(463,-10,l)
);
}
);
vertWidth = 0;
width = 1005;
}
);
unicode = 86;
},
{
glyphname = W;
kernLeft = K16;
kernRight = K19;
lastChange = "2023-03-24 21:48:16 +0000";
layers = (
{
anchors = (
{
name = bottom;
pos = (791,0);
},
{
name = top;
pos = (906,1211);
}
);
layerId = "BF4E6768-4291-4940-AB0A-F00B8420ABE6";
shapes = (
{
closed = 1;
nodes = (
(519,5,l),
(433,726,ls),
(405,965,o),
(378,1101,o),
(344,1174,cs),
(319,1230,o),
(289,1249,o),
(253,1249,cs),
(242,1249,o),
(229,1247,o),
(216,1244,c),
(259,1105,o),
(295,980,o),
(334,701,cs),
(433,-4,l)
);
},
{
closed = 1;
nodes = (
(519,5,l),
(912,1104,l),
(851,1135,l),
(454,10,l)
);
},
{
closed = 1;
nodes = (
(1153,5,l),
(934,1150,l),
(851,1135,l),
(1067,-4,l)
);
},
{
closed = 1;
nodes = (
(1410,1250,l),
(1416,1193,o),
(1414,1127,o),
(1396,1065,cs),
(1087,10,l),
(1153,5,l),
(1517,1250,l)
);
}
);
vertWidth = 0;
width = 1360;
},
{
anchors = (
{
name = bottom;
pos = (905,0);
},
{
name = top;
pos = (1068,1135);
}
);
layerId = "3718A98A-F41F-4673-9A8B-612E711D0E37";
shapes = (
{
closed = 1;
nodes = (
(644,11,l),
(553,726,ls),
(527,930,o),
(513,1088,o),
(456,1177,cs),
(424,1227,o),
(377,1255,o),
(305,1255,cs),
(279,1255,o),
(249,1252,o),
(216,1244,c),
(259,1105,o),
(296,980,o),
(334,701,cs),
(431,-13,l)
);
},
{
closed = 1;
nodes = (
(644,11,l),
(1032,1104,l),
(962,1110,l),
(584,41,l)
);
},
{
closed = 1;
nodes = (
(1398,11,l),
(1186,1135,l),
(962,1110,l),
(1185,-13,l)
);
},
{
closed = 1;
nodes = (
(1645,1240,l),
(1653,1185,o),
(1648,1131,o),
(1626,1054,cs),
(1337,41,l),
(1398,11,l),
(1749,1240,l)
);
}
);
vertWidth = 0;
width = 1594;
},
{
anchors = (
{
name = bottom;
pos = (802,0);
},
{
name = top;
pos = (1130,1211);
}
);
layerId = m003;
shapes = (
{
closed = 1;
nodes = (
(531,5,l),
(572,726,ls),
(592,1080,o),
(572,1156,o),
(542,1212,cs),
(529,1238,o),
(510,1250,o),
(483,1250,cs),
(471,1250,o),
(459,1248,o),
(446,1244,c),
(465,1105,o),
(478,980,o),
(468,701,cs),
(443,-4,l)
);
},
{
closed = 1;
nodes = (
(531,5,l),
(1117,1104,l),
(1062,1135,l),
(466,10,l)
);
},
{
closed = 1;
nodes = (
(1165,5,l),
(1147,1150,l),
(1062,1135,l),
(1077,-4,l)
);
},
{
closed = 1;
nodes = (
(1640,1250,l),
(1636,1193,o),
(1622,1127,o),
(1593,1065,cs),
(1099,10,l),
(1165,5,l),
(1747,1250,l)
);
}
);
vertWidth = 0;
width = 1359;
},
{
anchors = (
{
name = bottom;
pos = (809,0);
},
{
name = top;
pos = (924,1211);
}
);
layerId = m004;
shapes = (
{
closed = 1;
nodes = (
(537,0,l),
(407,1099,ls),
(401,1150,o),
(393,1194,o),
(369,1221,cs),
(353,1239,o),
(330,1250,o),
(295,1250,cs),
(283,1250,o),
(271,1248,o),
(259,1244,c),
(283,1180,o),
(291,1136,o),
(300,1073,cs),
(451,0,l)
);
},
{
closed = 1;
nodes = (
(537,0,l),
(930,1104,l),
(869,1143,l),
(472,0,l)
);
},
{
closed = 1;
nodes = (
(1171,0,l),
(952,1143,l),
(869,1143,l),
(1085,0,l)
);
},
{
closed = 1;
nodes = (
(1428,1250,l),
(1434,1193,o),
(1432,1127,o),
(1414,1065,cs),
(1105,0,l),
(1171,0,l),
(1535,1250,l)
);
}
);
vertWidth = 0;
width = 1391;
},
{
anchors = (
{
name = bottom;
pos = (820,0);
},
{
name = top;
pos = (1148,1211);
}
);
associatedMasterId = "BF4E6768-4291-4940-AB0A-F00B8420ABE6";
attr = {
coordinates = (
300,
18.5,
10
);
};
layerId = "0EFDF3F1-50C0-463A-BC29-D9BE4074C55C";
name = "Farvardin 5, 02 AP, 01:08";
shapes = (
{
closed = 1;
nodes = (
(549,0,l),
(546,1099,ls),
(546,1175,o),
(541,1194,o),
(526,1221,cs),
(515,1239,o),
(494,1250,o),
(459,1250,cs),
(447,1250,o),
(435,1248,o),
(422,1244,c),
(428,1180,o),
(432,1148,o),
(434,1073,cs),
(461,0,l)
);
},
{
closed = 1;
nodes = (
(549,0,l),
(1135,1104,l),
(1080,1143,l),
(484,0,l)
);
},
{
closed = 1;
nodes = (
(1183,0,l),
(1165,1143,l),
(1080,1143,l),
(1095,0,l)
);
},
{
closed = 1;
nodes = (
(1658,1250,l),
(1654,1193,o),
(1640,1127,o),
(1611,1065,cs),
(1117,0,l),
(1183,0,l),
(1765,1250,l)
);
}
);
vertWidth = 0;
width = 1390;
}
);
unicode = 87;
},
{
glyphname = X;
kernLeft = K17;
kernRight = K13;
lastChange = "2023-03-25 12:11:39 +0000";
layers = (
{
anchors = (
{
name = bottom;
pos = (477,0);
},
{
name = top;
pos = (664,1250);
}
);
layerId = "BF4E6768-4291-4940-AB0A-F00B8420ABE6";
shapes = (
{
closed = 1;
nodes = (
(923,0,l),
(391,1148,l),
(355,1220,o),
(318,1250,o),
(266,1250,cs),
(248,1250,o),
(231,1246,o),
(215,1238,c),
(241,1202,o),
(262,1165,o),
(295,1099,c),
(800,0,l)
);
},
{
closed = 1;
nodes = (
(1108,1240,l),
(998,1240,l),
(997,1204,o),
(980,1185,o),
(871,1049,cs),
(30,0,l),
(112,0,l),
(588,611,l)
);
}
);
vertWidth = 0;
width = 953;
},
{
anchors = (
{
name = bottom;
pos = (453,0);
},
{
name = top;
pos = (773,1278);
}
);
layerId = "3718A98A-F41F-4673-9A8B-612E711D0E37";
shapes = (
{
closed = 1;
nodes = (
(1043,0,l),
(511,1148,ls),
(474,1228,o),
(417,1258,o),
(297,1258,cs),
(269,1258,o),
(242,1251,o),
(215,1238,c),
(241,1202,o),
(264,1166,o),
(295,1099,cs),
(800,0,l)
);
},
{
closed = 1;
nodes = (
(1227,1240,l),
(1063,1240,l),
(1063,1189,o),
(981,1068,o),
(900,977,cs),
(30,0,l),
(123,0,l),
(645,615,l)
);
}
);
vertWidth = 0;
width = 1073;
},
{
anchors = (
{
name = bottom;
pos = (488,0);
},
{
name = top;
pos = (895,1250);
}
);
layerId = m003;
shapes = (
{
closed = 1;
nodes = (
(934,0,l),
(604,1148,l),
(581,1220,o),
(549,1250,o),
(497,1250,cs),
(479,1250,o),
(462,1246,o),
(444,1238,c),
(464,1202,o),
(478,1165,o),
(500,1099,c),
(811,0,l)
);
},
{
closed = 1;
nodes = (
(1338,1240,l),
(1228,1240,l),
(1220,1204,o),
(1200,1185,o),
(1067,1049,cs),
(41,0,l),
(123,0,l),
(707,611,l)
);
}
);
vertWidth = 0;
width = 964;
},
{
anchors = (
{
name = bottom;
pos = (490,0);
},
{
name = top;
pos = (677,1250);
}
);
layerId = m004;
shapes = (
{
closed = 1;
nodes = (
(936,0,l),
(404,1148,l),
(368,1220,o),
(331,1250,o),
(279,1250,cs),
(261,1250,o),
(244,1246,o),
(228,1238,c),
(254,1202,o),
(275,1165,o),
(308,1099,c),
(813,0,l)
);
},
{
closed = 1;
nodes = (
(1121,1240,l),
(991,1240,l),
(990,1204,o),
(982,1186,o),
(874,1049,cs),
(43,0,l),
(155,0,l),
(601,611,l)
);
}
);
vertWidth = 0;
width = 979;
}
);
unicode = 88;
},
{
glyphname = Y;
kernLeft = K18;
kernRight = K20;
lastChange = "2023-03-25 12:11:06 +0000";
layers = (
{
anchors = (
{
name = bottom;
pos = (517,0);
},
{
name = top;
pos = (687,1246);
},
{
name = topleft;
pos = (250,1245);
}
);
layerId = "BF4E6768-4291-4940-AB0A-F00B8420ABE6";
shapes = (
{
closed = 1;
nodes = (
(571,0,l),
(660,596,l),
(554,596,l),
(465,0,l)
);
},
{
closed = 1;
nodes = (
(648,604,l),
(379,1148,ls),
(343,1220,o),
(330,1245,o),
(250,1245,cs),
(238,1245,o),
(227,1243,o),
(215,1239,c),
(559,547,l)
);
},
{
closed = 1;
nodes = (
(628,556,o),
(639,564,o),
(755,712,cs),
(1167,1240,l),
(1064,1240,l),
(1063,1204,o),
(1050,1159,o),
(965,1049,cs),
(586,560,l),
(593,558,o),
(583,556,o),
(590,556,cs)
);
}
);
vertWidth = 0;
width = 1012;
},
{
anchors = (
{
name = bottom;
pos = (597,0);
},
{
name = top;
pos = (813,1260);
},
{
name = topleft;
pos = (324,1250);
}
);
layerId = "3718A98A-F41F-4673-9A8B-612E711D0E37";
shapes = (
{
closed = 1;
nodes = (
(702,0,l),
(791,596,l),
(565,596,l),
(476,0,l)
);
},
{
closed = 1;
nodes = (
(783,571,l),
(517,1132,ls),
(472,1226,o),
(415,1250,o),
(324,1250,cs),
(264,1250,o),
(234,1244,o),
(215,1237,c),
(570,547,l)
);
},
{
closed = 1;
nodes = (
(770,546,o),
(795,579,o),
(900,712,cs),
(1317,1240,l),
(1194,1240,l),
(1194,1197,o),
(1132,1095,o),
(1071,1018,cs),
(702,550,l),
(712,547,o),
(722,546,o),
(731,546,cs)
);
}
);
vertWidth = 0;
width = 1143;
},
{
anchors = (
{
name = bottom;
pos = (529,0);
},
{
name = top;
pos = (919,1246);
},
{
name = topleft;
pos = (482,1245);
}
);
layerId = m003;
shapes = (
{
closed = 1;
nodes = (
(583,0,l),
(777,596,l),
(671,596,l),
(477,0,l)
);
},
{
closed = 1;
nodes = (
(767,604,l),
(593,1148,ls),
(570,1220,o),
(562,1245,o),
(482,1245,cs),
(470,1245,o),
(458,1243,o),
(445,1239,c),
(667,547,l)
);
},
{
closed = 1;
nodes = (
(738,556,o),
(750,564,o),
(893,712,cs),
(1398,1240,l),
(1295,1240,l),
(1287,1204,o),
(1266,1159,o),
(1162,1049,cs),
(697,560,l),
(703,558,o),
(693,556,o),
(700,556,cs)
);
}
);
vertWidth = 0;
width = 1013;
},
{
anchors = (
{
name = bottom;
pos = (530,0);
},
{
name = top;
pos = (700,1246);
},
{
name = topleft;
pos = (263,1245);
}
);
layerId = m004;
shapes = (
{
closed = 1;
nodes = (
(584,0,l),
(673,596,l),
(567,596,l),
(478,0,l)
);
},
{
closed = 1;
nodes = (
(661,604,l),
(392,1148,ls),
(356,1220,o),
(343,1245,o),
(263,1245,cs),
(251,1245,o),
(240,1243,o),
(228,1239,c),
(572,547,l)
);
},
{
closed = 1;
nodes = (
(651,556,o),
(662,564,o),
(778,712,cs),
(1190,1240,l),
(1077,1240,l),
(1076,1204,o),
(1043,1159,o),
(958,1049,cs),
(579,560,l),
(586,558,o),
(606,556,o),
(613,556,cs)
);
}
);
vertWidth = 0;
width = 1038;
}
);
unicode = 89;
},
{
glyphname = Z;
kernRight = K23;
lastChange = "2023-08-27 20:08:19 +0000";
layers = (
{
anchors = (
{
name = bottom;
pos = (506,0);
},
{
name = center;
pos = (628,655);
},
{
name = top;
pos = (680,1250);
}
);
layerId = "BF4E6768-4291-4940-AB0A-F00B8420ABE6";
shapes = (
{
closed = 1;
nodes = (
(169,55,l),
(861,927,ls),
(950,1039,o),
(1039,1136,o),
(1108,1190,c),
(1097,1220,l),
(1022,1207,o),
(946,1144,o),
(846,1019,cs),
(53,22,l),
(95,-13,l)
);
},
{
closed = 1;
nodes = (
(109,-3,o),
(134,0,o),
(204,0,cs),
(731,0,ls),
(884,0,o),
(944,33,o),
(966,129,cs),
(978,184,o),
(980,190,o),
(996,233,c),
(989,234,o),
(984,235,o),
(980,235,cs),
(945,235,o),
(924,205,o),
(916,142,cs),
(913,118,o),
(910,106,o),
(906,96,cs),
(902,86,o),
(890,82,o),
(865,82,cs),
(808,82,o),
(644,88,o),
(556,93,cs),
(514,96,o),
(471,97,o),
(424,97,cs),
(302,97,o),
(221,86,o),
(126,58,c),
(95,-13,l)
);
},
{
closed = 1;
nodes = (
(312,1058,ls),
(333,1124,o),
(354,1147,o),
(396,1147,cs),
(420,1147,o),
(463,1143,o),
(561,1130,cs),
(680,1115,o),
(749,1109,o),
(813,1109,cs),
(903,1109,o),
(976,1122,o),
(1039,1148,c),
(1097,1220,l),
(1032,1208,o),
(965,1202,o),
(895,1202,cs),
(812,1202,o),
(728,1210,o),
(581,1232,cs),
(497,1245,o),
(446,1250,o),
(414,1250,cs),
(335,1250,o),
(304,1220,o),
(265,1104,cs),
(230,999,l),
(289,986,l)
);
}
);
vertWidth = 0;
width = 1011;
},
{
anchors = (
{
name = bottom;
pos = (518,0);
},
{
name = center;
pos = (773,612);
},
{
name = top;
pos = (722,1252);
}
);
layerId = "3718A98A-F41F-4673-9A8B-612E711D0E37";
shapes = (
{
closed = 1;
nodes = (
(212,175,l),
(860,824,ls),
(989,954,o),
(1048,1015,o),
(1099,1064,c),
(1168,1220,l),
(1120,1200,o),
(982,1058,o),
(827,899,cs),
(86,142,l),
(48,-13,l)
);
},
{
closed = 1;
nodes = (
(62,-3,o),
(87,0,o),
(157,0,cs),
(683,0,ls),
(875,0,o),
(981,135,o),
(1008,249,cs),
(1020,304,o),
(1022,310,o),
(1038,353,c),
(1031,354,o),
(1026,355,o),
(1022,355,cs),
(987,355,o),
(966,325,o),
(958,262,cs),
(955,238,o),
(952,226,o),
(948,216,cs),
(944,206,o),
(932,202,o),
(907,202,cs),
(850,202,o),
(686,208,o),
(598,213,cs),
(556,216,o),
(512,217,o),
(466,217,cs),
(344,217,o),
(264,206,o),
(169,178,c),
(48,-13,l)
);
},
{
closed = 1;
nodes = (
(303,964,ls),
(319,1011,o),
(364,1023,o),
(416,1023,cs),
(437,1023,o),
(485,1017,o),
(542,1011,cs),
(625,1001,o),
(727,989,o),
(790,989,cs),
(870,989,o),
(949,999,o),
(1020,1028,c),
(1168,1220,l),
(1103,1208,o),
(1036,1202,o),
(966,1202,cs),
(883,1202,o),
(799,1210,o),
(652,1232,cs),
(566,1245,o),
(514,1250,o),
(468,1250,cs),
(378,1250,o),
(306,1164,o),
(246,984,cs),
(225,921,l),
(284,907,l)
);
}
);
vertWidth = 0;
width = 1036;
},
{
anchors = (
{
name = bottom;
pos = (506,0);
},
{
name = center;
pos = (744,655);
},
{
name = top;
pos = (901,1250);
}
);
layerId = m003;
shapes = (
{
closed = 1;
nodes = (
(179,55,l),
(1025,927,ls),
(1133,1039,o),
(1240,1136,o),
(1318,1190,c),
(1312,1220,l),
(1235,1207,o),
(1148,1144,o),
(1026,1019,cs),
(57,22,l),
(93,-13,l)
);
},
{
closed = 1;
nodes = (
(109,-3,o),
(134,0,o),
(204,0,cs),
(731,0,ls),
(884,0,o),
(950,33,o),
(989,129,cs),
(1011,184,o),
(1014,190,o),
(1037,233,c),
(1031,234,o),
(1026,235,o),
(1022,235,cs),
(987,235,o),
(960,205,o),
(941,142,cs),
(934,118,o),
(929,106,o),
(923,96,cs),
(917,86,o),
(905,82,o),
(880,82,cs),
(823,82,o),
(660,88,o),
(573,93,cs),
(531,96,o),
(488,97,o),
(441,97,cs),
(319,97,o),
(236,86,o),
(137,58,c),
(93,-13,l)
);
},
{
closed = 1;
nodes = (
(499,1058,ls),
(531,1124,o),
(557,1147,o),
(599,1147,cs),
(623,1147,o),
(665,1143,o),
(761,1130,cs),
(877,1115,o),
(945,1109,o),
(1009,1109,cs),
(1099,1109,o),
(1174,1122,o),
(1242,1148,c),
(1312,1220,l),
(1245,1208,o),
(1177,1202,o),
(1107,1202,cs),
(1024,1202,o),
(942,1210,o),
(799,1232,cs),
(717,1245,o),
(667,1250,o),
(635,1250,cs),
(556,1250,o),
(519,1220,o),
(460,1104,cs),
(406,999,l),
(463,986,l)
);
}
);
vertWidth = 0;
width = 1009;
},
{
anchors = (
{
name = bottom;
pos = (528,0);
},
{
name = center;
pos = (650,655);
},
{
name = top;
pos = (702,1250);
}
);
layerId = m004;
shapes = (
{
closed = 1;
nodes = (
(191,55,l),
(883,917,ls),
(973,1029,o),
(1061,1133,o),
(1130,1194,c),
(1119,1240,l),
(1044,1240,o),
(969,1143,o),
(868,1019,cs),
(75,45,l),
(117,0,l)
);
},
{
closed = 1;
nodes = (
(134,0,o),
(156,0,o),
(226,0,cs),
(753,0,ls),
(906,0,o),
(966,33,o),
(988,129,cs),
(1000,184,o),
(1003,201,o),
(1010,233,c),
(1003,234,o),
(998,235,o),
(994,235,cs),
(959,235,o),
(946,205,o),
(938,142,cs),
(935,118,o),
(932,106,o),
(928,96,cs),
(924,86,o),
(912,78,o),
(887,78,cs),
(830,78,o),
(666,78,o),
(578,78,cs),
(536,78,o),
(493,78,o),
(446,78,cs),
(324,78,o),
(243,78,o),
(148,78,c),
(117,0,l)
);
},
{
closed = 1;
nodes = (
(334,1072,ls),
(355,1138,o),
(372,1143,o),
(418,1143,cs),
(442,1143,o),
(485,1143,o),
(583,1143,cs),
(702,1143,o),
(771,1143,o),
(835,1143,cs),
(925,1143,o),
(998,1143,o),
(1061,1143,c),
(1119,1240,l),
(1054,1240,o),
(987,1240,o),
(917,1240,cs),
(834,1240,o),
(750,1240,o),
(603,1240,cs),
(519,1240,o),
(468,1240,o),
(436,1240,cs),
(357,1240,o),
(326,1234,o),
(287,1118,cs),
(252,1013,l),
(311,1000,l)
);
}
);
vertWidth = 0;
width = 1057;
}
);
unicode = 90;
},
{
glyphname = uni01E4;
lastChange = "2023-08-15 19:46:00 +0000";
layers = (
{
layerId = "BF4E6768-4291-4940-AB0A-F00B8420ABE6";
shapes = (
{
closed = 1;
nodes = (
(1219,341,l),
(1226,388,l),
(688,353,l),
(681,306,l)
);
},
{
ref = G;
}
);
vertWidth = 0;
width = 1181;
},
{
layerId = "3718A98A-F41F-4673-9A8B-612E711D0E37";
shapes = (
{
closed = 1;
nodes = (
(1344,341,l),
(1351,408,l),
(813,373,l),
(806,306,l)
);
},
{
ref = G;
}
);
vertWidth = 0;
width = 1331;
},
{
layerId = m003;
shapes = (
{
closed = 1;
nodes = (
(1288,341,l),
(1303,388,l),
(759,353,l),
(744,306,l)
);
},
{
ref = G;
}
);
vertWidth = 0;
width = 1189;
},
{
layerId = m004;
shapes = (
{
closed = 1;
nodes = (
(1262,331,l),
(1269,398,l),
(731,363,l),
(724,296,l)
);
},
{
pos = (43,0);
ref = G;
}
);
vertWidth = 0;
width = 1230;
}
);
unicode = 484;
},
{
glyphname = uni0220;
lastChange = "2023-03-25 14:58:10 +0000";
layers = (
{
anchors = (
{
name = bottom;
pos = (734,-475);
},
{
name = top;
pos = (671,1235);
}
);
layerId = "BF4E6768-4291-4940-AB0A-F00B8420ABE6";
shapes = (
{
closed = 1;
nodes = (
(782,-475,l),
(998,967,ls),
(1023,1132,o),
(933,1235,o),
(811,1235,cs),
(641,1235,o),
(478,1060,o),
(247,9,c),
(292,0,l),
(527,1032,o),
(668,1182,o),
(793,1182,cs),
(864,1182,o),
(923,1110,o),
(904,982,cs),
(686,-475,l)
);
},
{
closed = 1;
nodes = (
(292,0,l),
(439,975,ls),
(465,1148,o),
(427,1235,o),
(326,1235,cs),
(257,1235,o),
(198,1175,o),
(171,1076,c),
(215,1067,l),
(232,1131,o),
(258,1164,o),
(289,1164,cs),
(340,1164,o),
(354,1108,o),
(334,979,cs),
(186,0,l)
);
}
);
vertWidth = 0;
width = 951;
},
{
anchors = (
{
name = bottom;
pos = (856,-475);
},
{
name = top;
pos = (733,1235);
}
);
layerId = "3718A98A-F41F-4673-9A8B-612E711D0E37";
shapes = (
{
closed = 1;
nodes = (
(970,-475,l),
(1186,967,ls),
(1209,1119,o),
(1066,1235,o),
(895,1235,cs),
(675,1235,o),
(471,954,o),
(376,9,c),
(421,0,l),
(512,847,o),
(714,1182,o),
(855,1182,cs),
(925,1182,o),
(977,1119,o),
(957,982,cs),
(739,-475,l)
);
},
{
closed = 1;
nodes = (
(421,0,l),
(567,975,ls),
(594,1153,o),
(544,1235,o),
(409,1235,cs),
(287,1235,o),
(199,1176,o),
(171,1076,c),
(215,1067,l),
(231,1131,o),
(259,1164,o),
(297,1164,cs),
(339,1164,o),
(347,1117,o),
(327,979,c),
(180,0,l)
);
}
);
vertWidth = 0;
width = 1139;
},
{
anchors = (
{
name = bottom;
pos = (660,-475);
},
{
name = top;
pos = (899,1235);
}
);
layerId = m003;
shapes = (
{
closed = 1;
nodes = (
(708,-475,l),
(1178,967,ls),
(1232,1132,o),
(1161,1235,o),
(1039,1235,cs),
(869,1235,o),
(675,1060,o),
(258,9,c),
(302,0,l),
(719,1032,o),
(886,1182,o),
(1011,1182,cs),
(1082,1182,o),
(1128,1110,o),
(1087,982,cs),
(612,-475,l)
);
},
{
closed = 1;
nodes = (
(302,0,l),
(621,975,ls),
(677,1148,o),
(655,1235,o),
(554,1235,cs),
(485,1235,o),
(415,1175,o),
(370,1076,c),
(413,1067,l),
(441,1131,o),
(473,1164,o),
(504,1164,cs),
(555,1164,o),
(559,1108,o),
(516,979,cs),
(196,0,l)
);
}
);
vertWidth = 0;
width = 959;
},
{
anchors = (
{
name = bottom;
pos = (802,-475);
},
{
name = top;
pos = (739,1235);
}
);
layerId = m004;
shapes = (
{
closed = 1;
nodes = (
(850,-475,l),
(1066,967,ls),
(1091,1132,o),
(1001,1235,o),
(879,1235,cs),
(632,1235,o),
(429,794,o),
(315,9,c),
(360,0,l),
(471,730,o),
(657,1162,o),
(861,1162,cs),
(932,1162,o),
(991,1110,o),
(972,982,cs),
(754,-475,l)
);
},
{
closed = 1;
nodes = (
(360,0,l),
(507,975,ls),
(533,1145,o),
(487,1235,o),
(374,1235,cs),
(288,1235,o),
(230,1185,o),
(179,1066,c),
(223,1057,l),
(262,1135,o),
(303,1174,o),
(347,1174,cs),
(404,1174,o),
(422,1110,o),
(402,979,cs),
(254,0,l)
);
}
);
vertWidth = 0;
width = 1063;
}
);
metricLeft = "=n";
metricRight = "=J";
unicode = 544;
},
{
glyphname = a;
kernLeft = K19;
kernRight = K24;
lastChange = "2023-08-25 11:24:28 +0000";
layers = (
{
anchors = (
{
name = bottom;
pos = (378,-10);
},
{
name = ogonek;
pos = (708,-10);
},
{
name = top;
pos = (491,824);
}
);
layerId = "BF4E6768-4291-4940-AB0A-F00B8420ABE6";
shapes = (
{
closed = 1;
nodes = (
(531,-10,o),
(626,125,o),
(655,383,c),
(604,344,l),
(577,146,o),
(510,43,o),
(407,43,cs),
(299,43,o),
(234,144,o),
(234,313,cs),
(234,573,o),
(344,771,o),
(489,771,cs),
(579,771,o),
(648,699,o),
(682,567,c),
(713,600,l),
(685,734,o),
(595,824,o),
(491,824,cs),
(282,824,o),
(118,600,o),
(118,314,cs),
(118,112,o),
(216,-10,o),
(378,-10,cs)
);
},
{
closed = 1;
nodes = (
(777,-10,o),
(836,50,o),
(863,149,c),
(819,158,l),
(802,94,o),
(776,61,o),
(745,61,cs),
(696,61,o),
(685,112,o),
(705,246,cs),
(789,814,l),
(723,814,l),
(652,674,l),
(590,250,ls),
(565,79,o),
(606,-10,o),
(708,-10,cs)
);
}
);
vertWidth = 0;
width = 851;
},
{
anchors = (
{
name = bottom;
pos = (400,-10);
},
{
name = ogonek;
pos = (821,-10);
},
{
name = top;
pos = (523,824);
}
);
layerId = "3718A98A-F41F-4673-9A8B-612E711D0E37";
shapes = (
{
closed = 1;
nodes = (
(584,-10,o),
(683,115,o),
(710,383,c),
(659,344,l),
(638,163,o),
(569,43,o),
(487,43,cs),
(407,43,o),
(349,168,o),
(349,342,cs),
(349,567,o),
(458,771,o),
(577,771,cs),
(645,771,o),
(712,686,o),
(737,567,c),
(768,600,l),
(740,748,o),
(657,824,o),
(523,824,cs),
(297,824,o),
(113,605,o),
(113,336,cs),
(113,122,o),
(222,-10,o),
(400,-10,cs)
);
},
{
closed = 1;
nodes = (
(936,-10,o),
(1009,43,o),
(1038,149,c),
(994,158,l),
(978,94,o),
(951,61,o),
(913,61,cs),
(869,61,o),
(861,115,o),
(880,246,cs),
(964,814,l),
(778,814,l),
(707,674,l),
(645,250,ls),
(620,78,o),
(680,-10,o),
(821,-10,cs)
);
}
);
vertWidth = 0;
width = 1026;
},
{
anchors = (
{
name = bottom;
pos = (379,-10);
},
{
name = ogonek;
pos = (709,-10);
},
{
name = top;
pos = (640,824);
}
);
layerId = m003;
shapes = (
{
closed = 1;
nodes = (
(532,-10,o),
(651,125,o),
(726,383,c),
(668,344,l),
(606,146,o),
(521,43,o),
(418,43,cs),
(310,43,o),
(262,144,o),
(292,313,cs),
(338,573,o),
(483,771,o),
(628,771,cs),
(718,771,o),
(774,699,o),
(785,567,c),
(822,600,l),
(818,734,o),
(744,824,o),
(640,824,cs),
(431,824,o),
(227,600,o),
(177,314,cs),
(141,112,o),
(217,-10,o),
(379,-10,cs)
);
},
{
closed = 1;
nodes = (
(778,-10,o),
(848,50,o),
(893,149,c),
(850,158,l),
(822,94,o),
(790,61,o),
(759,61,cs),
(710,61,o),
(708,112,o),
(752,246,cs),
(936,814,l),
(870,814,l),
(774,674,l),
(637,250,ls),
(582,79,o),
(607,-10,o),
(709,-10,cs)
);
}
);
vertWidth = 0;
width = 849;
},
{
anchors = (
{
name = bottom;
pos = (406,-10);
},
{
name = ogonek;
pos = (756,-10);
},
{
name = top;
pos = (519,824);
}
);
layerId = m004;
shapes = (
{
closed = 1;
nodes = (
(559,-10,o),
(654,125,o),
(683,383,c),
(636,365,l),
(609,167,o),
(538,63,o),
(435,63,cs),
(327,63,o),
(262,144,o),
(262,313,cs),
(262,573,o),
(372,751,o),
(517,751,cs),
(607,751,o),
(676,679,o),
(710,547,c),
(741,600,l),
(713,734,o),
(623,824,o),
(519,824,cs),
(310,824,o),
(146,600,o),
(146,314,cs),
(146,112,o),
(244,-10,o),
(406,-10,cs)
);
},
{
closed = 1;
nodes = (
(825,-10,o),
(904,50,o),
(931,149,c),
(887,178,l),
(870,114,o),
(824,71,o),
(793,71,cs),
(744,71,o),
(713,112,o),
(733,246,cs),
(817,814,l),
(751,814,l),
(680,674,l),
(618,250,ls),
(593,79,o),
(654,-10,o),
(756,-10,cs)
);
}
);
vertWidth = 0;
width = 929;
}
);
metricLeft = "=o";
metricRight = "=dotlessi";
unicode = 97;
},
{
glyphname = ae;
kernLeft = K19;
kernRight = "e-shape";
lastChange = "2023-08-23 20:06:52 +0000";
layers = (
{
anchors = (
{
name = bottom;
pos = (624,-10);
},
{
name = top;
pos = (713,824);
}
);
layerId = "BF4E6768-4291-4940-AB0A-F00B8420ABE6";
shapes = (
{
closed = 1;
nodes = (
(453,-10,o),
(517,65,o),
(643,323,c),
(610,354,l),
(500,116,o),
(445,43,o),
(378,43,cs),
(298,43,o),
(234,162,o),
(234,313,cs),
(234,573,o),
(344,771,o),
(489,771,cs),
(579,771,o),
(648,699,o),
(682,567,c),
(713,600,l),
(685,734,o),
(595,824,o),
(491,824,cs),
(282,824,o),
(118,600,o),
(118,314,cs),
(118,119,o),
(214,-10,o),
(360,-10,cs)
);
},
{
pos = (491,0);
ref = e;
}
);
vertWidth = 0;
width = 1133;
},
{
anchors = (
{
name = bottom;
pos = (663,-14);
},
{
name = top;
pos = (738,824);
}
);
layerId = "3718A98A-F41F-4673-9A8B-612E711D0E37";
shapes = (
{
closed = 1;
nodes = (
(509,-10,o),
(574,62,o),
(695,323,c),
(663,354,l),
(558,117,o),
(506,43,o),
(445,43,cs),
(384,43,o),
(347,145,o),
(347,313,cs),
(347,554,o),
(446,771,o),
(555,771,cs),
(642,771,o),
(699,706,o),
(735,567,c),
(765,600,l),
(734,745,o),
(655,824,o),
(541,824,cs),
(292,824,o),
(111,609,o),
(111,314,cs),
(111,102,o),
(209,-10,o),
(395,-10,cs)
);
},
{
pos = (551,0);
ref = e;
}
);
vertWidth = 0;
width = 1338;
},
{
anchors = (
{
name = bottom;
pos = (626,-10);
},
{
name = top;
pos = (862,824);
}
);
layerId = m003;
shapes = (
{
closed = 1;
nodes = (
(455,-10,o),
(532,65,o),
(704,323,c),
(676,354,l),
(524,116,o),
(456,43,o),
(389,43,cs),
(309,43,o),
(266,162,o),
(293,313,cs),
(339,573,o),
(484,771,o),
(629,771,cs),
(719,771,o),
(775,699,o),
(786,567,c),
(823,600,l),
(818,734,o),
(744,824,o),
(640,824,cs),
(431,824,o),
(228,600,o),
(177,314,cs),
(143,119,o),
(216,-10,o),
(362,-10,cs)
);
},
{
pos = (491,0);
ref = e;
}
);
vertWidth = 0;
width = 1135;
},
{
anchors = (
{
name = bottom;
pos = (652,-10);
},
{
name = top;
pos = (741,824);
}
);
layerId = m004;
shapes = (
{
closed = 1;
nodes = (
(481,-10,o),
(555,55,o),
(681,313,c),
(638,354,l),
(528,116,o),
(473,63,o),
(406,63,cs),
(326,63,o),
(262,162,o),
(262,313,cs),
(262,573,o),
(372,751,o),
(517,751,cs),
(607,751,o),
(666,689,o),
(700,557,c),
(741,600,l),
(713,734,o),
(623,824,o),
(519,824,cs),
(310,824,o),
(146,600,o),
(146,314,cs),
(146,119,o),
(242,-10,o),
(388,-10,cs)
);
},
{
pos = (491,0);
ref = e;
}
);
vertWidth = 0;
width = 1191;
}
);
metricLeft = "=a";
metricRight = "=e";
unicode = 230;
},
{
glyphname = b;
kernLeft = K24;
kernRight = K29;
lastChange = "2023-08-23 20:08:08 +0000";
layers = (
{
anchors = (
{
name = bottom;
pos = (474,-10);
},
{
name = center;
pos = (280,732);
},
{
name = top;
pos = (337,1310);
}
);
layerId = "BF4E6768-4291-4940-AB0A-F00B8420ABE6";
shapes = (
{
closed = 1;
nodes = (
(683,-10,o),
(847,214,o),
(847,500,cs),
(847,702,o),
(749,824,o),
(587,824,cs),
(435,824,o),
(340,689,o),
(311,431,c),
(362,466,l),
(389,665,o),
(456,771,o),
(558,771,cs),
(666,771,o),
(731,670,o),
(731,501,cs),
(731,241,o),
(621,43,o),
(476,43,cs),
(386,43,o),
(317,115,o),
(283,247,c),
(252,214,l),
(280,80,o),
(370,-10,o),
(474,-10,cs)
);
},
{
closed = 1;
nodes = (
(247,0,l),
(313,140,l),
(450,1050,ls),
(476,1223,o),
(438,1310,o),
(337,1310,cs),
(268,1310,o),
(209,1250,o),
(182,1151,c),
(226,1142,l),
(243,1206,o),
(269,1239,o),
(300,1239,cs),
(351,1239,o),
(364,1183,o),
(345,1054,cs),
(186,0,l)
);
}
);
vertWidth = 0;
width = 842;
},
{
anchors = (
{
name = bottom;
pos = (626,-10);
},
{
name = center;
pos = (242,654);
},
{
name = top;
pos = (400,1310);
}
);
layerId = "3718A98A-F41F-4673-9A8B-612E711D0E37";
shapes = (
{
closed = 1;
nodes = (
(852,-10,o),
(1036,209,o),
(1036,478,cs),
(1036,693,o),
(928,824,o),
(750,824,cs),
(569,824,o),
(474,704,o),
(439,431,c),
(490,470,l),
(518,656,o),
(584,771,o),
(662,771,cs),
(742,771,o),
(800,646,o),
(800,472,cs),
(800,247,o),
(691,43,o),
(572,43,cs),
(504,43,o),
(437,128,o),
(412,247,c),
(382,214,l),
(410,66,o),
(493,-10,o),
(626,-10,cs)
);
},
{
closed = 1;
nodes = (
(367,0,l),
(440,140,l),
(578,1050,ls),
(604,1220,o),
(542,1310,o),
(400,1310,cs),
(284,1310,o),
(211,1257,o),
(182,1151,c),
(226,1142,l),
(242,1206,o),
(270,1239,o),
(308,1239,cs),
(351,1239,o),
(359,1190,o),
(338,1054,cs),
(178,0,l)
);
}
);
vertWidth = 0;
width = 1028;
},
{
anchors = (
{
name = bottom;
pos = (483,-10);
},
{
name = center;
pos = (419,732);
},
{
name = top;
pos = (578,1310);
}
);
layerId = m003;
shapes = (
{
closed = 1;
nodes = (
(692,-10,o),
(895,214,o),
(946,500,cs),
(981,702,o),
(905,824,o),
(743,824,cs),
(591,824,o),
(472,689,o),
(397,431,c),
(455,466,l),
(517,665,o),
(602,771,o),
(704,771,cs),
(812,771,o),
(860,670,o),
(830,501,cs),
(784,241,o),
(639,43,o),
(494,43,cs),
(404,43,o),
(348,115,o),
(337,247,c),
(300,214,l),
(304,80,o),
(379,-10,o),
(483,-10,cs)
);
},
{
closed = 1;
nodes = (
(257,0,l),
(348,140,l),
(646,1050,ls),
(702,1223,o),
(679,1310,o),
(578,1310,cs),
(509,1310,o),
(440,1250,o),
(395,1151,c),
(438,1142,l),
(466,1206,o),
(498,1239,o),
(529,1239,cs),
(580,1239,o),
(583,1183,o),
(541,1054,cs),
(196,0,l)
);
}
);
vertWidth = 0;
width = 851;
},
{
anchors = (
{
name = bottom;
pos = (524,-10);
},
{
name = center;
pos = (330,732);
},
{
name = top;
pos = (367,1310);
}
);
layerId = m004;
shapes = (
{
closed = 1;
nodes = (
(733,-10,o),
(897,214,o),
(897,500,cs),
(897,702,o),
(799,824,o),
(637,824,cs),
(485,824,o),
(390,689,o),
(361,431,c),
(412,466,l),
(439,665,o),
(506,751,o),
(618,751,cs),
(716,751,o),
(781,670,o),
(781,501,cs),
(781,241,o),
(671,63,o),
(536,63,cs),
(436,63,o),
(367,115,o),
(333,247,c),
(302,214,l),
(330,80,o),
(420,-10,o),
(524,-10,cs)
);
},
{
closed = 1;
nodes = (
(297,0,l),
(363,140,l),
(500,1050,ls),
(526,1223,o),
(468,1310,o),
(367,1310,cs),
(298,1310,o),
(219,1250,o),
(172,1140,c),
(216,1111,l),
(253,1186,o),
(299,1229,o),
(340,1229,cs),
(381,1229,o),
(414,1183,o),
(395,1054,cs),
(236,0,l)
);
}
);
vertWidth = 0;
width = 919;
}
);
metricRight = "=o";
unicode = 98;
},
{
glyphname = c;
kernLeft = K19;
kernRight = K25;
lastChange = "2023-08-28 20:52:41 +0000";
layers = (
{
anchors = (
{
name = bottom;
pos = (388,-10);
},
{
name = top;
pos = (501,824);
}
);
layerId = "BF4E6768-4291-4940-AB0A-F00B8420ABE6";
shapes = (
{
closed = 1;
nodes = (
(486,-10,o),
(566,34,o),
(620,117,c),
(587,141,l),
(539,75,o),
(482,43,o),
(417,43,cs),
(306,43,o),
(234,149,o),
(234,313,cs),
(234,567,o),
(353,771,o),
(501,771,cs),
(578,771,o),
(635,719,o),
(660,625,c),
(685,638,o),
(696,657,o),
(696,685,cs),
(696,763,o),
(610,824,o),
(501,824,cs),
(289,824,o),
(118,596,o),
(118,314,cs),
(118,116,o),
(223,-10,o),
(388,-10,cs)
);
}
);
vertWidth = 0;
width = 623;
},
{
anchors = (
{
name = bottom;
pos = (440,-10);
},
{
name = top;
pos = (553,824);
}
);
layerId = "3718A98A-F41F-4673-9A8B-612E711D0E37";
shapes = (
{
closed = 1;
nodes = (
(556,-10,o),
(629,28,o),
(687,117,c),
(654,141,l),
(617,81,o),
(561,43,o),
(509,43,cs),
(420,43,o),
(346,173,o),
(346,328,cs),
(346,552,o),
(463,771,o),
(583,771,cs),
(642,771,o),
(710,702,o),
(727,625,c),
(752,638,o),
(763,657,o),
(763,685,cs),
(763,764,o),
(673,824,o),
(553,824,cs),
(298,824,o),
(110,608,o),
(110,314,cs),
(110,107,o),
(229,-10,o),
(440,-10,cs)
);
}
);
vertWidth = 0;
width = 690;
},
{
anchors = (
{
name = bottom;
pos = (389,-10);
},
{
name = top;
pos = (650,824);
}
);
layerId = m003;
shapes = (
{
closed = 1;
nodes = (
(487,-10,o),
(575,34,o),
(644,117,c),
(615,141,l),
(555,75,o),
(493,43,o),
(428,43,cs),
(317,43,o),
(264,149,o),
(292,313,cs),
(337,567,o),
(492,771,o),
(640,771,cs),
(717,771,o),
(765,719,o),
(773,625,c),
(801,638,o),
(815,657,o),
(820,685,cs),
(834,763,o),
(759,824,o),
(650,824,cs),
(438,824,o),
(226,596,o),
(177,314,cs),
(142,116,o),
(224,-10,o),
(389,-10,cs)
);
}
);
vertWidth = 0;
width = 623;
},
{
anchors = (
{
name = bottom;
pos = (415,-10);
},
{
name = top;
pos = (528,824);
}
);
layerId = m004;
shapes = (
{
closed = 1;
nodes = (
(509,-10,o),
(611,44,o),
(665,177,c),
(612,201,l),
(574,95,o),
(499,63,o),
(432,63,cs),
(323,63,o),
(261,138,o),
(261,313,cs),
(261,556,o),
(368,751,o),
(528,751,cs),
(593,751,o),
(662,719,o),
(687,625,c),
(712,638,o),
(723,657,o),
(723,685,cs),
(723,763,o),
(637,824,o),
(528,824,cs),
(316,824,o),
(145,590,o),
(145,314,cs),
(145,110,o),
(246,-10,o),
(403,-10,cs)
);
}
);
vertWidth = 0;
width = 689;
}
);
metricLeft = "=o";
unicode = 99;
},
{
glyphname = d;
kernLeft = K19;
kernRight = K30;
lastChange = "2023-03-25 13:35:51 +0000";
layers = (
{
anchors = (
{
name = bottom;
pos = (378,-10);
},
{
name = center;
pos = (802,621);
},
{
name = top;
pos = (682,1300);
},
{
name = topright;
pos = (974,1345);
}
);
layerId = "BF4E6768-4291-4940-AB0A-F00B8420ABE6";
shapes = (
{
closed = 1;
nodes = (
(530,-10,o),
(624,124,o),
(653,383,c),
(602,344,l),
(575,144,o),
(509,43,o),
(407,43,cs),
(299,43,o),
(234,144,o),
(234,313,cs),
(234,573,o),
(344,771,o),
(489,771,cs),
(579,771,o),
(648,699,o),
(682,567,c),
(713,600,l),
(685,734,o),
(595,824,o),
(491,824,cs),
(282,824,o),
(118,600,o),
(118,314,cs),
(118,112,o),
(216,-10,o),
(378,-10,cs)
);
},
{
closed = 1;
nodes = (
(770,-10,o),
(828,49,o),
(855,149,c),
(811,158,l),
(794,94,o),
(768,61,o),
(737,61,cs),
(686,61,o),
(673,117,o),
(692,246,cs),
(851,1300,l),
(745,1300,l),
(587,250,ls),
(561,77,o),
(600,-10,o),
(701,-10,cs)
);
}
);
vertWidth = 0;
width = 843;
},
{
anchors = (
{
name = bottom;
pos = (400,-10);
},
{
name = center;
pos = (1028,686);
},
{
name = top;
pos = (923,1300);
},
{
name = topright;
pos = (1157,1384);
}
);
layerId = "3718A98A-F41F-4673-9A8B-612E711D0E37";
shapes = (
{
closed = 1;
nodes = (
(585,-10,o),
(685,116,o),
(711,383,c),
(660,344,l),
(639,164,o),
(570,43,o),
(487,43,cs),
(407,43,o),
(349,168,o),
(349,342,cs),
(349,567,o),
(458,771,o),
(577,771,cs),
(645,771,o),
(712,686,o),
(737,567,c),
(768,600,l),
(739,748,o),
(656,824,o),
(523,824,cs),
(297,824,o),
(113,606,o),
(113,336,cs),
(113,122,o),
(223,-10,o),
(400,-10,cs)
);
},
{
closed = 1;
nodes = (
(940,-10,o),
(1013,43,o),
(1042,149,c),
(998,158,l),
(982,94,o),
(955,61,o),
(917,61,cs),
(874,61,o),
(867,111,o),
(887,246,cs),
(1041,1300,l),
(800,1300,l),
(647,250,ls),
(622,79,o),
(683,-10,o),
(824,-10,cs)
);
}
);
vertWidth = 0;
width = 1030;
},
{
anchors = (
{
name = bottom;
pos = (380,-10);
},
{
name = center;
pos = (915,621);
},
{
name = top;
pos = (914,1300);
},
{
name = topright;
pos = (1214,1345);
}
);
layerId = m003;
shapes = (
{
closed = 1;
nodes = (
(532,-10,o),
(649,124,o),
(724,383,c),
(666,344,l),
(604,144,o),
(520,43,o),
(418,43,cs),
(310,43,o),
(263,144,o),
(292,313,cs),
(338,573,o),
(483,771,o),
(628,771,cs),
(718,771,o),
(775,699,o),
(785,567,c),
(822,600,l),
(818,734,o),
(744,824,o),
(640,824,cs),
(431,824,o),
(227,600,o),
(177,314,cs),
(141,112,o),
(218,-10,o),
(380,-10,cs)
);
},
{
closed = 1;
nodes = (
(772,-10,o),
(840,49,o),
(885,149,c),
(842,158,l),
(814,94,o),
(782,61,o),
(751,61,cs),
(700,61,o),
(697,117,o),
(739,246,cs),
(1083,1300,l),
(977,1300,l),
(634,250,ls),
(578,77,o),
(602,-10,o),
(703,-10,cs)
);
}
);
vertWidth = 0;
width = 835;
},
{
anchors = (
{
name = bottom;
pos = (406,-10);
},
{
name = center;
pos = (830,621);
},
{
name = top;
pos = (710,1300);
},
{
name = topright;
pos = (1002,1345);
}
);
layerId = m004;
shapes = (
{
closed = 1;
nodes = (
(558,-10,o),
(652,124,o),
(681,383,c),
(632,365,l),
(605,165,o),
(537,63,o),
(435,63,cs),
(327,63,o),
(262,144,o),
(262,313,cs),
(262,573,o),
(372,751,o),
(517,751,cs),
(607,751,o),
(676,679,o),
(710,547,c),
(741,600,l),
(713,734,o),
(623,824,o),
(519,824,cs),
(310,824,o),
(146,600,o),
(146,314,cs),
(146,112,o),
(244,-10,o),
(406,-10,cs)
);
},
{
closed = 1;
nodes = (
(818,-10,o),
(896,49,o),
(943,159,c),
(899,188,l),
(862,114,o),
(816,71,o),
(775,71,cs),
(734,71,o),
(701,117,o),
(720,246,cs),
(879,1300,l),
(773,1300,l),
(615,250,ls),
(589,77,o),
(648,-10,o),
(749,-10,cs)
);
}
);
vertWidth = 0;
width = 935;
}
);
metricLeft = "=o";
metricRight = "=l";
unicode = 100;
},
{
glyphname = eth;
lastChange = "2023-03-25 12:12:28 +0000";
layers = (
{
anchors = (
{
name = bottom;
pos = (391,-10);
},
{
name = top;
pos = (571,1310);
}
);
layerId = "BF4E6768-4291-4940-AB0A-F00B8420ABE6";
shapes = (
{
closed = 1;
nodes = (
(629,-10,o),
(779,227,o),
(779,603,cs),
(779,974,o),
(589,1310,o),
(392,1310,cs),
(372,1310,o),
(357,1303,o),
(347,1288,c),
(569,1148,o),
(663,921,o),
(663,592,cs),
(663,246,o),
(568,43,o),
(406,43,cs),
(298,43,o),
(233,144,o),
(233,313,cs),
(233,572,o),
(345,771,o),
(490,771,c),
(490,797,o),
(476,806,o),
(439,806,cs),
(277,806,o),
(117,561,o),
(117,314,cs),
(117,118,o),
(225,-10,o),
(391,-10,cs)
);
},
{
closed = 1;
nodes = (
(410,947,l),
(712,1300,l),
(638,1300,l),
(342,947,l)
);
}
);
vertWidth = 0;
width = 778;
},
{
anchors = (
{
name = bottom;
pos = (504,-10);
},
{
name = top;
pos = (624,1310);
}
);
layerId = "3718A98A-F41F-4673-9A8B-612E711D0E37";
shapes = (
{
closed = 1;
nodes = (
(790,-10,o),
(1017,264,o),
(1017,665,cs),
(1017,975,o),
(827,1310,o),
(624,1310,cs),
(585,1310,o),
(564,1293,o),
(556,1273,c),
(714,1123,o),
(781,920,o),
(781,615,cs),
(781,310,o),
(659,43,o),
(520,43,cs),
(412,43,o),
(351,149,o),
(351,337,cs),
(351,577,o),
(466,771,o),
(608,771,c),
(608,792,o),
(580,806,o),
(537,806,cs),
(305,806,o),
(115,606,o),
(115,361,cs),
(115,133,o),
(264,-10,o),
(504,-10,cs)
);
},
{
closed = 1;
nodes = (
(603,947,l),
(905,1300,l),
(831,1300,l),
(535,947,l)
);
}
);
vertWidth = 0;
width = 1009;
},
{
anchors = (
{
name = bottom;
pos = (393,-10);
},
{
name = top;
pos = (805,1310);
}
);
layerId = m003;
shapes = (
{
closed = 1;
nodes = (
(631,-10,o),
(822,227,o),
(889,603,cs),
(954,974,o),
(823,1310,o),
(626,1310,cs),
(606,1310,o),
(590,1303,o),
(577,1288,c),
(775,1148,o),
(829,921,o),
(771,592,cs),
(710,246,o),
(579,43,o),
(417,43,cs),
(309,43,o),
(262,144,o),
(292,313,cs),
(337,572,o),
(484,771,o),
(629,771,c),
(634,797,o),
(622,806,o),
(585,806,cs),
(423,806,o),
(219,561,o),
(176,314,cs),
(141,118,o),
(227,-10,o),
(393,-10,cs)
);
},
{
closed = 1;
nodes = (
(580,947,l),
(945,1300,l),
(871,1300,l),
(512,947,l)
);
}
);
vertWidth = 0;
width = 778;
},
{
anchors = (
{
name = bottom;
pos = (419,-10);
},
{
name = top;
pos = (599,1310);
}
);
layerId = m004;
shapes = (
{
closed = 1;
nodes = (
(657,-10,o),
(807,227,o),
(807,603,cs),
(807,974,o),
(617,1310,o),
(420,1310,cs),
(400,1310,o),
(375,1293,o),
(375,1268,c),
(597,1128,o),
(691,921,o),
(691,592,cs),
(691,246,o),
(596,63,o),
(434,63,cs),
(326,63,o),
(261,144,o),
(261,313,cs),
(261,572,o),
(373,751,o),
(518,751,c),
(518,792,o),
(504,806,o),
(467,806,cs),
(305,806,o),
(145,561,o),
(145,314,cs),
(145,118,o),
(253,-10,o),
(419,-10,cs)
);
},
{
closed = 1;
nodes = (
(458,947,l),
(760,1300,l),
(666,1300,l),
(370,947,l)
);
}
);
vertWidth = 0;
width = 839;
}
);
metricLeft = "=o";
metricRight = "=O";
unicode = 240;
},
{
glyphname = e;
kernLeft = K19;
kernRight = "e-shape";
lastChange = "2023-08-23 20:06:52 +0000";
layers = (
{
anchors = (
{
name = bottom;
pos = (387,-10);
},
{
name = ogonek;
pos = (387,-10);
},
{
name = top;
pos = (524,824);
}
);
layerId = "BF4E6768-4291-4940-AB0A-F00B8420ABE6";
shapes = (
{
closed = 1;
nodes = (
(487,-10,o),
(565,34,o),
(619,117,c),
(586,141,l),
(538,75,o),
(483,43,o),
(416,43,cs),
(307,43,o),
(233,124,o),
(233,313,cs),
(233,545,o),
(350,771,o),
(507,771,cs),
(561,771,o),
(597,742,o),
(597,683,cs),
(597,597,o),
(519,511,o),
(295,441,cs),
(158,398,l),
(168,355,l),
(314,401,ls),
(550,476,o),
(703,568,o),
(703,686,cs),
(703,767,o),
(631,824,o),
(524,824,cs),
(308,824,o),
(117,593,o),
(117,314,cs),
(117,106,o),
(224,-10,o),
(387,-10,cs)
);
}
);
vertWidth = 0;
width = 642;
},
{
anchors = (
{
name = bottom;
pos = (478,-12);
},
{
name = ogonek;
pos = (731,161);
},
{
name = top;
pos = (573,824);
}
);
layerId = "3718A98A-F41F-4673-9A8B-612E711D0E37";
shapes = (
{
closed = 1;
nodes = (
(607,-12,o),
(693,28,o),
(764,137,c),
(731,161,l),
(686,95,o),
(614,42,o),
(533,42,cs),
(397,42,o),
(348,187,o),
(348,330,cs),
(348,552,o),
(465,771,o),
(581,771,cs),
(642,771,o),
(667,710,o),
(667,662,cs),
(667,570,o),
(578,501,o),
(290,411,cs),
(153,368,l),
(163,325,l),
(309,371,ls),
(762,514,o),
(848,595,o),
(848,680,cs),
(848,802,o),
(672,824,o),
(575,824,cs),
(225,824,o),
(112,536,o),
(112,333,cs),
(112,99,o),
(261,-12,o),
(478,-12,cs)
);
}
);
vertWidth = 0;
width = 787;
},
{
anchors = (
{
name = bottom;
pos = (391,-10);
},
{
name = ogonek;
pos = (621,141);
},
{
name = top;
pos = (676,824);
}
);
layerId = m003;
shapes = (
{
closed = 1;
nodes = (
(489,-10,o),
(575,34,o),
(643,117,c),
(615,141,l),
(555,75,o),
(494,43,o),
(427,43,cs),
(318,43,o),
(259,124,o),
(292,313,cs),
(333,545,o),
(490,771,o),
(647,771,cs),
(701,771,o),
(732,742,o),
(721,683,cs),
(706,597,o),
(613,511,o),
(377,441,cs),
(232,398,l),
(234,355,l),
(388,401,ls),
(638,476,o),
(807,568,o),
(828,686,cs),
(842,767,o),
(780,824,o),
(673,824,cs),
(457,824,o),
(225,593,o),
(176,314,cs),
(139,106,o),
(226,-10,o),
(389,-10,cs)
);
}
);
vertWidth = 0;
width = 644;
},
{
anchors = (
{
name = bottom;
pos = (414,-10);
},
{
name = ogonek;
pos = (414,-10);
},
{
name = top;
pos = (551,824);
}
);
layerId = m004;
shapes = (
{
closed = 1;
nodes = (
(515,-10,o),
(632,44,o),
(686,177,c),
(633,201,l),
(595,95,o),
(511,63,o),
(444,63,cs),
(335,63,o),
(261,124,o),
(261,310,cs),
(261,545,o),
(378,771,o),
(535,771,cs),
(589,771,o),
(625,742,o),
(625,683,cs),
(625,597,o),
(565,457,o),
(323,381,cs),
(186,338,l),
(196,275,l),
(342,321,ls),
(596,401,o),
(731,568,o),
(731,686,cs),
(731,767,o),
(659,824,o),
(552,824,cs),
(336,824,o),
(145,593,o),
(145,314,cs),
(145,106,o),
(252,-10,o),
(415,-10,cs)
);
}
);
vertWidth = 0;
width = 700;
}
);
metricLeft = "=o";
unicode = 101;
},
{
glyphname = f;
lastChange = "2023-08-18 08:36:28 +0000";
layers = (
{
anchors = (
{
name = bottom;
pos = (65,-486);
},
{
name = top;
pos = (555,1300);
}
);
layerId = "BF4E6768-4291-4940-AB0A-F00B8420ABE6";
shapes = (
{
closed = 1;
nodes = (
(5,-318,l),
(5,-378,o),
(22,-415,o),
(50,-415,cs),
(91,-415,o),
(121,-355,o),
(140,-230,cs),
(330,1040,ls),
(356,1212,o),
(435,1300,o),
(555,1300,cs),
(642,1300,o),
(687,1237,o),
(698,1149,c),
(652,1141,l),
(648,1194,o),
(626,1243,o),
(570,1243,cs),
(496,1243,o),
(455,1165,o),
(437,1044,cs),
(247,-226,ls),
(222,-390,o),
(155,-486,o),
(65,-486,cs),
(1,-486,o),
(-42,-423,o),
(-42,-327,c)
);
},
{
closed = 1;
nodes = (
(119,855,o),
(205,873,o),
(389,873,cs),
(448,873,o),
(521,869,o),
(574,864,c),
(570,844,o),
(565,826,o),
(553,804,c),
(492,810,o),
(423,814,o),
(358,814,cs),
(267,814,o),
(181,808,o),
(119,796,c)
);
}
);
vertWidth = 0;
width = 468;
},
{
anchors = (
{
name = bottom;
pos = (135,-486);
},
{
name = top;
pos = (633,1300);
}
);
layerId = "3718A98A-F41F-4673-9A8B-612E711D0E37";
shapes = (
{
closed = 1;
nodes = (
(8,-318,l),
(8,-376,o),
(28,-415,o),
(57,-415,cs),
(96,-415,o),
(121,-359,o),
(140,-230,cs),
(312,912,ls),
(353,1187,o),
(435,1300,o),
(633,1300,cs),
(750,1300,o),
(830,1247,o),
(839,1141,c),
(792,1132,l),
(783,1192,o),
(745,1229,o),
(702,1229,cs),
(618,1229,o),
(573,1149,o),
(538,916,cs),
(367,-226,ls),
(340,-408,o),
(271,-486,o),
(139,-486,cs),
(14,-486,o),
(-40,-438,o),
(-40,-327,c)
);
},
{
closed = 1;
nodes = (
(119,855,o),
(223,883,o),
(449,883,cs),
(526,883,o),
(623,879,o),
(694,874,c),
(690,844,o),
(685,826,o),
(673,804,c),
(592,810,o),
(502,814,o),
(418,814,cs),
(304,814,o),
(197,808,o),
(119,796,c)
);
}
);
vertWidth = 0;
width = 588;
},
{
anchors = (
{
name = bottom;
pos = (-14,-486);
},
{
name = top;
pos = (791,1300);
}
);
layerId = m003;
shapes = (
{
closed = 1;
nodes = (
(-44,-318,l),
(-55,-378,o),
(-44,-415,o),
(-16,-415,cs),
(25,-415,o),
(65,-355,o),
(106,-230,cs),
(520,1040,ls),
(576,1212,o),
(671,1300,o),
(791,1300,cs),
(878,1300,o),
(912,1237,o),
(907,1149,c),
(860,1141,l),
(865,1194,o),
(852,1243,o),
(796,1243,cs),
(722,1243,o),
(667,1165,o),
(628,1044,cs),
(214,-226,ls),
(160,-390,o),
(76,-486,o),
(-14,-486,cs),
(-78,-486,o),
(-110,-423,o),
(-93,-327,c)
);
},
{
closed = 1;
nodes = (
(276,855,o),
(366,873,o),
(550,873,cs),
(609,873,o),
(681,869,o),
(733,864,c),
(726,844,o),
(717,826,o),
(701,804,c),
(642,810,o),
(573,814,o),
(508,814,cs),
(417,814,o),
(330,808,o),
(266,796,c)
);
}
);
vertWidth = 0;
width = 468;
},
{
anchors = (
{
name = bottom;
pos = (45,-486);
},
{
name = top;
pos = (565,1300);
}
);
background = {
shapes = (
{
closed = 1;
nodes = (
(-55,-288,l),
(-33,-365,o),
(-1,-405,o),
(40,-405,cs),
(89,-405,o),
(123,-346,o),
(140,-230,cs),
(322,987,ls),
(354,1200,o),
(478,1300,o),
(588,1300,cs),
(675,1300,o),
(753,1237,o),
(768,1118,c),
(713,1084,l),
(697,1177,o),
(647,1226,o),
(593,1226,cs),
(526,1226,o),
(453,1151,o),
(429,992,cs),
(247,-226,ls),
(223,-390,o),
(147,-486,o),
(45,-486,cs),
(-33,-486,o),
(-80,-431,o),
(-102,-317,c)
);
}
);
};
layerId = m004;
shapes = (
{
closed = 1;
nodes = (
(-55,-288,l),
(-33,-365,o),
(-1,-405,o),
(40,-405,cs),
(89,-405,o),
(123,-346,o),
(140,-230,cs),
(330,1040,ls),
(356,1212,o),
(445,1300,o),
(565,1300,cs),
(652,1300,o),
(707,1227,o),
(718,1139,c),
(672,1121,l),
(668,1174,o),
(636,1223,o),
(580,1223,cs),
(506,1223,o),
(455,1165,o),
(437,1044,cs),
(247,-226,ls),
(222,-391,o),
(148,-486,o),
(45,-486,cs),
(-32,-486,o),
(-80,-431,o),
(-102,-317,c)
);
},
{
closed = 1;
nodes = (
(127,850,o),
(150,888,o),
(215,888,cs),
(428,888,o),
(521,888,o),
(574,888,c),
(567,864,o),
(561,836,o),
(553,814,c),
(492,814,o),
(423,814,o),
(358,814,cs),
(267,814,o),
(184,814,o),
(122,814,c)
);
}
);
vertWidth = 0;
width = 442;
}
);
unicode = 102;
},
{
glyphname = g;
kernLeft = K26;
kernRight = K31;
lastChange = "2023-03-25 15:11:44 +0000";
layers = (
{
anchors = (
{
name = bottom;
pos = (299,-486);
},
{
name = top;
pos = (461,824);
}
);
layerId = "BF4E6768-4291-4940-AB0A-F00B8420ABE6";
shapes = (
{
closed = 1;
nodes = (
(533,-486,o),
(699,-378,o),
(699,-226,cs),
(699,-101,o),
(598,-34,o),
(370,-6,cs),
(283,5,o),
(256,13,o),
(256,31,cs),
(256,62,o),
(288,86,o),
(390,134,cs),
(623,244,o),
(724,365,o),
(724,536,cs),
(724,712,o),
(622,824,o),
(461,824,cs),
(263,824,o),
(116,664,o),
(116,448,cs),
(116,316,o),
(187,227,o),
(292,227,cs),
(330,227,o),
(358,249,o),
(358,279,c),
(269,279,o),
(229,331,o),
(229,448,cs),
(229,618,o),
(336,769,o),
(455,769,cs),
(551,769,o),
(613,679,o),
(613,541,cs),
(613,366,o),
(535,262,o),
(332,165,cs),
(204,105,o),
(162,63,o),
(162,-5,cs),
(162,-67,o),
(210,-97,o),
(359,-126,cs),
(527,-160,o),
(584,-198,o),
(584,-277,cs),
(584,-369,o),
(463,-438,o),
(299,-438,cs),
(144,-438,o),
(37,-376,o),
(37,-286,cs),
(37,-211,o),
(80,-159,o),
(159,-141,c),
(159,-123,o),
(146,-114,o),
(117,-114,cs),
(35,-114,o),
(-51,-207,o),
(-51,-295,cs),
(-51,-412,o),
(84,-486,o),
(299,-486,cs)
);
},
{
closed = 1;
nodes = (
(878,640,o),
(901,672,o),
(901,720,cs),
(901,787,o),
(857,841,o),
(802,841,cs),
(741,841,o),
(651,772,o),
(599,686,c),
(622,668,l),
(660,732,o),
(728,787,o),
(769,787,cs),
(789,787,o),
(801,773,o),
(801,749,cs),
(801,726,o),
(791,715,o),
(791,693,cs),
(791,662,o),
(812,640,o),
(842,640,cs)
);
}
);
vertWidth = 0;
width = 813;
},
{
anchors = (
{
name = bottom;
pos = (389,-486);
},
{
name = top;
pos = (551,824);
}
);
layerId = "3718A98A-F41F-4673-9A8B-612E711D0E37";
shapes = (
{
closed = 1;
nodes = (
(701,-486,o),
(879,-395,o),
(879,-236,cs),
(879,-129,o),
(774,-58,o),
(562,-21,cs),
(434,1,o),
(391,21,o),
(391,57,cs),
(391,84,o),
(428,110,o),
(537,158,cs),
(790,271,o),
(904,388,o),
(904,536,cs),
(904,713,o),
(768,824,o),
(551,824,cs),
(299,824,o),
(116,666,o),
(116,448,cs),
(116,323,o),
(227,227,o),
(372,227,cs),
(438,227,o),
(478,247,o),
(478,279,c),
(389,279,o),
(349,331,o),
(349,448,cs),
(349,616,o),
(442,769,o),
(545,769,cs),
(624,769,o),
(673,673,o),
(673,520,cs),
(673,349,o),
(593,245,o),
(390,150,cs),
(262,90,o),
(222,51,o),
(222,-14,cs),
(222,-100,o),
(289,-149,o),
(466,-192,cs),
(590,-222,o),
(644,-260,o),
(644,-317,cs),
(644,-389,o),
(540,-438,o),
(389,-438,cs),
(240,-438,o),
(157,-384,o),
(157,-286,cs),
(157,-216,o),
(189,-165,o),
(249,-141,c),
(249,-122,o),
(234,-114,o),
(198,-114,cs),
(73,-114,o),
(-51,-204,o),
(-51,-295,cs),
(-51,-426,o),
(87,-486,o),
(389,-486,cs)
);
},
{
closed = 1;
nodes = (
(1058,640,o),
(1081,672,o),
(1081,720,cs),
(1081,787,o),
(1037,841,o),
(982,841,cs),
(921,841,o),
(831,772,o),
(779,686,c),
(802,668,l),
(840,732,o),
(908,787,o),
(949,787,cs),
(969,787,o),
(981,773,o),
(981,749,cs),
(981,726,o),
(971,715,o),
(971,693,cs),
(971,662,o),
(992,640,o),
(1022,640,cs)
);
}
);
vertWidth = 0;
width = 993;
},
{
anchors = (
{
name = bottom;
pos = (211,-486);
},
{
name = top;
pos = (604,824);
}
);
layerId = m003;
shapes = (
{
closed = 1;
nodes = (
(445,-486,o),
(630,-378,o),
(657,-226,cs),
(679,-101,o),
(590,-34,o),
(367,-6,cs),
(282,5,o),
(256,13,o),
(259,31,cs),
(265,62,o),
(301,86,o),
(411,134,cs),
(664,244,o),
(786,365,o),
(816,536,cs),
(847,712,o),
(765,824,o),
(604,824,cs),
(406,824,o),
(231,664,o),
(193,448,cs),
(169,316,o),
(225,227,o),
(330,227,cs),
(368,227,o),
(400,249,o),
(405,279,c),
(316,279,o),
(285,331,o),
(306,448,cs),
(336,618,o),
(469,769,o),
(588,769,cs),
(684,769,o),
(730,679,o),
(706,541,cs),
(675,366,o),
(579,262,o),
(359,165,cs),
(220,105,o),
(171,63,o),
(159,-5,cs),
(148,-67,o),
(191,-97,o),
(334,-126,cs),
(496,-160,o),
(547,-198,o),
(533,-277,cs),
(517,-369,o),
(383,-438,o),
(219,-438,cs),
(64,-438,o),
(-32,-376,o),
(-16,-286,cs),
(-3,-211,o),
(50,-159,o),
(132,-141,c),
(135,-123,o),
(124,-114,o),
(95,-114,cs),
(13,-114,o),
(-90,-207,o),
(-105,-295,cs),
(-126,-412,o),
(-4,-486,o),
(211,-486,cs)
);
},
{
closed = 1;
nodes = (
(989,640,o),
(1017,672,o),
(1026,720,cs),
(1037,787,o),
(1003,841,o),
(948,841,cs),
(887,841,o),
(785,772,o),
(718,686,c),
(737,668,l),
(787,732,o),
(864,787,o),
(905,787,cs),
(925,787,o),
(935,773,o),
(931,749,cs),
(927,726,o),
(915,715,o),
(911,693,cs),
(905,662,o),
(923,640,o),
(953,640,cs)
);
}
);
vertWidth = 0;
width = 813;
},
{
anchors = (
{
name = bottom;
pos = (295,-486);
},
{
name = top;
pos = (457,824);
}
);
layerId = m004;
shapes = (
{
closed = 1;
nodes = (
(529,-486,o),
(695,-378,o),
(695,-226,cs),
(695,-101,o),
(594,-34,o),
(366,-6,cs),
(279,5,o),
(252,13,o),
(252,31,cs),
(252,49,o),
(284,66,o),
(386,114,cs),
(619,224,o),
(720,365,o),
(720,536,cs),
(720,712,o),
(618,824,o),
(457,824,cs),
(259,824,o),
(116,684,o),
(116,468,cs),
(116,346,o),
(180,274,o),
(266,274,cs),
(304,274,o),
(332,303,o),
(332,333,c),
(266,333,o),
(229,361,o),
(229,468,cs),
(229,638,o),
(332,749,o),
(451,749,cs),
(547,749,o),
(609,679,o),
(609,541,cs),
(609,366,o),
(531,262,o),
(328,165,cs),
(200,105,o),
(158,63,o),
(158,-5,cs),
(158,-67,o),
(206,-97,o),
(355,-126,cs),
(523,-160,o),
(580,-198,o),
(580,-277,cs),
(580,-369,o),
(459,-418,o),
(295,-418,cs),
(140,-418,o),
(33,-386,o),
(33,-306,cs),
(33,-246,o),
(92,-212,o),
(171,-194,c),
(171,-176,o),
(158,-157,o),
(119,-157,cs),
(37,-157,o),
(-55,-223,o),
(-55,-315,cs),
(-55,-427,o),
(80,-486,o),
(295,-486,cs)
);
},
{
closed = 1;
nodes = (
(914,700,o),
(937,732,o),
(937,780,cs),
(937,847,o),
(898,911,o),
(818,911,cs),
(744,911,o),
(663,814,o),
(575,696,c),
(618,668,l),
(692,764,o),
(764,847,o),
(805,847,cs),
(825,847,o),
(837,833,o),
(837,809,cs),
(837,786,o),
(827,775,o),
(827,753,cs),
(827,722,o),
(848,700,o),
(878,700,cs)
);
}
);
vertWidth = 0;
width = 817;
}
);
unicode = 103;
},
{
glyphname = h;
kernLeft = K24;
kernRight = K24;
lastChange = "2023-03-25 13:35:51 +0000";
layers = (
{
anchors = (
{
name = bottom;
pos = (499,0);
},
{
name = center;
pos = (232,678);
},
{
name = top;
pos = (337,1310);
}
);
layerId = "BF4E6768-4291-4940-AB0A-F00B8420ABE6";
shapes = (
{
closed = 1;
nodes = (
(882,-10,o),
(941,50,o),
(968,149,c),
(924,158,l),
(907,94,o),
(881,61,o),
(850,61,cs),
(801,61,o),
(790,112,o),
(810,246,cs),
(857,556,ls),
(881,713,o),
(807,824,o),
(680,824,cs),
(510,824,o),
(417,649,o),
(248,9,c),
(293,0,l),
(466,621,o),
(537,771,o),
(662,771,cs),
(733,771,o),
(762,699,o),
(743,571,cs),
(695,250,ls),
(670,80,o),
(710,-10,o),
(813,-10,cs)
);
},
{
closed = 1;
nodes = (
(293,0,l),
(450,1050,ls),
(476,1223,o),
(438,1310,o),
(337,1310,cs),
(268,1310,o),
(209,1250,o),
(182,1151,c),
(227,1142,l),
(244,1206,o),
(270,1239,o),
(301,1239,cs),
(351,1239,o),
(364,1184,o),
(345,1054,cs),
(187,0,l)
);
}
);
vertWidth = 0;
width = 956;
},
{
anchors = (
{
name = bottom;
pos = (601,0);
},
{
name = center;
pos = (242,688);
},
{
name = top;
pos = (400,1310);
}
);
layerId = "3718A98A-F41F-4673-9A8B-612E711D0E37";
shapes = (
{
closed = 1;
nodes = (
(1041,-10,o),
(1109,40,o),
(1139,149,c),
(1095,158,l),
(1078,94,o),
(1052,61,o),
(1021,61,cs),
(972,61,o),
(961,112,o),
(981,246,cs),
(1027,556,ls),
(1050,711,o),
(945,824,o),
(777,824,cs),
(589,824,o),
(491,626,o),
(373,9,c),
(419,0,l),
(545,568,o),
(629,771,o),
(737,771,cs),
(803,771,o),
(816,723,o),
(793,571,cs),
(745,250,ls),
(719,75,o),
(777,-10,o),
(923,-10,cs)
);
},
{
closed = 1;
nodes = (
(419,0,l),
(578,1050,ls),
(604,1220,o),
(542,1310,o),
(400,1310,cs),
(284,1310,o),
(211,1257,o),
(182,1151,c),
(226,1142,l),
(242,1206,o),
(269,1239,o),
(307,1239,cs),
(350,1239,o),
(358,1188,o),
(338,1054,cs),
(178,0,l)
);
}
);
vertWidth = 0;
width = 1127;
},
{
anchors = (
{
name = bottom;
pos = (509,0);
},
{
name = center;
pos = (362,678);
},
{
name = top;
pos = (578,1310);
}
);
layerId = m003;
shapes = (
{
closed = 1;
nodes = (
(891,-10,o),
(960,50,o),
(1005,149,c),
(962,158,l),
(934,94,o),
(902,61,o),
(871,61,cs),
(822,61,o),
(820,112,o),
(864,246,cs),
(965,556,ls),
(1017,713,o),
(963,824,o),
(836,824,cs),
(666,824,o),
(542,649,o),
(260,9,c),
(303,0,l),
(586,621,o),
(683,771,o),
(808,771,cs),
(879,771,o),
(896,699,o),
(854,571,cs),
(749,250,ls),
(694,80,o),
(719,-10,o),
(822,-10,cs)
);
},
{
closed = 1;
nodes = (
(303,0,l),
(646,1050,ls),
(702,1223,o),
(679,1310,o),
(578,1310,cs),
(509,1310,o),
(440,1250,o),
(395,1151,c),
(439,1142,l),
(467,1206,o),
(499,1239,o),
(530,1239,cs),
(580,1239,o),
(583,1184,o),
(541,1054,cs),
(197,0,l)
);
}
);
vertWidth = 0;
width = 959;
},
{
anchors = (
{
name = bottom;
pos = (550,0);
},
{
name = center;
pos = (283,678);
},
{
name = top;
pos = (368,1310);
}
);
layerId = m004;
shapes = (
{
closed = 1;
nodes = (
(953,-10,o),
(1032,50,o),
(1079,159,c),
(1035,188,l),
(998,114,o),
(952,71,o),
(911,71,cs),
(872,71,o),
(841,112,o),
(861,246,cs),
(908,556,ls),
(932,713,o),
(838,824,o),
(711,824,cs),
(541,824,o),
(388,649,o),
(299,9,c),
(344,0,l),
(437,621,o),
(568,751,o),
(693,751,cs),
(764,751,o),
(813,699,o),
(794,571,cs),
(746,250,ls),
(721,80,o),
(781,-10,o),
(884,-10,cs)
);
},
{
closed = 1;
nodes = (
(344,0,l),
(501,1050,ls),
(527,1223,o),
(469,1310,o),
(368,1310,cs),
(299,1310,o),
(220,1250,o),
(173,1141,c),
(218,1112,l),
(255,1186,o),
(301,1209,o),
(342,1209,cs),
(382,1209,o),
(415,1184,o),
(396,1054,cs),
(238,0,l)
);
}
);
vertWidth = 0;
width = 1075;
}
);
metricLeft = "=b";
metricRight = "=n";
unicode = 104;
},
{
glyphname = dotlessi;
kernLeft = "stright_border-base2xheight";
lastChange = "2023-08-23 20:47:59 +0000";
layers = (
{
anchors = (
{
name = bottom;
pos = (250,-10);
},
{
name = ogonek;
pos = (250,-10);
},
{
name = top;
pos = (273,814);
}
);
layerId = "BF4E6768-4291-4940-AB0A-F00B8420ABE6";
shapes = (
{
closed = 1;
nodes = (
(319,-10,o),
(378,50,o),
(405,149,c),
(361,158,l),
(344,94,o),
(318,61,o),
(287,61,cs),
(236,61,o),
(222,117,o),
(242,246,cs),
(328,814,l),
(222,814,l),
(137,250,ls),
(111,77,o),
(149,-10,o),
(250,-10,cs)
);
}
);
vertWidth = 0;
width = 393;
},
{
anchors = (
{
name = bottom;
pos = (325,-10);
},
{
name = ogonek;
pos = (325,-10);
},
{
name = top;
pos = (345,814);
}
);
layerId = "3718A98A-F41F-4673-9A8B-612E711D0E37";
shapes = (
{
closed = 1;
nodes = (
(437,-10,o),
(502,39,o),
(532,149,c),
(488,158,l),
(472,94,o),
(445,61,o),
(407,61,cs),
(364,61,o),
(357,111,o),
(377,246,cs),
(463,814,l),
(222,814,l),
(137,250,ls),
(112,84,o),
(179,-10,o),
(325,-10,cs)
);
}
);
vertWidth = 0;
width = 520;
},
{
anchors = (
{
name = bottom;
pos = (254,-10);
},
{
name = ogonek;
pos = (254,-10);
},
{
name = top;
pos = (423,814);
}
);
layerId = m003;
shapes = (
{
closed = 1;
nodes = (
(323,-10,o),
(393,50,o),
(437,149,c),
(395,158,l),
(367,94,o),
(335,61,o),
(304,61,cs),
(253,61,o),
(249,117,o),
(291,246,cs),
(478,814,l),
(372,814,l),
(187,250,ls),
(131,77,o),
(153,-10,o),
(254,-10,cs)
);
}
);
vertWidth = 0;
width = 393;
},
{
anchors = (
{
name = bottom;
pos = (314,-10);
},
{
name = ogonek;
pos = (314,-10);
},
{
name = top;
pos = (317,814);
}
);
layerId = m004;
shapes = (
{
closed = 1;
nodes = (
(383,-10,o),
(462,50,o),
(509,159,c),
(465,188,l),
(428,114,o),
(382,71,o),
(341,71,cs),
(300,71,o),
(266,117,o),
(286,246,cs),
(372,814,l),
(266,814,l),
(181,250,ls),
(155,77,o),
(213,-10,o),
(314,-10,cs)
);
}
);
vertWidth = 0;
width = 505;
}
);
unicode = 305;
},
{
glyphname = dotlessj;
kernLeft = K22;
lastChange = "2023-03-25 13:38:18 +0000";
layers = (
{
anchors = (
{
name = bottom;
pos = (-14,-486);
},
{
name = top;
pos = (271,814);
}
);
layerId = "BF4E6768-4291-4940-AB0A-F00B8420ABE6";
shapes = (
{
closed = 1;
nodes = (
(74,-486,o),
(138,-393,o),
(163,-226,cs),
(319,814,l),
(223,814,l),
(66,-230,ls),
(48,-350,o),
(14,-415,o),
(-29,-415,cs),
(-57,-415,o),
(-74,-378,o),
(-74,-318,c),
(-121,-327,l),
(-121,-423,o),
(-78,-486,o),
(-14,-486,cs)
);
}
);
vertWidth = 0;
width = 297;
},
{
anchors = (
{
name = bottom;
pos = (149,-486);
},
{
name = top;
pos = (418,814);
}
);
layerId = "3718A98A-F41F-4673-9A8B-612E711D0E37";
shapes = (
{
closed = 1;
nodes = (
(288,-486,o),
(354,-413,o),
(382,-226,cs),
(538,814,l),
(307,814,l),
(150,-230,ls),
(132,-353,o),
(104,-415,o),
(67,-415,cs),
(36,-415,o),
(18,-380,o),
(18,-318,c),
(-30,-327,l),
(-30,-433,o),
(29,-486,o),
(149,-486,cs)
);
}
);
vertWidth = 0;
width = 516;
},
{
anchors = (
{
name = bottom;
pos = (-102,-486);
},
{
name = top;
pos = (413,814);
}
);
layerId = m003;
shapes = (
{
closed = 1;
nodes = (
(-14,-486,o),
(67,-393,o),
(121,-226,cs),
(461,814,l),
(365,814,l),
(24,-230,ls),
(-16,-350,o),
(-61,-415,o),
(-104,-415,cs),
(-132,-415,o),
(-143,-378,o),
(-132,-318,c),
(-181,-327,l),
(-198,-423,o),
(-166,-486,o),
(-102,-486,cs)
);
}
);
vertWidth = 0;
width = 297;
},
{
anchors = (
{
name = bottom;
pos = (-16,-486);
},
{
name = top;
pos = (239,814);
}
);
layerId = m004;
shapes = (
{
closed = 1;
nodes = (
(87,-486,o),
(157,-393,o),
(183,-226,cs),
(339,814,l),
(243,814,l),
(86,-230,ls),
(68,-345,o),
(32,-405,o),
(-18,-405,cs),
(-59,-405,o),
(-91,-365,o),
(-113,-288,c),
(-161,-317,l),
(-139,-431,o),
(-91,-486,o),
(-14,-486,cs)
);
}
);
vertWidth = 0;
width = 357;
}
);
unicode = 567;
},
{
glyphname = k;
kernLeft = K24;
kernRight = K34;
lastChange = "2023-08-23 20:18:40 +0000";
layers = (
{
anchors = (
{
name = bottom;
pos = (453,0);
},
{
name = top;
pos = (337,1310);
}
);
layerId = "BF4E6768-4291-4940-AB0A-F00B8420ABE6";
shapes = (
{
closed = 1;
nodes = (
(293,0,l),
(450,1050,ls),
(475,1218,o),
(434,1310,o),
(337,1310,cs),
(268,1310,o),
(209,1250,o),
(182,1151,c),
(227,1142,l),
(244,1206,o),
(270,1239,o),
(301,1239,cs),
(348,1239,o),
(363,1173,o),
(345,1054,cs),
(187,0,l)
);
},
{
ref = "_k-part";
}
);
vertWidth = 0;
width = 844;
},
{
anchors = (
{
name = bottom;
pos = (558,0);
},
{
name = top;
pos = (420,1310);
}
);
layerId = "3718A98A-F41F-4673-9A8B-612E711D0E37";
shapes = (
{
closed = 1;
nodes = (
(419,0,l),
(578,1050,ls),
(606,1232,o),
(559,1310,o),
(420,1310,cs),
(298,1310,o),
(210,1251,o),
(182,1151,c),
(226,1142,l),
(242,1206,o),
(269,1239,o),
(307,1239,cs),
(350,1239,o),
(358,1189,o),
(338,1054,cs),
(178,0,l)
);
},
{
ref = "_k-part";
}
);
vertWidth = 0;
width = 1026;
},
{
anchors = (
{
name = bottom;
pos = (463,0);
},
{
name = top;
pos = (578,1310);
}
);
layerId = m003;
shapes = (
{
closed = 1;
nodes = (
(303,0,l),
(646,1050,ls),
(700,1218,o),
(675,1310,o),
(578,1310,cs),
(509,1310,o),
(440,1250,o),
(395,1151,c),
(439,1142,l),
(467,1206,o),
(499,1239,o),
(530,1239,cs),
(577,1239,o),
(580,1173,o),
(541,1054,cs),
(197,0,l)
);
},
{
ref = "_k-part";
}
);
vertWidth = 0;
width = 844;
},
{
anchors = (
{
name = bottom;
pos = (504,0);
},
{
name = top;
pos = (368,1310);
}
);
layerId = m004;
shapes = (
{
closed = 1;
nodes = (
(344,0,l),
(501,1050,ls),
(526,1218,o),
(465,1310,o),
(368,1310,cs),
(299,1310,o),
(220,1250,o),
(173,1141,c),
(218,1112,l),
(255,1186,o),
(301,1229,o),
(342,1229,cs),
(379,1229,o),
(414,1173,o),
(396,1054,cs),
(238,0,l)
);
},
{
ref = "_k-part";
}
);
vertWidth = 0;
width = 922;
}
);
metricLeft = "=b";
unicode = 107;
},
{
glyphname = kgreenlandic;
kernRight = K33;
lastChange = "2023-03-24 13:05:41 +0000";
layers = (
{
anchors = (
{
name = bottom;
pos = (408,0);
},
{
name = top;
pos = (548,834);
}
);
layerId = "BF4E6768-4291-4940-AB0A-F00B8420ABE6";
shapes = (
{
closed = 1;
nodes = (
(296,-10,o),
(349,125,o),
(438,715,cs),
(454,821,l),
(352,808,l),
(267,265,o),
(215,91,o),
(109,3,c),
(121,-6,o),
(134,-10,o),
(154,-10,cs)
);
},
{
closed = 1;
nodes = (
(752,0,l),
(453,476,l),
(373,390,l),
(629,0,l)
);
},
{
closed = 1;
nodes = (
(211,753,o),
(259,759,o),
(360,759,cs),
(390,759,o),
(424,759,o),
(438,759,c),
(454,821,l),
(430,824,o),
(409,825,o),
(376,825,cs),
(311,825,o),
(263,821,o),
(231,813,cs),
(191,803,o),
(167,778,o),
(165,743,c)
);
},
{
closed = 1;
nodes = (
(420,400,o),
(462,430,o),
(605,563,cs),
(874,814,l),
(758,814,l),
(744,764,o),
(705,728,o),
(595,627,cs),
(493,534,o),
(430,476,o),
(349,404,c),
(356,402,o),
(367,400,o),
(374,400,cs)
);
}
);
vertWidth = 0;
width = 762;
},
{
anchors = (
{
name = bottom;
pos = (493,0);
},
{
name = top;
pos = (706,822);
}
);
layerId = "3718A98A-F41F-4673-9A8B-612E711D0E37";
shapes = (
{
closed = 1;
nodes = (
(381,-10,o),
(473,135,o),
(525,487,cs),
(574,821,l),
(352,808,l),
(267,263,o),
(215,91,o),
(109,3,c),
(144,-6,o),
(177,-10,o),
(208,-10,cs)
);
},
{
closed = 1;
nodes = (
(962,0,l),
(680,494,l),
(493,390,l),
(720,0,l)
);
},
{
closed = 1;
nodes = (
(210,753,o),
(306,759,o),
(410,759,cs),
(440,759,o),
(544,759,o),
(558,759,c),
(574,821,l),
(548,823,o),
(454,825,o),
(376,825,cs),
(311,825,o),
(263,821,o),
(231,813,cs),
(191,803,o),
(167,778,o),
(165,743,c)
);
},
{
closed = 1;
nodes = (
(587,391,o),
(668,427,o),
(747,500,cs),
(1084,814,l),
(958,814,l),
(904,719,o),
(840,660,o),
(747,573,cs),
(648,482,o),
(572,437,o),
(478,395,c),
(486,393,o),
(497,391,o),
(503,391,cs)
);
}
);
vertWidth = 0;
width = 972;
},
{
anchors = (
{
name = bottom;
pos = (415,0);
},
{
name = top;
pos = (702,834);
}
);
layerId = m003;
shapes = (
{
closed = 1;
nodes = (
(301,-10,o),
(378,125,o),
(571,715,cs),
(606,821,l),
(502,808,l),
(321,265,o),
(238,91,o),
(117,3,c),
(127,-6,o),
(139,-10,o),
(159,-10,cs)
);
},
{
closed = 1;
nodes = (
(759,0,l),
(544,476,l),
(449,390,l),
(636,0,l)
);
},
{
closed = 1;
nodes = (
(351,753,o),
(400,759,o),
(501,759,cs),
(531,759,o),
(565,759,o),
(579,759,c),
(606,821,l),
(582,824,o),
(562,825,o),
(529,825,cs),
(464,825,o),
(415,821,o),
(382,813,cs),
(340,803,o),
(311,778,o),
(303,743,c)
);
},
{
closed = 1;
nodes = (
(498,400,o),
(545,430,o),
(711,563,cs),
(1025,814,l),
(909,814,l),
(886,764,o),
(841,728,o),
(713,627,cs),
(594,534,o),
(521,476,o),
(427,404,c),
(434,402,o),
(445,400,o),
(452,400,cs)
);
}
);
vertWidth = 0;
width = 769;
},
{
anchors = (
{
name = bottom;
pos = (432,0);
},
{
name = top;
pos = (572,834);
}
);
layerId = m004;
shapes = (
{
closed = 1;
nodes = (
(360,-10,o),
(374,125,o),
(462,715,cs),
(478,823,l),
(376,808,l),
(291,265,o),
(257,91,o),
(173,3,c),
(185,-6,o),
(198,-10,o),
(218,-10,cs)
);
},
{
closed = 1;
nodes = (
(776,0,l),
(477,476,l),
(397,390,l),
(653,0,l)
);
},
{
closed = 1;
nodes = (
(235,751,o),
(283,751,o),
(384,751,cs),
(414,751,o),
(448,751,o),
(462,751,c),
(478,823,l),
(454,823,o),
(433,823,o),
(400,823,cs),
(335,823,o),
(289,820,o),
(255,813,cs),
(207,803,o),
(191,778,o),
(189,751,c)
);
},
{
closed = 1;
nodes = (
(444,400,o),
(486,430,o),
(629,563,cs),
(898,814,l),
(782,814,l),
(768,764,o),
(729,728,o),
(619,627,cs),
(517,534,o),
(454,476,o),
(373,404,c),
(380,402,o),
(391,400,o),
(398,400,cs)
);
}
);
vertWidth = 0;
width = 790;
}
);
unicode = 312;
},
{
glyphname = l;
kernLeft = "stright_border-base2accender";
kernRight = K30;
lastChange = "2023-08-23 20:39:57 +0000";
layers = (
{
anchors = (
{
name = bottom;
pos = (251,-10);
},
{
name = center;
pos = (468,669);
},
{
name = top;
pos = (344,1300);
},
{
name = topleft;
pos = (194,1300);
},
{
name = topright;
pos = (554,1345);
}
);
layerId = "BF4E6768-4291-4940-AB0A-F00B8420ABE6";
shapes = (
{
closed = 1;
nodes = (
(320,-10,o),
(378,49,o),
(405,149,c),
(361,158,l),
(344,94,o),
(318,61,o),
(287,61,cs),
(236,61,o),
(223,117,o),
(242,246,cs),
(401,1300,l),
(295,1300,l),
(137,250,ls),
(111,77,o),
(150,-10,o),
(251,-10,cs)
);
}
);
vertWidth = 0;
width = 393;
},
{
anchors = (
{
name = bottom;
pos = (314,-10);
},
{
name = center;
pos = (611,733);
},
{
name = top;
pos = (412,1300);
},
{
name = topleft;
pos = (194,1300);
},
{
name = topright;
pos = (682,1384);
}
);
layerId = "3718A98A-F41F-4673-9A8B-612E711D0E37";
shapes = (
{
closed = 1;
nodes = (
(430,-10,o),
(503,43,o),
(532,149,c),
(488,158,l),
(472,94,o),
(445,61,o),
(407,61,cs),
(364,61,o),
(357,111,o),
(377,246,cs),
(536,1300,l),
(295,1300,l),
(137,250,ls),
(111,79,o),
(173,-10,o),
(314,-10,cs)
);
}
);
vertWidth = 0;
width = 520;
},
{
anchors = (
{
name = bottom;
pos = (261,-10);
},
{
name = center;
pos = (597,669);
},
{
name = top;
pos = (584,1300);
},
{
name = topleft;
pos = (435,1300);
},
{
name = topright;
pos = (802,1345);
}
);
layerId = m003;
shapes = (
{
closed = 1;
nodes = (
(330,-10,o),
(398,49,o),
(443,149,c),
(400,158,l),
(372,94,o),
(340,61,o),
(309,61,cs),
(258,61,o),
(255,117,o),
(297,246,cs),
(641,1300,l),
(535,1300,l),
(192,250,ls),
(136,77,o),
(160,-10,o),
(261,-10,cs)
);
}
);
vertWidth = 0;
width = 393;
},
{
anchors = (
{
name = bottom;
pos = (315,-10);
},
{
name = center;
pos = (512,669);
},
{
name = top;
pos = (388,1300);
},
{
name = topleft;
pos = (194,1300);
},
{
name = topright;
pos = (598,1345);
}
);
layerId = m004;
shapes = (
{
closed = 1;
nodes = (
(384,-10,o),
(462,49,o),
(509,159,c),
(465,188,l),
(428,114,o),
(382,71,o),
(341,71,cs),
(300,71,o),
(267,117,o),
(286,246,cs),
(445,1300,l),
(339,1300,l),
(181,250,ls),
(155,77,o),
(214,-10,o),
(315,-10,cs)
);
}
);
vertWidth = 0;
width = 501;
}
);
unicode = 108;
},
{
glyphname = lslash;
lastChange = "2023-03-25 13:24:30 +0000";
layers = (
{
layerId = "BF4E6768-4291-4940-AB0A-F00B8420ABE6";
shapes = (
{
closed = 1;
nodes = (
(463,784,l),
(437,824,l),
(42,476,l),
(68,436,l)
);
},
{
ref = l;
}
);
vertWidth = 0;
width = 393;
},
{
layerId = "3718A98A-F41F-4673-9A8B-612E711D0E37";
shapes = (
{
closed = 1;
nodes = (
(573,791,l),
(537,852,l),
(52,489,l),
(88,428,l)
);
},
{
ref = l;
}
);
vertWidth = 0;
width = 520;
},
{
layerId = m003;
shapes = (
{
closed = 1;
nodes = (
(604,784,l),
(585,824,l),
(129,476,l),
(148,436,l)
);
},
{
ref = l;
}
);
vertWidth = 0;
width = 393;
},
{
layerId = m004;
shapes = (
{
closed = 1;
nodes = (
(490,744,l),
(464,784,l),
(69,516,l),
(95,476,l)
);
},
{
pos = (-13,0);
ref = l;
}
);
vertWidth = 0;
width = 371;
}
);
unicode = 322;
},
{
glyphname = m;
kernLeft = K20;
kernRight = K24;
lastChange = "2023-03-25 13:35:51 +0000";
layers = (
{
anchors = (
{
name = bottom;
pos = (714,0);
},
{
name = top;
pos = (822,824);
}
);
layerId = "BF4E6768-4291-4940-AB0A-F00B8420ABE6";
shapes = (
{
closed = 1;
nodes = (
(1354,-10,o),
(1413,50,o),
(1440,149,c),
(1396,158,l),
(1379,94,o),
(1353,61,o),
(1322,61,cs),
(1273,61,o),
(1262,112,o),
(1282,246,cs),
(1329,556,ls),
(1355,730,o),
(1295,824,o),
(1157,824,cs),
(987,824,o),
(894,649,o),
(725,9,c),
(770,0,l),
(943,621,o),
(1014,771,o),
(1139,771,cs),
(1210,771,o),
(1235,704,o),
(1215,571,cs),
(1167,250,ls),
(1142,80,o),
(1182,-10,o),
(1285,-10,cs)
);
},
{
closed = 1;
nodes = (
(292,0,l),
(377,564,ls),
(403,737,o),
(365,824,o),
(264,824,cs),
(195,824,o),
(136,764,o),
(109,665,c),
(153,656,l),
(170,720,o),
(196,753,o),
(227,753,cs),
(278,753,o),
(292,697,o),
(272,568,cs),
(186,0,l)
);
},
{
closed = 1;
nodes = (
(461,609,o),
(540,771,o),
(666,771,cs),
(737,771,o),
(762,704,o),
(742,571,cs),
(655,0,l),
(770,0,l),
(856,556,ls),
(883,730,o),
(822,824,o),
(684,824,cs),
(513,824,o),
(414,639,o),
(247,9,c),
(292,0,l)
);
}
);
vertWidth = 0;
width = 1428;
},
{
anchors = (
{
name = bottom;
pos = (780,0);
},
{
name = top;
pos = (936,824);
}
);
layerId = "3718A98A-F41F-4673-9A8B-612E711D0E37";
shapes = (
{
closed = 1;
nodes = (
(1478,-10,o),
(1546,40,o),
(1576,149,c),
(1532,158,l),
(1515,94,o),
(1489,61,o),
(1458,61,cs),
(1409,61,o),
(1397,113,o),
(1418,246,cs),
(1467,556,ls),
(1494,730,o),
(1432,824,o),
(1256,824,cs),
(1032,824,o),
(985,672,o),
(856,9,c),
(901,0,l),
(1017,550,o),
(1071,771,o),
(1197,771,cs),
(1250,771,o),
(1258,724,o),
(1233,571,cs),
(1182,250,ls),
(1154,76,o),
(1213,-10,o),
(1360,-10,cs)
);
},
{
closed = 1;
nodes = (
(420,0,l),
(505,564,ls),
(531,734,o),
(469,824,o),
(327,824,cs),
(211,824,o),
(138,771,o),
(109,665,c),
(153,656,l),
(169,720,o),
(197,753,o),
(235,753,cs),
(278,753,o),
(285,703,o),
(265,568,cs),
(179,0,l)
);
},
{
closed = 1;
nodes = (
(538,557,o),
(593,771,o),
(713,771,cs),
(775,771,o),
(771,713,o),
(750,571,cs),
(665,0,l),
(901,0,l),
(984,556,ls),
(1010,730,o),
(949,824,o),
(772,824,cs),
(550,824,o),
(505,676,o),
(375,9,c),
(420,0,l)
);
}
);
vertWidth = 0;
width = 1564;
},
{
anchors = (
{
name = bottom;
pos = (721,0);
},
{
name = top;
pos = (975,824);
}
);
layerId = m003;
shapes = (
{
closed = 1;
nodes = (
(1359,-10,o),
(1429,50,o),
(1474,149,c),
(1431,158,l),
(1403,94,o),
(1371,61,o),
(1340,61,cs),
(1291,61,o),
(1289,112,o),
(1333,246,cs),
(1434,556,ls),
(1491,730,o),
(1448,824,o),
(1310,824,cs),
(1140,824,o),
(1016,649,o),
(734,9,c),
(777,0,l),
(1060,621,o),
(1157,771,o),
(1282,771,cs),
(1353,771,o),
(1366,704,o),
(1323,571,cs),
(1218,250,ls),
(1163,80,o),
(1187,-10,o),
(1290,-10,cs)
);
},
{
closed = 1;
nodes = (
(299,0,l),
(484,564,ls),
(540,737,o),
(518,824,o),
(417,824,cs),
(348,824,o),
(278,764,o),
(233,665,c),
(276,656,l),
(304,720,o),
(336,753,o),
(367,753,cs),
(418,753,o),
(422,697,o),
(379,568,cs),
(193,0,l)
);
},
{
closed = 1;
nodes = (
(576,609,o),
(683,771,o),
(809,771,cs),
(880,771,o),
(893,704,o),
(850,571,cs),
(662,0,l),
(777,0,l),
(961,556,ls),
(1019,730,o),
(975,824,o),
(837,824,cs),
(666,824,o),
(534,639,o),
(256,9,c),
(299,0,l)
);
}
);
vertWidth = 0;
width = 1428;
},
{
anchors = (
{
name = bottom;
pos = (783,0);
},
{
name = top;
pos = (891,824);
}
);
layerId = m004;
shapes = (
{
closed = 1;
nodes = (
(1443,-10,o),
(1522,50,o),
(1569,159,c),
(1525,188,l),
(1488,114,o),
(1442,71,o),
(1401,71,cs),
(1362,71,o),
(1331,112,o),
(1351,246,cs),
(1398,556,ls),
(1424,730,o),
(1344,824,o),
(1206,824,cs),
(1036,824,o),
(886,649,o),
(794,9,c),
(839,0,l),
(935,621,o),
(1063,751,o),
(1188,751,cs),
(1259,751,o),
(1304,704,o),
(1284,571,cs),
(1236,250,ls),
(1211,80,o),
(1271,-10,o),
(1374,-10,cs)
);
},
{
closed = 1;
nodes = (
(361,0,l),
(446,564,ls),
(472,737,o),
(414,824,o),
(313,824,cs),
(244,824,o),
(165,764,o),
(118,655,c),
(162,626,l),
(199,700,o),
(245,743,o),
(286,743,cs),
(327,743,o),
(361,697,o),
(341,568,cs),
(255,0,l)
);
},
{
closed = 1;
nodes = (
(453,609,o),
(589,751,o),
(715,751,cs),
(786,751,o),
(831,704,o),
(811,571,cs),
(724,0,l),
(839,0,l),
(925,556,ls),
(952,730,o),
(871,824,o),
(733,824,cs),
(562,824,o),
(406,639,o),
(316,9,c),
(361,0,l)
);
}
);
vertWidth = 0;
width = 1565;
}
);
metricLeft = "=n";
metricRight = "=n";
unicode = 109;
},
{
glyphname = n;
kernLeft = K20;
kernRight = K24;
lastChange = "2023-03-25 13:25:13 +0000";
layers = (
{
anchors = (
{
name = bottom;
pos = (521,0);
},
{
name = top;
pos = (679,824);
}
);
layerId = "BF4E6768-4291-4940-AB0A-F00B8420ABE6";
shapes = (
{
closed = 1;
nodes = (
(881,-10,o),
(940,50,o),
(967,149,c),
(923,158,l),
(906,94,o),
(880,61,o),
(849,61,cs),
(800,61,o),
(789,112,o),
(809,246,cs),
(856,556,ls),
(880,713,o),
(806,824,o),
(679,824,cs),
(509,824,o),
(416,649,o),
(247,9,c),
(292,0,l),
(465,621,o),
(536,771,o),
(661,771,cs),
(732,771,o),
(761,699,o),
(742,571,cs),
(694,250,ls),
(669,80,o),
(709,-10,o),
(812,-10,cs)
);
},
{
closed = 1;
nodes = (
(292,0,l),
(377,564,ls),
(403,737,o),
(365,824,o),
(264,824,cs),
(195,824,o),
(136,764,o),
(109,665,c),
(153,656,l),
(170,720,o),
(196,753,o),
(227,753,cs),
(278,753,o),
(292,697,o),
(272,568,cs),
(186,0,l)
);
}
);
vertWidth = 0;
width = 955;
},
{
anchors = (
{
name = bottom;
pos = (564,0);
},
{
name = top;
pos = (672,824);
}
);
layerId = "3718A98A-F41F-4673-9A8B-612E711D0E37";
shapes = (
{
closed = 1;
nodes = (
(1042,-10,o),
(1110,40,o),
(1140,149,c),
(1096,158,l),
(1079,94,o),
(1053,61,o),
(1022,61,cs),
(973,61,o),
(962,112,o),
(982,246,cs),
(1028,556,ls),
(1051,711,o),
(946,824,o),
(778,824,cs),
(590,824,o),
(492,626,o),
(374,9,c),
(420,0,l),
(546,568,o),
(630,771,o),
(738,771,cs),
(804,771,o),
(817,723,o),
(794,571,cs),
(746,250,ls),
(720,75,o),
(778,-10,o),
(924,-10,cs)
);
},
{
closed = 1;
nodes = (
(420,0,l),
(504,564,ls),
(529,734,o),
(468,824,o),
(326,824,cs),
(211,824,o),
(138,771,o),
(109,665,c),
(153,656,l),
(169,720,o),
(196,753,o),
(234,753,cs),
(276,753,o),
(284,706,o),
(264,568,c),
(178,0,l)
);
}
);
vertWidth = 0;
width = 1128;
},
{
anchors = (
{
name = bottom;
pos = (528,0);
},
{
name = top;
pos = (832,824);
}
);
layerId = m003;
shapes = (
{
closed = 1;
nodes = (
(886,-10,o),
(956,50,o),
(1001,149,c),
(958,158,l),
(930,94,o),
(898,61,o),
(867,61,cs),
(818,61,o),
(816,112,o),
(860,246,cs),
(961,556,ls),
(1013,713,o),
(959,824,o),
(832,824,cs),
(662,824,o),
(538,649,o),
(256,9,c),
(299,0,l),
(582,621,o),
(679,771,o),
(804,771,cs),
(875,771,o),
(891,699,o),
(850,571,cs),
(745,250,ls),
(690,80,o),
(714,-10,o),
(817,-10,cs)
);
},
{
closed = 1;
nodes = (
(299,0,l),
(484,564,ls),
(540,737,o),
(518,824,o),
(417,824,cs),
(348,824,o),
(278,764,o),
(233,665,c),
(276,656,l),
(304,720,o),
(336,753,o),
(367,753,cs),
(418,753,o),
(422,697,o),
(379,568,cs),
(193,0,l)
);
}
);
vertWidth = 0;
width = 955;
},
{
anchors = (
{
name = bottom;
pos = (584,0);
},
{
name = top;
pos = (722,824);
}
);
layerId = m004;
shapes = (
{
closed = 1;
nodes = (
(970,-10,o),
(1049,50,o),
(1096,159,c),
(1052,188,l),
(1015,114,o),
(969,71,o),
(928,71,cs),
(889,71,o),
(858,112,o),
(878,246,cs),
(925,556,ls),
(949,713,o),
(855,824,o),
(728,824,cs),
(558,824,o),
(406,649,o),
(316,9,c),
(361,0,l),
(455,621,o),
(585,751,o),
(710,751,cs),
(781,751,o),
(830,699,o),
(811,571,cs),
(763,250,ls),
(738,80,o),
(798,-10,o),
(901,-10,cs)
);
},
{
closed = 1;
nodes = (
(361,0,l),
(446,564,ls),
(472,737,o),
(414,824,o),
(313,824,cs),
(244,824,o),
(165,764,o),
(118,655,c),
(162,626,l),
(199,700,o),
(245,743,o),
(286,743,cs),
(327,743,o),
(361,697,o),
(341,568,cs),
(255,0,l)
);
}
);
vertWidth = 0;
width = 1092;
}
);
unicode = 110;
},
{
glyphname = eng;
lastChange = "2023-03-25 13:35:51 +0000";
layers = (
{
anchors = (
{
name = bottom;
pos = (542,-486);
},
{
name = top;
pos = (679,824);
}
);
layerId = "BF4E6768-4291-4940-AB0A-F00B8420ABE6";
shapes = (
{
closed = 1;
nodes = (
(630,-486,o),
(694,-393,o),
(719,-226,cs),
(836,556,ls),
(861,721,o),
(801,824,o),
(679,824,cs),
(509,824,o),
(416,649,o),
(247,9,c),
(292,0,l),
(465,621,o),
(536,771,o),
(661,771,cs),
(732,771,o),
(761,699,o),
(742,571,cs),
(622,-230,ls),
(604,-350,o),
(570,-415,o),
(527,-415,cs),
(499,-415,o),
(482,-378,o),
(482,-318,c),
(435,-327,l),
(435,-423,o),
(478,-486,o),
(542,-486,cs)
);
},
{
closed = 1;
nodes = (
(292,0,l),
(377,564,ls),
(403,737,o),
(365,824,o),
(264,824,cs),
(195,824,o),
(136,764,o),
(109,665,c),
(153,656,l),
(170,720,o),
(196,753,o),
(227,753,cs),
(278,753,o),
(292,697,o),
(272,568,cs),
(186,0,l)
);
}
);
vertWidth = 0;
width = 853;
},
{
anchors = (
{
name = bottom;
pos = (694,-486);
},
{
name = top;
pos = (633,824);
}
);
layerId = "3718A98A-F41F-4673-9A8B-612E711D0E37";
shapes = (
{
closed = 1;
nodes = (
(825,-486,o),
(878,-421,o),
(907,-226,cs),
(1024,556,ls),
(1047,708,o),
(934,824,o),
(763,824,cs),
(543,824,o),
(409,543,o),
(375,9,c),
(420,0,l),
(450,436,o),
(582,771,o),
(723,771,cs),
(793,771,o),
(816,708,o),
(795,571,cs),
(675,-230,ls),
(657,-352,o),
(629,-415,o),
(592,-415,cs),
(561,-415,o),
(543,-380,o),
(543,-318,c),
(495,-327,l),
(495,-428,o),
(568,-486,o),
(694,-486,cs)
);
},
{
closed = 1;
nodes = (
(420,0,l),
(505,564,ls),
(532,742,o),
(482,824,o),
(347,824,cs),
(225,824,o),
(137,765,o),
(109,665,c),
(153,656,l),
(169,720,o),
(197,753,o),
(235,753,cs),
(277,753,o),
(285,706,o),
(265,568,c),
(179,0,l)
);
}
);
vertWidth = 0;
width = 1041;
},
{
anchors = (
{
name = bottom;
pos = (464,-486);
},
{
name = top;
pos = (831,824);
}
);
layerId = m003;
shapes = (
{
closed = 1;
nodes = (
(552,-486,o),
(632,-393,o),
(686,-226,cs),
(941,556,ls),
(995,721,o),
(953,824,o),
(831,824,cs),
(661,824,o),
(538,649,o),
(256,9,c),
(299,0,l),
(582,621,o),
(679,771,o),
(804,771,cs),
(875,771,o),
(891,699,o),
(850,571,cs),
(589,-230,ls),
(549,-350,o),
(504,-415,o),
(461,-415,cs),
(433,-415,o),
(423,-378,o),
(433,-318,c),
(385,-327,l),
(368,-423,o),
(400,-486,o),
(464,-486,cs)
);
},
{
closed = 1;
nodes = (
(299,0,l),
(484,564,ls),
(540,737,o),
(517,824,o),
(416,824,cs),
(347,824,o),
(278,764,o),
(233,665,c),
(276,656,l),
(304,720,o),
(336,753,o),
(367,753,cs),
(418,753,o),
(422,697,o),
(379,568,cs),
(193,0,l)
);
}
);
vertWidth = 0;
width = 853;
},
{
anchors = (
{
name = bottom;
pos = (591,-486);
},
{
name = top;
pos = (748,824);
}
);
layerId = m004;
shapes = (
{
closed = 1;
nodes = (
(679,-486,o),
(763,-393,o),
(788,-226,cs),
(905,556,ls),
(930,721,o),
(870,824,o),
(748,824,cs),
(578,824,o),
(405,649,o),
(316,9,c),
(361,0,l),
(454,621,o),
(605,751,o),
(730,751,cs),
(801,751,o),
(830,699,o),
(811,571,cs),
(691,-230,ls),
(673,-350,o),
(619,-405,o),
(576,-405,cs),
(548,-405,o),
(511,-358,o),
(511,-298,c),
(464,-327,l),
(464,-423,o),
(527,-486,o),
(591,-486,cs)
);
},
{
closed = 1;
nodes = (
(361,0,l),
(446,564,ls),
(472,737,o),
(414,824,o),
(313,824,cs),
(244,824,o),
(165,764,o),
(118,655,c),
(162,626,l),
(199,700,o),
(245,743,o),
(286,743,cs),
(327,743,o),
(361,697,o),
(341,568,cs),
(255,0,l)
);
}
);
vertWidth = 0;
width = 966;
}
);
metricLeft = "=n";
unicode = 331;
},
{
glyphname = o;
kernLeft = K19;
kernRight = K25;
lastChange = "2023-03-24 13:05:41 +0000";
layers = (
{
anchors = (
{
name = bottom;
pos = (391,-10);
},
{
name = center;
pos = (455,424);
},
{
name = ogonek;
pos = (391,-10);
},
{
name = top;
pos = (505,824);
},
{
name = topright;
pos = (648,744);
}
);
layerId = "BF4E6768-4291-4940-AB0A-F00B8420ABE6";
shapes = (
{
closed = 1;
nodes = (
(604,-10,o),
(779,220,o),
(779,500,cs),
(779,696,o),
(671,824,o),
(505,824,cs),
(292,824,o),
(117,594,o),
(117,314,cs),
(117,118,o),
(225,-10,o),
(391,-10,cs)
);
},
{
closed = 1;
nodes = (
(298,43,o),
(233,144,o),
(233,313,cs),
(233,572,o),
(345,771,o),
(490,771,cs),
(598,771,o),
(663,670,o),
(663,501,cs),
(663,242,o),
(551,43,o),
(406,43,cs)
);
}
);
vertWidth = 0;
width = 774;
},
{
anchors = (
{
name = bottom;
pos = (511,-10);
},
{
name = center;
pos = (564,419);
},
{
name = ogonek;
pos = (511,-10);
},
{
name = top;
pos = (625,824);
},
{
name = topright;
pos = (849,743);
}
);
layerId = "3718A98A-F41F-4673-9A8B-612E711D0E37";
shapes = (
{
closed = 1;
nodes = (
(814,-10,o),
(1019,174,o),
(1019,446,cs),
(1019,695,o),
(885,824,o),
(625,824,cs),
(322,824,o),
(117,640,o),
(117,368,cs),
(117,119,o),
(251,-10,o),
(511,-10,cs)
);
},
{
closed = 1;
nodes = (
(418,43,o),
(353,144,o),
(353,313,cs),
(353,572,o),
(465,771,o),
(610,771,cs),
(718,771,o),
(783,670,o),
(783,501,cs),
(783,242,o),
(671,43,o),
(526,43,cs)
);
}
);
vertWidth = 0;
width = 1015;
},
{
anchors = (
{
name = bottom;
pos = (392,-10);
},
{
name = center;
pos = (533,424);
},
{
name = ogonek;
pos = (392,-10);
},
{
name = top;
pos = (654,824);
},
{
name = topright;
pos = (782,744);
}
);
layerId = m003;
shapes = (
{
closed = 1;
nodes = (
(605,-10,o),
(821,220,o),
(870,500,cs),
(905,696,o),
(820,824,o),
(654,824,cs),
(441,824,o),
(225,594,o),
(176,314,cs),
(141,118,o),
(226,-10,o),
(392,-10,cs)
);
},
{
closed = 1;
nodes = (
(309,43,o),
(262,144,o),
(291,313,cs),
(337,572,o),
(484,771,o),
(629,771,cs),
(737,771,o),
(784,670,o),
(755,501,cs),
(709,242,o),
(562,43,o),
(417,43,cs)
);
}
);
vertWidth = 0;
width = 774;
},
{
anchors = (
{
name = bottom;
pos = (419,-10);
},
{
name = center;
pos = (483,424);
},
{
name = ogonek;
pos = (419,-10);
},
{
name = top;
pos = (533,824);
},
{
name = topright;
pos = (676,744);
}
);
layerId = m004;
shapes = (
{
closed = 1;
nodes = (
(632,-10,o),
(807,220,o),
(807,500,cs),
(807,696,o),
(699,824,o),
(533,824,cs),
(320,824,o),
(145,594,o),
(145,314,cs),
(145,118,o),
(253,-10,o),
(419,-10,cs)
);
},
{
closed = 1;
nodes = (
(326,63,o),
(261,144,o),
(261,313,cs),
(261,572,o),
(373,751,o),
(518,751,cs),
(626,751,o),
(691,670,o),
(691,501,cs),
(691,242,o),
(579,63,o),
(434,63,cs)
);
}
);
vertWidth = 0;
width = 829;
}
);
unicode = 111;
},
{
glyphname = ohorn;
kernRight = K26;
lastChange = "2023-08-15 19:48:42 +0000";
layers = (
{
anchors = (
{
name = bottom;
pos = (391,-10);
},
{
name = top;
pos = (505,824);
}
);
layerId = "BF4E6768-4291-4940-AB0A-F00B8420ABE6";
shapes = (
{
closed = 1;
nodes = (
(564,789,l),
(564,824,l),
(505,824,l),
(505,789,l)
);
},
{
ref = o;
},
{
pos = (501,-487);
ref = uni031B;
}
);
vertWidth = 0;
width = 774;
},
{
anchors = (
{
name = bottom;
pos = (511,-10);
},
{
name = top;
pos = (625,824);
}
);
layerId = "3718A98A-F41F-4673-9A8B-612E711D0E37";
shapes = (
{
closed = 1;
nodes = (
(830,789,l),
(830,824,l),
(625,824,l),
(625,789,l)
);
},
{
ref = o;
},
{
pos = (755,-487);
ref = uni031B;
}
);
vertWidth = 0;
width = 1015;
},
{
anchors = (
{
name = bottom;
pos = (392,-10);
},
{
name = top;
pos = (654,824);
}
);
layerId = m003;
shapes = (
{
closed = 1;
nodes = (
(764,789,l),
(770,824,l),
(654,824,l),
(648,789,l)
);
},
{
ref = o;
},
{
pos = (411,-487);
ref = uni031B;
}
);
vertWidth = 0;
width = 774;
},
{
anchors = (
{
name = bottom;
pos = (391,-10);
},
{
name = top;
pos = (505,824);
}
);
layerId = m004;
shapes = (
{
closed = 1;
nodes = (
(564,769,l),
(564,824,l),
(505,824,l),
(505,769,l)
);
},
{
ref = o;
},
{
pos = (501,-487);
ref = uni031B;
}
);
vertWidth = 0;
width = 829;
}
);
metricLeft = "=o";
metricRight = "=o";
unicode = 417;
},
{
glyphname = oe;
kernLeft = K19;
kernRight = K25;
lastChange = "2023-08-17 19:11:11 +0000";
layers = (
{
anchors = (
{
name = bottom;
pos = (653,-10);
},
{
name = center;
pos = (456,424);
},
{
name = ogonek;
pos = (382,-10);
},
{
name = top;
pos = (720,824);
},
{
name = topright;
pos = (1060,824);
}
);
layerId = "BF4E6768-4291-4940-AB0A-F00B8420ABE6";
shapes = (
{
closed = 1;
nodes = (
(585,-10,o),
(720,220,o),
(720,500,cs),
(720,696,o),
(652,824,o),
(496,824,cs),
(283,824,o),
(118,594,o),
(118,314,cs),
(118,118,o),
(216,-10,o),
(382,-10,cs)
);
},
{
closed = 1;
nodes = (
(299,43,o),
(234,144,o),
(234,313,cs),
(234,572,o),
(346,771,o),
(491,771,cs),
(599,771,o),
(664,670,o),
(664,501,cs),
(664,242,o),
(552,43,o),
(407,43,cs)
);
},
{
pos = (545,0);
ref = e;
}
);
vertWidth = 0;
width = 1187;
},
{
anchors = (
{
name = bottom;
pos = (812,-2);
},
{
name = center;
pos = (575,419);
},
{
name = ogonek;
pos = (422,-10);
},
{
name = top;
pos = (854,824);
},
{
name = topright;
pos = (1234,824);
}
);
layerId = "3718A98A-F41F-4673-9A8B-612E711D0E37";
shapes = (
{
closed = 1;
nodes = (
(691,-10,o),
(854,227,o),
(854,476,cs),
(854,673,o),
(766,824,o),
(545,824,cs),
(280,824,o),
(112,582,o),
(112,338,cs),
(112,141,o),
(210,-10,o),
(422,-10,cs)
);
},
{
closed = 1;
nodes = (
(423,43,o),
(348,144,o),
(348,313,cs),
(348,572,o),
(470,771,o),
(605,771,cs),
(703,771,o),
(778,670,o),
(778,501,cs),
(778,242,o),
(656,43,o),
(521,43,cs)
);
},
{
pos = (666,0);
ref = e;
}
);
vertWidth = 0;
width = 1453;
},
{
anchors = (
{
name = bottom;
pos = (655,-10);
},
{
name = center;
pos = (535,424);
},
{
name = ogonek;
pos = (384,-10);
},
{
name = top;
pos = (883,824);
},
{
name = topright;
pos = (1211,824);
}
);
layerId = m003;
shapes = (
{
closed = 1;
nodes = (
(587,-10,o),
(763,220,o),
(812,500,cs),
(846,696,o),
(801,824,o),
(645,824,cs),
(432,824,o),
(227,594,o),
(177,314,cs),
(143,118,o),
(218,-10,o),
(384,-10,cs)
);
},
{
closed = 1;
nodes = (
(310,43,o),
(263,144,o),
(293,313,cs),
(339,572,o),
(486,771,o),
(631,771,cs),
(739,771,o),
(786,670,o),
(756,501,cs),
(710,242,o),
(563,43,o),
(418,43,cs)
);
},
{
pos = (545,0);
ref = e;
}
);
vertWidth = 0;
width = 1189;
},
{
anchors = (
{
name = bottom;
pos = (681,-10);
},
{
name = center;
pos = (484,424);
},
{
name = ogonek;
pos = (410,-10);
},
{
name = top;
pos = (748,824);
},
{
name = topright;
pos = (1088,824);
}
);
layerId = m004;
shapes = (
{
closed = 1;
nodes = (
(613,-10,o),
(748,220,o),
(748,500,cs),
(748,696,o),
(680,824,o),
(524,824,cs),
(311,824,o),
(146,594,o),
(146,314,cs),
(146,118,o),
(244,-10,o),
(410,-10,cs)
);
},
{
closed = 1;
nodes = (
(327,63,o),
(262,144,o),
(262,313,cs),
(262,572,o),
(374,751,o),
(519,751,cs),
(627,751,o),
(692,670,o),
(692,501,cs),
(692,242,o),
(580,63,o),
(435,63,cs)
);
},
{
pos = (545,0);
ref = e;
}
);
vertWidth = 0;
width = 1245;
}
);
metricLeft = "=o";
metricRight = "=e";
unicode = 339;
},
{
glyphname = p;
kernLeft = K20;
kernRight = K29;
lastChange = "2023-03-25 13:35:51 +0000";
layers = (
{
anchors = (
{
name = bottom;
pos = (267,-486);
},
{
name = top;
pos = (610,824);
}
);
layerId = "BF4E6768-4291-4940-AB0A-F00B8420ABE6";
shapes = (
{
closed = 1;
nodes = (
(688,-10,o),
(852,214,o),
(852,500,cs),
(852,695,o),
(756,824,o),
(610,824,cs),
(517,824,o),
(453,749,o),
(327,491,c),
(360,460,l),
(470,698,o),
(525,771,o),
(592,771,cs),
(672,771,o),
(736,652,o),
(736,501,cs),
(736,241,o),
(626,43,o),
(481,43,cs),
(391,43,o),
(322,115,o),
(288,247,c),
(257,214,l),
(285,80,o),
(375,-10,o),
(479,-10,cs)
);
},
{
closed = 1;
nodes = (
(336,-486,o),
(394,-427,o),
(421,-327,c),
(377,-318,l),
(360,-382,o),
(334,-415,o),
(303,-415,cs),
(252,-415,o),
(239,-359,o),
(258,-230,cs),
(377,564,ls),
(403,737,o),
(365,824,o),
(264,824,cs),
(195,824,o),
(136,764,o),
(109,665,c),
(154,656,l),
(171,720,o),
(197,753,o),
(228,753,cs),
(278,753,o),
(291,698,o),
(272,568,cs),
(153,-226,ls),
(127,-399,o),
(166,-486,o),
(267,-486,cs)
);
}
);
vertWidth = 0;
width = 847;
},
{
anchors = (
{
name = bottom;
pos = (326,-486);
},
{
name = top;
pos = (750,824);
}
);
layerId = "3718A98A-F41F-4673-9A8B-612E711D0E37";
shapes = (
{
closed = 1;
nodes = (
(853,-10,o),
(1034,205,o),
(1034,500,cs),
(1034,712,o),
(936,824,o),
(750,824,cs),
(636,824,o),
(571,752,o),
(450,491,c),
(482,460,l),
(587,697,o),
(639,771,o),
(700,771,cs),
(761,771,o),
(798,669,o),
(798,501,cs),
(798,260,o),
(699,43,o),
(590,43,cs),
(503,43,o),
(446,108,o),
(410,247,c),
(380,214,l),
(411,69,o),
(490,-10,o),
(604,-10,cs)
);
},
{
closed = 1;
nodes = (
(442,-486,o),
(515,-433,o),
(544,-327,c),
(500,-318,l),
(484,-382,o),
(456,-415,o),
(418,-415,cs),
(375,-415,o),
(368,-365,o),
(388,-230,cs),
(504,564,ls),
(529,734,o),
(467,824,o),
(326,824,cs),
(211,824,o),
(138,771,o),
(109,665,c),
(152,656,l),
(168,720,o),
(196,753,o),
(234,753,cs),
(276,753,o),
(284,706,o),
(264,568,cs),
(148,-226,ls),
(123,-397,o),
(185,-486,o),
(326,-486,cs)
);
}
);
vertWidth = 0;
width = 1024;
},
{
anchors = (
{
name = bottom;
pos = (189,-486);
},
{
name = top;
pos = (762,824);
}
);
layerId = m003;
shapes = (
{
closed = 1;
nodes = (
(693,-10,o),
(897,214,o),
(947,500,cs),
(982,695,o),
(908,824,o),
(762,824,cs),
(669,824,o),
(592,749,o),
(421,491,c),
(448,460,l),
(600,698,o),
(668,771,o),
(735,771,cs),
(815,771,o),
(858,652,o),
(832,501,cs),
(786,241,o),
(641,43,o),
(496,43,cs),
(406,43,o),
(349,115,o),
(339,247,c),
(302,214,l),
(306,80,o),
(380,-10,o),
(484,-10,cs)
);
},
{
closed = 1;
nodes = (
(258,-486,o),
(326,-427,o),
(371,-327,c),
(328,-318,l),
(300,-382,o),
(268,-415,o),
(237,-415,cs),
(186,-415,o),
(183,-359,o),
(225,-230,cs),
(484,564,ls),
(540,737,o),
(517,824,o),
(416,824,cs),
(347,824,o),
(278,764,o),
(233,665,c),
(277,656,l),
(305,720,o),
(337,753,o),
(368,753,cs),
(418,753,o),
(421,698,o),
(379,568,cs),
(120,-226,ls),
(64,-399,o),
(88,-486,o),
(189,-486,cs)
);
}
);
vertWidth = 0;
width = 852;
},
{
anchors = (
{
name = bottom;
pos = (356,-486);
},
{
name = top;
pos = (679,824);
}
);
layerId = m004;
shapes = (
{
closed = 1;
nodes = (
(757,-10,o),
(921,214,o),
(921,500,cs),
(921,695,o),
(825,824,o),
(679,824,cs),
(586,824,o),
(522,749,o),
(396,491,c),
(427,440,l),
(537,678,o),
(594,751,o),
(661,751,cs),
(741,751,o),
(805,652,o),
(805,501,cs),
(805,241,o),
(695,63,o),
(550,63,cs),
(460,63,o),
(391,135,o),
(357,267,c),
(326,214,l),
(354,80,o),
(444,-10,o),
(548,-10,cs)
);
},
{
closed = 1;
nodes = (
(425,-486,o),
(503,-427,o),
(550,-317,c),
(506,-288,l),
(469,-362,o),
(423,-405,o),
(382,-405,cs),
(341,-405,o),
(308,-359,o),
(327,-230,cs),
(446,564,ls),
(472,737,o),
(414,824,o),
(313,824,cs),
(244,824,o),
(165,764,o),
(118,655,c),
(163,626,l),
(200,700,o),
(246,743,o),
(287,743,cs),
(327,743,o),
(360,698,o),
(341,568,cs),
(222,-226,ls),
(196,-399,o),
(255,-486,o),
(356,-486,cs)
);
}
);
vertWidth = 0;
width = 943;
}
);
metricLeft = "=n";
metricRight = "=o";
unicode = 112;
},
{
glyphname = thorn;
lastChange = "2023-03-25 13:26:05 +0000";
layers = (
{
anchors = (
{
name = bottom;
pos = (166,-486);
},
{
name = top;
pos = (337,1310);
}
);
layerId = "BF4E6768-4291-4940-AB0A-F00B8420ABE6";
shapes = (
{
closed = 1;
nodes = (
(222,-478,l),
(450,1043,ls),
(476,1218,o),
(437,1310,o),
(337,1310,cs),
(268,1310,o),
(209,1250,o),
(182,1151,c),
(227,1142,l),
(244,1206,o),
(270,1239,o),
(301,1239,cs),
(351,1239,o),
(364,1184,o),
(345,1054,cs),
(116,-478,l)
);
},
{
closed = 1;
nodes = (
(364,-486,l),
(386,-424,l),
(312,-417,o),
(247,-414,o),
(170,-414,cs),
(5,-414,o),
(-45,-430,o),
(-54,-486,c)
);
},
{
closed = 1;
nodes = (
(684,-10,o),
(848,214,o),
(848,500,cs),
(848,702,o),
(750,824,o),
(588,824,cs),
(436,824,o),
(342,690,o),
(313,431,c),
(364,470,l),
(391,670,o),
(457,771,o),
(559,771,cs),
(667,771,o),
(732,670,o),
(732,501,cs),
(732,241,o),
(622,43,o),
(477,43,cs),
(387,43,o),
(318,115,o),
(284,247,c),
(253,214,l),
(281,80,o),
(371,-10,o),
(475,-10,cs)
);
}
);
vertWidth = 0;
width = 843;
},
{
anchors = (
{
name = bottom;
pos = (225,-486);
},
{
name = top;
pos = (420,1310);
}
);
layerId = "3718A98A-F41F-4673-9A8B-612E711D0E37";
shapes = (
{
closed = 1;
nodes = (
(346,-478,l),
(578,1054,ls),
(605,1231,o),
(556,1310,o),
(420,1310,cs),
(298,1310,o),
(210,1251,o),
(182,1151,c),
(226,1142,l),
(242,1206,o),
(269,1239,o),
(307,1239,cs),
(350,1239,o),
(358,1188,o),
(338,1054,cs),
(106,-478,l)
);
},
{
closed = 1;
nodes = (
(484,-486,l),
(506,-424,l),
(443,-418,o),
(331,-414,o),
(230,-414,cs),
(36,-414,o),
(-46,-435,o),
(-54,-486,c)
);
},
{
closed = 1;
nodes = (
(850,-10,o),
(1034,209,o),
(1034,478,cs),
(1034,692,o),
(925,824,o),
(747,824,cs),
(562,824,o),
(463,699,o),
(436,431,c),
(487,470,l),
(508,650,o),
(577,771,o),
(660,771,cs),
(740,771,o),
(798,646,o),
(798,472,cs),
(798,247,o),
(689,43,o),
(570,43,cs),
(502,43,o),
(435,128,o),
(410,247,c),
(379,214,l),
(407,66,o),
(490,-10,o),
(624,-10,cs)
);
}
);
vertWidth = 0;
width = 1026;
},
{
anchors = (
{
name = bottom;
pos = (91,-486);
},
{
name = top;
pos = (578,1310);
}
);
layerId = m003;
shapes = (
{
closed = 1;
nodes = (
(148,-478,l),
(644,1043,ls),
(701,1218,o),
(678,1310,o),
(578,1310,cs),
(509,1310,o),
(440,1250,o),
(395,1151,c),
(439,1142,l),
(467,1206,o),
(499,1239,o),
(530,1239,cs),
(580,1239,o),
(583,1184,o),
(541,1054,cs),
(42,-478,l)
);
},
{
closed = 1;
nodes = (
(289,-486,l),
(322,-424,l),
(249,-417,o),
(184,-414,o),
(107,-414,cs),
(-58,-414,o),
(-110,-430,o),
(-129,-486,c)
);
},
{
closed = 1;
nodes = (
(693,-10,o),
(896,214,o),
(947,500,cs),
(982,702,o),
(906,824,o),
(744,824,cs),
(592,824,o),
(474,690,o),
(399,431,c),
(457,470,l),
(519,670,o),
(603,771,o),
(705,771,cs),
(813,771,o),
(860,670,o),
(831,501,cs),
(785,241,o),
(640,43,o),
(495,43,cs),
(405,43,o),
(349,115,o),
(338,247,c),
(301,214,l),
(305,80,o),
(380,-10,o),
(484,-10,cs)
);
}
);
vertWidth = 0;
width = 852;
},
{
anchors = (
{
name = bottom;
pos = (230,-486);
},
{
name = top;
pos = (381,1310);
}
);
layerId = m004;
shapes = (
{
closed = 1;
nodes = (
(286,-478,l),
(514,1043,ls),
(540,1218,o),
(481,1310,o),
(381,1310,cs),
(312,1310,o),
(233,1250,o),
(186,1141,c),
(231,1112,l),
(268,1186,o),
(314,1229,o),
(355,1229,cs),
(395,1229,o),
(428,1184,o),
(409,1054,cs),
(180,-478,l)
);
},
{
closed = 1;
nodes = (
(428,-486,l),
(450,-419,l),
(376,-419,o),
(311,-419,o),
(112,-419,cs),
(69,-419,o),
(19,-430,o),
(10,-486,c)
);
},
{
closed = 1;
nodes = (
(748,-10,o),
(912,214,o),
(912,500,cs),
(912,702,o),
(814,824,o),
(652,824,cs),
(500,824,o),
(406,690,o),
(377,431,c),
(425,450,l),
(452,650,o),
(521,751,o),
(623,751,cs),
(731,751,o),
(796,670,o),
(796,501,cs),
(796,241,o),
(686,63,o),
(541,63,cs),
(451,63,o),
(382,135,o),
(348,267,c),
(317,214,l),
(345,80,o),
(435,-10,o),
(539,-10,cs)
);
}
);
vertWidth = 0;
width = 934;
}
);
metricRight = "=o";
unicode = 254;
},
{
glyphname = q;
lastChange = "2023-03-25 13:26:35 +0000";
layers = (
{
anchors = (
{
name = bottom;
pos = (630,-486);
},
{
name = top;
pos = (491,824);
}
);
layerId = "BF4E6768-4291-4940-AB0A-F00B8420ABE6";
shapes = (
{
closed = 1;
nodes = (
(699,-486,o),
(758,-426,o),
(785,-327,c),
(740,-318,l),
(723,-382,o),
(697,-415,o),
(666,-415,cs),
(615,-415,o),
(603,-359,o),
(622,-230,cs),
(742,568,ls),
(761,693,o),
(791,753,o),
(832,753,cs),
(860,753,o),
(877,716,o),
(877,656,c),
(924,665,l),
(924,761,o),
(881,824,o),
(817,824,cs),
(727,824,o),
(659,727,o),
(635,564,cs),
(517,-226,ls),
(491,-399,o),
(529,-486,o),
(630,-486,cs)
);
},
{
closed = 1;
nodes = (
(530,-10,o),
(624,124,o),
(653,384,c),
(602,342,l),
(575,144,o),
(508,43,o),
(407,43,cs),
(299,43,o),
(234,144,o),
(234,313,cs),
(234,573,o),
(344,771,o),
(489,771,cs),
(579,771,o),
(648,699,o),
(682,567,c),
(713,600,l),
(685,734,o),
(595,824,o),
(491,824,cs),
(282,824,o),
(118,600,o),
(118,314,cs),
(118,112,o),
(216,-10,o),
(378,-10,cs)
);
}
);
vertWidth = 0;
width = 843;
},
{
anchors = (
{
name = bottom;
pos = (747,-501);
},
{
name = top;
pos = (524,824);
}
);
layerId = "3718A98A-F41F-4673-9A8B-612E711D0E37";
shapes = (
{
closed = 1;
nodes = (
(863,-501,o),
(936,-448,o),
(965,-342,c),
(921,-333,l),
(905,-397,o),
(878,-430,o),
(840,-430,cs),
(798,-430,o),
(788,-381,o),
(809,-245,cs),
(933,568,ls),
(952,691,o),
(981,753,o),
(1023,753,cs),
(1051,753,o),
(1068,716,o),
(1068,656,c),
(1115,665,l),
(1115,774,o),
(1058,824,o),
(933,824,cs),
(793,824,o),
(713,739,o),
(691,564,c),
(569,-241,ls),
(543,-411,o),
(605,-501,o),
(747,-501,cs)
);
},
{
closed = 1;
nodes = (
(585,-10,o),
(684,114,o),
(711,382,c),
(660,345,l),
(639,164,o),
(570,43,o),
(488,43,cs),
(407,43,o),
(349,169,o),
(349,342,cs),
(349,567,o),
(458,771,o),
(577,771,cs),
(645,771,o),
(712,686,o),
(737,567,c),
(768,600,l),
(740,748,o),
(657,824,o),
(524,824,cs),
(298,824,o),
(113,605,o),
(113,336,cs),
(113,122,o),
(222,-10,o),
(400,-10,cs)
);
}
);
vertWidth = 0;
width = 1026;
},
{
anchors = (
{
name = bottom;
pos = (548,-486);
},
{
name = top;
pos = (639,824);
}
);
layerId = m003;
shapes = (
{
closed = 1;
nodes = (
(617,-486,o),
(686,-426,o),
(731,-327,c),
(687,-318,l),
(659,-382,o),
(627,-415,o),
(596,-415,cs),
(545,-415,o),
(543,-359,o),
(585,-230,cs),
(845,568,ls),
(886,693,o),
(927,753,o),
(968,753,cs),
(996,753,o),
(1006,716,o),
(996,656,c),
(1044,665,l),
(1061,761,o),
(1029,824,o),
(965,824,cs),
(875,824,o),
(790,727,o),
(738,564,cs),
(480,-226,ls),
(424,-399,o),
(447,-486,o),
(548,-486,cs)
);
},
{
closed = 1;
nodes = (
(531,-10,o),
(649,124,o),
(724,384,c),
(666,342,l),
(604,144,o),
(519,43,o),
(418,43,cs),
(310,43,o),
(263,144,o),
(292,313,cs),
(338,573,o),
(483,771,o),
(628,771,cs),
(718,771,o),
(774,699,o),
(785,567,c),
(822,600,l),
(818,734,o),
(743,824,o),
(639,824,cs),
(430,824,o),
(227,600,o),
(177,314,cs),
(141,112,o),
(217,-10,o),
(379,-10,cs)
);
}
);
vertWidth = 0;
width = 843;
},
{
anchors = (
{
name = bottom;
pos = (678,-486);
},
{
name = top;
pos = (519,824);
}
);
layerId = m004;
shapes = (
{
closed = 1;
nodes = (
(747,-486,o),
(826,-426,o),
(873,-317,c),
(828,-288,l),
(791,-362,o),
(745,-405,o),
(704,-405,cs),
(663,-405,o),
(631,-359,o),
(650,-230,cs),
(770,568,ls),
(789,693,o),
(839,743,o),
(870,743,cs),
(908,743,o),
(945,696,o),
(965,626,c),
(1012,655,l),
(992,761,o),
(929,824,o),
(865,824,cs),
(775,824,o),
(687,727,o),
(663,564,cs),
(545,-226,ls),
(519,-399,o),
(577,-486,o),
(678,-486,cs)
);
},
{
closed = 1;
nodes = (
(558,-10,o),
(652,124,o),
(681,384,c),
(633,362,l),
(606,164,o),
(536,63,o),
(435,63,cs),
(327,63,o),
(262,144,o),
(262,313,cs),
(262,573,o),
(372,751,o),
(517,751,cs),
(607,751,o),
(676,679,o),
(710,547,c),
(741,600,l),
(713,734,o),
(623,824,o),
(519,824,cs),
(310,824,o),
(146,600,o),
(146,314,cs),
(146,112,o),
(244,-10,o),
(406,-10,cs)
);
}
);
vertWidth = 0;
width = 935;
}
);
metricLeft = "=o";
unicode = 113;
},
{
glyphname = r;
kernLeft = K20;
kernRight = K36;
lastChange = "2023-08-28 20:58:06 +0000";
layers = (
{
anchors = (
{
name = bottom;
pos = (246,6);
},
{
name = top;
pos = (525,824);
}
);
layerId = "BF4E6768-4291-4940-AB0A-F00B8420ABE6";
shapes = (
{
closed = 1;
nodes = (
(330,339,o),
(543,771,o),
(671,771,cs),
(715,771,o),
(746,737,o),
(774,658,c),
(795,669,o),
(808,693,o),
(808,721,cs),
(808,779,o),
(754,824,o),
(685,824,cs),
(518,824,o),
(317,449,o),
(246,6,c),
(292,0,l)
);
},
{
closed = 1;
nodes = (
(292,0,l),
(377,564,ls),
(403,737,o),
(365,824,o),
(264,824,cs),
(195,824,o),
(136,764,o),
(109,665,c),
(153,656,l),
(170,720,o),
(196,753,o),
(227,753,cs),
(278,753,o),
(292,697,o),
(272,568,cs),
(186,0,l)
);
}
);
vertWidth = 0;
width = 720;
},
{
anchors = (
{
name = bottom;
pos = (327,0);
},
{
name = top;
pos = (589,824);
}
);
layerId = "3718A98A-F41F-4673-9A8B-612E711D0E37";
shapes = (
{
closed = 1;
nodes = (
(465,386,o),
(627,771,o),
(745,771,cs),
(787,771,o),
(824,722,o),
(837,648,c),
(888,657,o),
(923,695,o),
(923,742,cs),
(923,794,o),
(875,824,o),
(793,824,cs),
(589,824,o),
(475,602,o),
(374,6,c),
(420,0,l)
);
},
{
closed = 1;
nodes = (
(420,0,l),
(505,564,ls),
(531,734,o),
(469,824,o),
(327,824,cs),
(211,824,o),
(138,771,o),
(109,665,c),
(153,656,l),
(169,720,o),
(197,753,o),
(235,753,cs),
(278,753,o),
(285,703,o),
(265,568,cs),
(179,0,l)
);
}
);
vertWidth = 0;
width = 831;
},
{
anchors = (
{
name = bottom;
pos = (253,6);
},
{
name = top;
pos = (677,824);
}
);
layerId = m003;
shapes = (
{
closed = 1;
nodes = (
(396,339,o),
(685,771,o),
(813,771,cs),
(857,771,o),
(882,737,o),
(896,658,c),
(919,669,o),
(937,693,o),
(941,721,cs),
(952,779,o),
(906,824,o),
(837,824,cs),
(670,824,o),
(403,449,o),
(253,6,c),
(298,0,l)
);
},
{
closed = 1;
nodes = (
(298,0,l),
(483,564,ls),
(539,737,o),
(517,824,o),
(416,824,cs),
(347,824,o),
(277,764,o),
(233,665,c),
(275,656,l),
(303,720,o),
(335,753,o),
(366,753,cs),
(417,753,o),
(421,697,o),
(379,568,cs),
(192,0,l)
);
}
);
vertWidth = 0;
width = 720;
},
{
anchors = (
{
name = bottom;
pos = (315,6);
},
{
name = top;
pos = (594,824);
}
);
layerId = m004;
shapes = (
{
closed = 1;
nodes = (
(438,523,o),
(622,751,o),
(731,751,cs),
(784,751,o),
(823,714,o),
(843,658,c),
(864,669,o),
(877,693,o),
(877,721,cs),
(877,779,o),
(823,824,o),
(754,824,cs),
(587,824,o),
(399,617,o),
(315,6,c),
(361,0,l)
);
},
{
closed = 1;
nodes = (
(361,0,l),
(446,564,ls),
(472,737,o),
(414,824,o),
(313,824,cs),
(244,824,o),
(165,764,o),
(118,655,c),
(162,626,l),
(199,700,o),
(245,743,o),
(286,743,cs),
(327,743,o),
(361,697,o),
(341,568,cs),
(255,0,l)
);
}
);
vertWidth = 0;
width = 808;
}
);
metricLeft = "=n";
unicode = 114;
},
